<svg width="237" height="143" viewBox="0 0 237 143" fill="none" xmlns="http://www.w3.org/2000/svg">
<g filter="url(#filter0_d_110_4)">
<path d="M32.1346 22C29.3106 22 27 24.3106 27 27.1346V105.865C27 108.689 29.3106 111 32.1346 111H110.865C113.689 111 116 108.689 116 105.865V27.1346C116 24.3106 113.689 22 110.865 22H32.1346ZM32.1346 25.4231H110.865C111.807 25.4231 112.577 26.1933 112.577 27.1346V105.865C112.577 106.807 111.807 107.577 110.865 107.577H32.1346C31.1933 107.577 30.4231 106.807 30.4231 105.865V27.1346C30.4231 26.1933 31.1933 25.4231 32.1346 25.4231ZM40.6923 32.2692C38.8096 32.2692 37.2692 33.8096 37.2692 35.6923V97.3077C37.2692 99.1904 38.8096 100.731 40.6923 100.731H45.8269C46.7683 100.731 47.5385 99.9606 47.5385 99.0192C47.5385 98.0779 46.7683 97.3077 45.8269 97.3077H40.6923V35.6923H102.308V97.3077H97.1731C96.2317 97.3077 95.4615 98.0779 95.4615 99.0192C95.4615 99.9606 96.2317 100.731 97.1731 100.731H102.308C104.19 100.731 105.731 99.1904 105.731 97.3077V35.6923C105.731 33.8096 104.19 32.2692 102.308 32.2692H40.6923Z" fill="white"/>
<path d="M56.8662 97.3249L66.1257 92.5326V93.9189L58.3211 97.8384V97.8726L66.1257 101.792V103.178L56.8662 98.3861V97.3249Z" fill="white"/>
<path fill-rule="evenodd" clip-rule="evenodd" d="M66.3481 92.1671C66.4757 92.2448 66.5536 92.3833 66.5536 92.5327V93.919C66.5536 94.0808 66.4623 94.2288 66.3177 94.3014L59.2404 97.8556L66.3177 101.41C66.4623 101.482 66.5536 101.63 66.5536 101.792V103.178C66.5536 103.328 66.4757 103.466 66.3481 103.544C66.2205 103.622 66.0616 103.627 65.929 103.558L56.6696 98.7662C56.5276 98.6926 56.4384 98.5461 56.4384 98.3861V97.325C56.4384 97.1651 56.5276 97.0185 56.6696 96.945L65.929 92.1527C66.0616 92.084 66.2205 92.0895 66.3481 92.1671ZM57.2941 97.5853V98.1258L65.6978 102.475V102.056L58.129 98.2551C57.9844 98.1824 57.8932 98.0345 57.8932 97.8727V97.8385C57.8932 97.6767 57.9844 97.5287 58.129 97.4561L65.6978 93.6551V93.2359L57.2941 97.5853Z" fill="white"/>
<path d="M67.4093 104L72.9718 89.486H74.324L68.7443 104H67.4093Z" fill="white"/>
<path fill-rule="evenodd" clip-rule="evenodd" d="M72.5723 89.3329C72.6357 89.1674 72.7946 89.0582 72.9718 89.0582H74.3239C74.4649 89.0582 74.5968 89.1276 74.6766 89.2438C74.7564 89.36 74.7739 89.508 74.7233 89.6396L69.1437 104.153C69.0802 104.319 68.9214 104.428 68.7443 104.428H67.4093C67.2684 104.428 67.1366 104.358 67.0568 104.242C66.9769 104.126 66.9594 103.978 67.0098 103.847L72.5723 89.3329ZM73.2661 89.9139L68.0315 103.572H68.4504L73.701 89.9139H73.2661Z" fill="white"/>
<path d="M84.8499 98.4203L75.5905 103.196V101.809L83.4465 97.8897V97.8555L75.5905 93.9361V92.5497L84.8499 97.3078V98.4203Z" fill="white"/>
<path fill-rule="evenodd" clip-rule="evenodd" d="M75.3675 92.1846C75.4948 92.1069 75.6534 92.101 75.786 92.1692L85.0455 96.9273C85.1881 97.0006 85.2778 97.1475 85.2778 97.3078V98.4203C85.2778 98.5805 85.1883 98.7272 85.046 98.8006L75.7866 103.576C75.6539 103.644 75.4952 103.639 75.3678 103.561C75.2404 103.483 75.1626 103.345 75.1626 103.196V101.809C75.1626 101.647 75.2543 101.499 75.3995 101.426L82.5223 97.8727L75.3995 94.319C75.2543 94.2466 75.1626 94.0983 75.1626 93.9361V92.5498C75.1626 92.4006 75.2402 92.2623 75.3675 92.1846ZM76.0184 93.2507V93.6714L83.6375 97.4727C83.7826 97.5451 83.8743 97.6933 83.8743 97.8555V97.8898C83.8743 98.052 83.7826 98.2002 83.6375 98.2726L76.0184 102.074V102.493L84.422 98.1596V97.569L76.0184 93.2507Z" fill="white"/>
<path d="M47.7952 50.5315C49.7977 50.1549 52.1768 49.864 54.7954 49.864C59.5193 49.864 62.891 51.2503 65.116 53.869C67.3923 56.4876 68.7102 60.2188 68.7102 65.4047C68.7102 70.642 67.4266 74.938 65.0475 77.8989C62.6685 80.8941 58.7319 82.5201 53.7856 82.5201C51.4408 82.5201 49.4725 82.3832 47.8123 82.1436V50.5315H47.7952ZM51.0814 78.943C51.92 79.1313 53.1181 79.1826 54.4018 79.1826C61.4362 79.1826 65.2529 74.2191 65.2529 65.5416C65.2871 57.9595 61.8812 53.1501 54.9323 53.1501C53.2379 53.1501 51.9371 53.3384 51.0814 53.578V78.943Z" fill="white"/>
<path d="M74.7177 59.1577L77.131 70.8817C77.6616 73.449 78.1579 75.8451 78.5002 78.2242H78.62C79.0308 75.8794 79.647 73.4148 80.246 70.933L83.2412 59.1577H86.031L88.8721 70.6934C89.5568 73.4661 90.0873 75.8965 90.4981 78.2242H90.6179C90.926 75.8794 91.4052 73.449 92.0214 70.7448L94.6229 59.1577H97.9091L92.0043 82.2463H88.9748L86.185 71.224C85.5346 68.6567 85.0041 66.3632 84.5591 63.6419H84.4906C84.0285 66.4146 83.4637 68.7936 82.8304 71.2753L79.8866 82.2463H76.8571L71.3289 59.1577H74.7177Z" fill="white"/>
</g>
<g filter="url(#filter1_d_110_4)">
<path d="M131.019 22C128.259 22 126 24.2587 126 27.0192V103.981C126 106.741 128.259 109 131.019 109H207.981C210.741 109 213 106.741 213 103.981V27.0192C213 24.2587 210.741 22 207.981 22H131.019ZM131.019 25.3462H207.981C208.901 25.3462 209.654 26.099 209.654 27.0192V103.981C209.654 104.901 208.901 105.654 207.981 105.654H131.019C130.099 105.654 129.346 104.901 129.346 103.981V27.0192C129.346 26.099 130.099 25.3462 131.019 25.3462ZM139.385 32.0385C137.544 32.0385 136.038 33.5442 136.038 35.3846V95.6154C136.038 97.4558 137.544 98.9615 139.385 98.9615H144.404C145.324 98.9615 146.077 98.2086 146.077 97.2885C146.077 96.3683 145.324 95.6154 144.404 95.6154H139.385V35.3846H199.615V95.6154H194.596C193.676 95.6154 192.923 96.3683 192.923 97.2885C192.923 98.2086 193.676 98.9615 194.596 98.9615H199.615C201.456 98.9615 202.962 97.4558 202.962 95.6154V35.3846C202.962 33.5442 201.456 32.0385 199.615 32.0385H139.385Z" fill="white"/>
<path d="M149.422 47.657L157.579 60.8183H157.826L165.982 47.657H170.493L160.544 63.4752L170.493 79.2934H165.982L157.826 66.3793H157.579L149.422 79.2934H144.912L155.107 63.4752L144.912 47.657H149.422Z" fill="white"/>
<path d="M182.712 79.7877C180.734 79.7877 178.989 79.2883 177.475 78.2893C175.961 77.2801 174.777 75.8589 173.922 74.0258C173.067 72.1824 172.64 70.0043 172.64 67.4916C172.64 64.9994 173.067 62.8367 173.922 61.0036C174.777 59.1705 175.966 57.7545 177.49 56.7556C179.014 55.7567 180.775 55.2572 182.773 55.2572C184.318 55.2572 185.538 55.5146 186.434 56.0296C187.341 56.5342 188.031 57.1109 188.504 57.7597C188.988 58.3982 189.364 58.9234 189.632 59.3353H189.941V47.657H193.587V79.2934H190.065V75.6478H189.632C189.364 76.0803 188.983 76.6262 188.489 77.2852C187.995 77.934 187.289 78.5159 186.373 79.0308C185.456 79.5354 184.236 79.7877 182.712 79.7877ZM183.206 76.5129C184.668 76.5129 185.904 76.1318 186.913 75.3698C187.922 74.5974 188.69 73.5315 189.215 72.1721C189.74 70.8025 190.003 69.2217 190.003 67.4298C190.003 65.6585 189.745 64.1086 189.23 62.7801C188.715 61.4413 187.953 60.4012 186.944 59.6597C185.935 58.9079 184.689 58.532 183.206 58.532C181.661 58.532 180.374 58.9285 179.344 59.7215C178.324 60.5042 177.557 61.57 177.042 62.9191C176.538 64.2579 176.285 65.7614 176.285 67.4298C176.285 69.1187 176.543 70.6531 177.058 72.0331C177.583 73.4028 178.355 74.4944 179.375 75.308C180.405 76.1112 181.682 76.5129 183.206 76.5129Z" fill="white"/>
<path d="M168.496 90.5794L159.445 95.264C159.311 95.3309 159.227 95.4815 159.227 95.6321V96.6861C159.227 96.8367 159.311 96.9873 159.445 97.0542L168.496 101.739C168.563 101.772 168.63 101.789 168.697 101.789C168.764 101.789 168.848 101.772 168.914 101.722C169.032 101.638 169.115 101.505 169.115 101.371V100.016C169.115 99.865 169.032 99.7144 168.881 99.6475L161.954 96.1675L168.881 92.6875C169.015 92.6205 169.115 92.47 169.115 92.3194V90.9642C169.115 90.8136 169.032 90.6798 168.914 90.6128C168.781 90.5125 168.63 90.4957 168.496 90.5794Z" fill="white"/>
<path d="M176.728 87.5344H175.406C175.239 87.5344 175.071 87.6348 175.021 87.8021L169.584 101.99C169.534 102.124 169.55 102.257 169.634 102.375C169.718 102.492 169.835 102.559 169.985 102.559H171.29C171.458 102.559 171.625 102.458 171.675 102.291L177.129 88.1033C177.179 87.9694 177.163 87.8356 177.079 87.7185C176.995 87.6013 176.862 87.5344 176.728 87.5344Z" fill="white"/>
<path d="M177.765 99.6308C177.631 99.6977 177.531 99.8483 177.531 99.9988V101.354C177.531 101.505 177.598 101.638 177.732 101.705C177.799 101.739 177.865 101.772 177.949 101.772C178.016 101.772 178.083 101.756 178.133 101.722L184.039 98.6771L183.269 96.8702L177.765 99.6308Z" fill="white"/>
<path d="M177.765 92.6707L182.483 95.0297C182.366 94.7286 182.433 94.3772 182.667 94.143C182.918 93.8921 183.286 93.8419 183.604 93.9757L187.419 95.7324V95.5819C187.419 95.4313 187.335 95.2807 187.184 95.2138L178.133 90.5459C177.999 90.479 177.849 90.479 177.732 90.5626C177.614 90.6463 177.531 90.7801 177.531 90.914V92.2692C177.531 92.4532 177.631 92.6038 177.765 92.6707Z" fill="white"/>
<path d="M187.419 96.6694L183.269 94.7454L183.638 95.5986L184.022 96.5188L184.792 98.309L185.076 98.9615L186.883 103.178L187.435 99.3129L191.585 98.5934L187.419 96.6694Z" fill="white"/>
<path d="M160.549 101.722H151.832V98.7942H154.392V92.3027H151.832V89.5588H161.335C161.804 89.5588 162.172 89.1907 162.172 88.7223C162.172 88.2538 161.804 87.8857 161.335 87.8857H150.996C150.527 87.8857 150.159 88.2538 150.159 88.7223V92.3027H147.901V98.7942H150.159V102.559C150.159 103.027 150.527 103.395 150.996 103.395H160.549C161.018 103.395 161.386 103.027 161.386 102.559C161.386 102.09 161.001 101.722 160.549 101.722ZM149.574 93.9757H150.159H151.832H152.719V97.1211H151.832H150.159H149.574V93.9757Z" fill="white"/>
</g>
<defs>
<filter id="filter0_d_110_4" x="0" y="0" width="143" height="143" filterUnits="userSpaceOnUse" color-interpolation-filters="sRGB">
<feFlood flood-opacity="0" result="BackgroundImageFix"/>
<feColorMatrix in="SourceAlpha" type="matrix" values="0 0 0 0 0 0 0 0 0 0 0 0 0 0 0 0 0 0 127 0" result="hardAlpha"/>
<feOffset dy="5"/>
<feGaussianBlur stdDeviation="13.5"/>
<feComposite in2="hardAlpha" operator="out"/>
<feColorMatrix type="matrix" values="0 0 0 0 0 0 0 0 0 1 0 0 0 0 0.0999999 0 0 0 1 0"/>
<feBlend mode="normal" in2="BackgroundImageFix" result="effect1_dropShadow_110_4"/>
<feBlend mode="normal" in="SourceGraphic" in2="effect1_dropShadow_110_4" result="shape"/>
</filter>
<filter id="filter1_d_110_4" x="102" y="2" width="135" height="135" filterUnits="userSpaceOnUse" color-interpolation-filters="sRGB">
<feFlood flood-opacity="0" result="BackgroundImageFix"/>
<feColorMatrix in="SourceAlpha" type="matrix" values="0 0 0 0 0 0 0 0 0 0 0 0 0 0 0 0 0 0 127 0" result="hardAlpha"/>
<feOffset dy="4"/>
<feGaussianBlur stdDeviation="12"/>
<feComposite in2="hardAlpha" operator="out"/>
<feColorMatrix type="matrix" values="0 0 0 0 1 0 0 0 0 0 0 0 0 0 0.96 0 0 0 1 0"/>
<feBlend mode="normal" in2="BackgroundImageFix" result="effect1_dropShadow_110_4"/>
<feBlend mode="normal" in="SourceGraphic" in2="effect1_dropShadow_110_4" result="shape"/>
</filter>
</defs>
</svg>
