<svg width="445" height="251" viewBox="0 0 445 251" fill="none" xmlns="http://www.w3.org/2000/svg">
<g filter="url(#filter0_d_106_3)">
<path d="M232.157 23C229.321 23 227 25.3207 227 28.1572V107.234C227 110.07 229.321 112.391 232.157 112.391H311.234C314.07 112.391 316.391 110.07 316.391 107.234V28.1572C316.391 25.3207 314.07 23 311.234 23H232.157ZM232.157 26.4381H311.234C312.179 26.4381 312.953 27.2117 312.953 28.1572V107.234C312.953 108.179 312.179 108.953 311.234 108.953H232.157C231.212 108.953 230.438 108.179 230.438 107.234V28.1572C230.438 27.2117 231.212 26.4381 232.157 26.4381ZM240.752 33.3143C238.861 33.3143 237.314 34.8615 237.314 36.7524V98.6383C237.314 100.529 238.861 102.076 240.752 102.076H245.91C246.855 102.076 247.629 101.303 247.629 100.357C247.629 99.4119 246.855 98.6383 245.91 98.6383H240.752V36.7524H302.638V98.6383H297.481C296.536 98.6383 295.762 99.4119 295.762 100.357C295.762 101.303 296.536 102.076 297.481 102.076H302.638C304.529 102.076 306.076 100.529 306.076 98.6383V36.7524C306.076 34.8615 304.529 33.3143 302.638 33.3143H240.752Z" fill="white"/>
<path d="M252.614 71.5288L249.279 81.6884H244.981L255.914 49.4046H260.934L271.919 81.6884H267.484L264.046 71.5288H252.614ZM263.169 68.2626L260.023 58.9625C259.301 56.8481 258.837 54.9399 258.355 53.0662H258.27C257.788 54.9743 257.272 56.9512 256.654 58.911L253.508 68.2454H263.169V68.2626Z" fill="white"/>
<path d="M295.263 75.3622C295.263 77.7517 295.315 79.8661 295.453 81.6883H291.722L291.482 77.9064H291.378C290.278 79.7802 287.837 82.2212 283.746 82.2212C280.119 82.2212 275.769 80.2099 275.769 72.0616V58.4983H279.964V71.3396C279.964 75.7404 281.305 78.7143 285.121 78.7143C287.94 78.7143 289.9 76.7546 290.656 74.8809C290.897 74.262 291.035 73.4884 291.035 72.732V58.4983H295.229V75.3622H295.263Z" fill="white"/>
<path d="M258.132 102.265C258.132 101.389 257.427 100.684 256.551 100.684H253.37C252.494 100.684 251.789 101.389 251.789 102.265C251.789 103.142 252.494 103.847 253.37 103.847H256.551C257.41 103.847 258.132 103.142 258.132 102.265Z" fill="white"/>
<path d="M266.899 102.265C266.899 101.389 266.194 100.684 265.318 100.684H262.137C261.261 100.684 260.556 101.389 260.556 102.265C260.556 103.142 261.261 103.847 262.137 103.847H265.318C266.194 103.847 266.899 103.142 266.899 102.265Z" fill="white"/>
<path d="M266.899 97.7786C266.899 96.9019 266.194 96.1971 265.318 96.1971H262.137C261.261 96.1971 260.556 96.9019 260.556 97.7786C260.556 98.6553 261.261 99.3601 262.137 99.3601H265.318C266.194 99.3601 266.899 98.6553 266.899 97.7786Z" fill="white"/>
<path d="M266.899 93.2919C266.899 92.4152 266.194 91.7104 265.318 91.7104H262.137C261.261 91.7104 260.556 92.4152 260.556 93.2919C260.556 94.1686 261.261 94.8734 262.137 94.8734H265.318C266.194 94.8906 266.899 94.1686 266.899 93.2919Z" fill="white"/>
<path d="M275.684 102.265C275.684 101.389 274.979 100.684 274.102 100.684H270.922C270.045 100.684 269.34 101.389 269.34 102.265C269.34 103.142 270.045 103.847 270.922 103.847H274.102C274.962 103.847 275.684 103.142 275.684 102.265Z" fill="white"/>
<path d="M275.684 97.7786C275.684 96.9019 274.979 96.1971 274.102 96.1971H270.922C270.045 96.1971 269.34 96.9019 269.34 97.7786C269.34 98.6553 270.045 99.3601 270.922 99.3601H274.102C274.962 99.3601 275.684 98.6553 275.684 97.7786Z" fill="white"/>
<path d="M284.451 102.265C284.451 101.389 283.746 100.684 282.869 100.684H279.689C278.812 100.684 278.108 101.389 278.108 102.265C278.108 103.142 278.812 103.847 279.689 103.847H282.869C283.746 103.847 284.451 103.142 284.451 102.265Z" fill="white"/>
<path d="M284.451 97.7786C284.451 96.9019 283.746 96.1971 282.869 96.1971H279.689C278.812 96.1971 278.108 96.9019 278.108 97.7786C278.108 98.6553 278.812 99.3601 279.689 99.3601H282.869C283.746 99.3601 284.451 98.6553 284.451 97.7786Z" fill="white"/>
<path d="M284.451 93.2919C284.451 92.4152 283.746 91.7104 282.869 91.7104H279.689C278.812 91.7104 278.108 92.4152 278.108 93.2919C278.108 94.1686 278.812 94.8734 279.689 94.8734H282.869C283.746 94.8906 284.451 94.1686 284.451 93.2919Z" fill="white"/>
<path d="M293.235 102.265C293.235 101.389 292.53 100.684 291.654 100.684H288.473C287.597 100.684 286.892 101.389 286.892 102.265C286.892 103.142 287.597 103.847 288.473 103.847H291.654C292.513 103.847 293.235 103.142 293.235 102.265Z" fill="white"/>
<path d="M293.235 97.7786C293.235 96.9019 292.53 96.1971 291.654 96.1971H288.473C287.597 96.1971 286.892 96.9019 286.892 97.7786C286.892 98.6553 287.597 99.3601 288.473 99.3601H291.654C292.513 99.3601 293.235 98.6553 293.235 97.7786Z" fill="white"/>
<path d="M293.235 93.2919C293.235 92.4152 292.53 91.7104 291.654 91.7104H288.473C287.597 91.7104 286.892 92.4152 286.892 93.2919C286.892 94.1686 287.597 94.8734 288.473 94.8734H291.654C292.513 94.8906 293.235 94.1686 293.235 93.2919Z" fill="white"/>
</g>
<g filter="url(#filter1_d_106_3)">
<path d="M402.638 33.3143H340.752C338.861 33.3143 337.314 34.8614 337.314 36.7524V98.6383C337.314 100.529 338.861 102.076 340.752 102.076H345.91C346.855 102.076 347.629 101.303 347.629 100.357C347.629 99.4118 346.855 98.6383 345.91 98.6383H340.752V36.7524H402.638V98.6383H397.481C396.536 98.6383 395.762 99.4118 395.762 100.357C395.762 101.303 396.536 102.076 397.481 102.076H402.638C404.529 102.076 406.076 100.529 406.076 98.6383V36.7524C406.076 34.8614 404.529 33.3143 402.638 33.3143Z" fill="white"/>
<path d="M411.234 23H332.157C329.321 23 327 25.3207 327 28.1572V107.234C327 110.07 329.321 112.391 332.157 112.391H411.234C414.07 112.391 416.391 110.07 416.391 107.234V28.1572C416.391 25.3207 414.07 23 411.234 23ZM412.953 107.234C412.953 108.179 412.179 108.953 411.234 108.953H332.157C331.212 108.953 330.438 108.179 330.438 107.234V28.1572C330.438 27.2117 331.212 26.4381 332.157 26.4381H411.234C412.179 26.4381 412.953 27.2117 412.953 28.1572V107.234Z" fill="white"/>
<path d="M397.481 87.8943H393.115V83.5107H388.731V79.1443H384.365V74.7779H379.998V70.4116H375.615V66.028H371.248V61.6616H366.882V57.2952H362.516V52.9116H358.132V48.5452H353.766V44.1788H349.399V39.7952H345.016V44.1788V92.2607H393.115H397.481V87.8943Z" fill="white"/>
<path d="M389.299 96.0597H353.044C351.032 96.0597 349.399 97.6928 349.399 99.7041V101.062C349.399 103.073 351.032 104.707 353.044 104.707H389.299C391.31 104.707 392.943 103.073 392.943 101.062V99.7041C392.926 97.6928 391.293 96.0597 389.299 96.0597ZM355.863 101.578L353.783 102.781V100.375V97.9678L355.863 99.1712L357.943 100.375L355.863 101.578ZM390.106 101.303H367.243C366.899 101.87 366.298 102.283 365.576 102.283C364.854 102.283 364.252 101.887 363.908 101.303H360.367V99.4634H363.805C364.132 98.8102 364.785 98.346 365.576 98.346C366.366 98.346 367.02 98.8102 367.346 99.4634H390.106V101.303Z" fill="white"/>
</g>
<g filter="url(#filter2_d_106_3)">
<path d="M59.4212 176.999L56.0863 187.159H51.7886L62.7218 154.875H67.7414L78.7262 187.159H74.291L70.8529 176.999H59.4212ZM69.959 173.75L66.8132 164.45C66.0912 162.336 65.627 160.428 65.1457 158.554H65.0597C64.5784 160.462 64.0627 162.439 63.4438 164.399L60.2979 173.733H69.959V173.75Z" fill="white"/>
<path d="M87.8199 157.47C87.8715 158.914 86.8229 160.049 85.1382 160.049C83.6598 160.049 82.6112 158.897 82.6112 157.47C82.6112 155.992 83.7114 154.84 85.2414 154.84C86.8229 154.823 87.8199 155.975 87.8199 157.47ZM83.1441 187.158V163.986H87.3386V187.158H83.1441Z" fill="white"/>
<path d="M102.638 140.314H40.7524C38.8614 140.314 37.3143 141.861 37.3143 143.752V205.638C37.3143 207.529 38.8614 209.076 40.7524 209.076H45.9095C46.855 209.076 47.6286 208.303 47.6286 207.357C47.6286 206.412 46.855 205.638 45.9095 205.638H40.7524V143.752H102.638V205.638H97.4811C96.5356 205.638 95.762 206.412 95.762 207.357C95.762 208.303 96.5356 209.076 97.4811 209.076H102.638C104.529 209.076 106.076 207.529 106.076 205.638V143.752C106.076 141.861 104.529 140.314 102.638 140.314Z" fill="white"/>
<path d="M111.234 130H32.1572C29.3207 130 27 132.321 27 135.157V214.234C27 217.07 29.3207 219.391 32.1572 219.391H111.234C114.07 219.391 116.391 217.07 116.391 214.234V135.157C116.391 132.321 114.07 130 111.234 130ZM112.953 214.234C112.953 215.179 112.179 215.953 111.234 215.953H32.1572C31.2117 215.953 30.4381 215.179 30.4381 214.234V135.157C30.4381 134.212 31.2117 133.438 32.1572 133.438H111.234C112.179 133.438 112.953 134.212 112.953 135.157V214.234Z" fill="white"/>
<path d="M76.7322 200.791C77.0244 201.289 77.5574 201.633 78.1762 201.633C79.1045 201.633 79.8437 200.894 79.8437 199.965C79.8437 199.037 79.1045 198.298 78.1762 198.298C77.5574 198.298 77.0244 198.642 76.7322 199.14H74.8241V197.473C74.8241 197.009 74.4459 196.63 73.9817 196.63H68.9793C68.5151 196.63 68.1369 197.009 68.1369 197.473V199.14H66.2288C65.9366 198.642 65.4037 198.298 64.7848 198.298C63.8565 198.298 63.1173 199.037 63.1173 199.965C63.1173 200.894 63.8565 201.633 64.7848 201.633C65.4037 201.633 65.9366 201.289 66.2288 200.791H68.1541V201.1C65.7647 202.321 65.077 204.573 64.8879 205.793H63.9768C63.5127 205.793 63.1345 206.171 63.1345 206.635V209.97C63.1345 210.434 63.5127 210.813 63.9768 210.813H67.3118C67.7759 210.813 68.1541 210.434 68.1541 209.97V206.635C68.1541 206.171 67.7759 205.793 67.3118 205.793H66.5726C66.7445 204.985 67.1743 203.782 68.3088 202.939C68.4636 203.163 68.7042 203.283 68.9621 203.283H73.9645C74.2224 203.283 74.4802 203.146 74.6178 202.939C75.7695 203.782 76.1993 204.985 76.354 205.793H75.6148C75.1507 205.793 74.7725 206.171 74.7725 206.635V209.97C74.7725 210.434 75.1507 210.813 75.6148 210.813H78.9498C79.4139 210.813 79.7921 210.434 79.7921 209.97V206.635C79.7921 206.171 79.4139 205.793 78.9498 205.793H78.0387C77.8496 204.573 77.162 202.321 74.7725 201.1V200.791H76.7322ZM73.1566 201.633H69.8216V198.298H73.1566V201.633Z" fill="white"/>
</g>
<g filter="url(#filter3_d_106_3)">
<path d="M254.13 170.529L250.795 180.688H246.497L257.43 148.405H262.45L273.435 180.688H268.999L265.561 170.529H254.13ZM264.685 167.263L261.539 157.962C260.817 155.848 260.353 153.94 259.871 152.066H259.785C259.304 153.974 258.788 155.951 258.169 157.911L255.024 167.245H264.685V167.263Z" fill="white"/>
<path d="M279.778 169.858C279.881 175.566 283.508 177.904 287.703 177.904C290.711 177.904 292.516 177.371 294.098 176.7L294.82 179.709C293.341 180.379 290.814 181.153 287.135 181.153C280.019 181.153 275.773 176.46 275.773 169.463C275.773 162.466 279.881 156.965 286.603 156.965C294.149 156.965 296.143 163.618 296.143 167.881C296.143 168.741 296.057 169.411 296.006 169.841H279.778V169.858ZM292.086 166.833C292.138 164.151 290.986 159.991 286.259 159.991C282.013 159.991 280.156 163.91 279.812 166.833H292.086Z" fill="white"/>
<path d="M290.281 195.06H254.044C252.032 195.06 250.399 196.693 250.399 198.704V200.062C250.399 202.073 252.032 203.707 254.044 203.707H290.298C292.31 203.707 293.943 202.073 293.943 200.062V198.704C293.926 196.693 292.293 195.06 290.281 195.06ZM256.863 200.578L254.783 201.781V199.375V196.968L256.863 198.171L258.943 199.375L256.863 200.578ZM291.089 200.303H268.226C267.882 200.87 267.28 201.283 266.558 201.283C265.836 201.283 265.235 200.887 264.891 200.303H261.35V198.463H264.788C265.114 197.81 265.768 197.346 266.558 197.346C267.349 197.346 268.002 197.81 268.329 198.463H291.089V200.303Z" fill="white"/>
<path d="M303.638 132.314H241.752C239.861 132.314 238.314 133.861 238.314 135.752V197.638C238.314 199.529 239.861 201.076 241.752 201.076H246.91C247.855 201.076 248.629 200.303 248.629 199.357C248.629 198.412 247.855 197.638 246.91 197.638H241.752V135.752H303.638V197.638H298.481C297.536 197.638 296.762 198.412 296.762 199.357C296.762 200.303 297.536 201.076 298.481 201.076H303.638C305.529 201.076 307.076 199.529 307.076 197.638V135.752C307.076 133.861 305.529 132.314 303.638 132.314Z" fill="white"/>
<path d="M312.234 122H233.157C230.321 122 228 124.321 228 127.157V206.234C228 209.07 230.321 211.391 233.157 211.391H312.234C315.07 211.391 317.391 209.07 317.391 206.234V127.157C317.391 124.321 315.07 122 312.234 122ZM313.953 206.234C313.953 207.179 313.179 207.953 312.234 207.953H233.157C232.212 207.953 231.438 207.179 231.438 206.234V127.157C231.438 126.212 232.212 125.438 233.157 125.438H312.234C313.179 125.438 313.953 126.212 313.953 127.157V206.234Z" fill="white"/>
</g>
<g filter="url(#filter4_d_106_3)">
<path d="M357.293 148.766C359.235 148.439 361.779 148.164 365.011 148.164C368.982 148.164 371.905 149.092 373.744 150.76C375.463 152.238 376.477 154.524 376.477 157.309C376.477 160.146 375.652 162.363 374.071 163.996C371.939 166.266 368.484 167.435 364.547 167.435C363.344 167.435 362.244 167.383 361.315 167.159V179.691H357.293V148.766ZM361.315 163.842C362.192 164.065 363.309 164.168 364.65 164.168C369.498 164.168 372.472 161.796 372.472 157.481C372.472 153.355 369.55 151.361 365.114 151.361C363.361 151.361 362.02 151.499 361.315 151.688V163.842Z" fill="white"/>
<path d="M381.033 164.22C381.033 161.573 380.981 159.303 380.844 157.206H384.402L384.54 161.607H384.729C385.743 158.599 388.201 156.69 390.917 156.69C391.382 156.69 391.708 156.742 392.069 156.828V160.679C391.657 160.593 391.244 160.541 390.677 160.541C387.806 160.541 385.777 162.724 385.227 165.784C385.141 166.334 385.038 166.988 385.038 167.692V179.657H381.016V164.22H381.033Z" fill="white"/>
<path d="M390.299 195.06H354.044C352.032 195.06 350.399 196.693 350.399 198.704V200.062C350.399 202.073 352.032 203.707 354.044 203.707H390.299C392.31 203.707 393.943 202.073 393.943 200.062V198.704C393.926 196.693 392.293 195.06 390.299 195.06ZM356.863 200.578L354.783 201.781V199.375V196.968L356.863 198.171L358.943 199.375L356.863 200.578ZM391.106 200.303H368.243C367.899 200.87 367.298 201.283 366.576 201.283C365.854 201.283 365.252 200.887 364.908 200.303H361.367V198.463H364.805C365.132 197.81 365.785 197.346 366.576 197.346C367.366 197.346 368.02 197.81 368.346 198.463H391.106V200.303Z" fill="white"/>
<path d="M403.638 132.314H341.752C339.861 132.314 338.314 133.861 338.314 135.752V197.638C338.314 199.529 339.861 201.076 341.752 201.076H346.91C347.855 201.076 348.629 200.303 348.629 199.357C348.629 198.412 347.855 197.638 346.91 197.638H341.752V135.752H403.638V197.638H398.481C397.536 197.638 396.762 198.412 396.762 199.357C396.762 200.303 397.536 201.076 398.481 201.076H403.638C405.529 201.076 407.076 199.529 407.076 197.638V135.752C407.076 133.861 405.529 132.314 403.638 132.314Z" fill="white"/>
<path d="M412.234 122H333.157C330.321 122 328 124.321 328 127.157V206.234C328 209.07 330.321 211.391 333.157 211.391H412.234C415.07 211.391 417.391 209.07 417.391 206.234V127.157C417.391 124.321 415.07 122 412.234 122ZM413.953 206.234C413.953 207.179 413.179 207.953 412.234 207.953H333.157C332.212 207.953 331.438 207.179 331.438 206.234V127.157C331.438 126.212 332.212 125.438 333.157 125.438H412.234C413.179 125.438 413.953 126.212 413.953 127.157V206.234Z" fill="white"/>
</g>
<g filter="url(#filter5_d_106_3)">
<path d="M160.178 105.391V137.674H156.018V105.391H160.178Z" fill="white"/>
<path d="M187.253 103.671V131.692C187.253 133.755 187.304 136.093 187.442 137.674H183.677L183.488 133.652H183.385C182.096 136.23 179.276 138.207 175.512 138.207C169.925 138.207 165.627 133.463 165.627 126.432C165.576 118.713 170.355 113.986 175.993 113.986C179.517 113.986 181.907 115.67 182.955 117.527H183.058V103.689H187.253V103.671ZM183.058 123.922C183.058 123.389 183.007 122.684 182.869 122.151C182.25 119.469 179.964 117.269 176.801 117.269C172.452 117.269 169.873 121.103 169.873 126.225C169.873 130.918 172.16 134.803 176.698 134.803C179.517 134.803 182.096 132.93 182.852 129.767C182.99 129.199 183.041 128.615 183.041 127.944V123.922H183.058Z" fill="white"/>
<path d="M202.638 90.3143H140.752C138.861 90.3143 137.314 91.8614 137.314 93.7524V155.638C137.314 157.529 138.861 159.076 140.752 159.076H145.91C146.855 159.076 147.629 158.303 147.629 157.357C147.629 156.412 146.855 155.638 145.91 155.638H140.752V93.7524H202.638V155.638H197.481C196.536 155.638 195.762 156.412 195.762 157.357C195.762 158.303 196.536 159.076 197.481 159.076H202.638C204.529 159.076 206.076 157.529 206.076 155.638V93.7524C206.076 91.8614 204.529 90.3143 202.638 90.3143Z" fill="white"/>
<path d="M211.234 80H132.157C129.321 80 127 82.3207 127 85.1572V164.234C127 167.07 129.321 169.391 132.157 169.391H211.234C214.07 169.391 216.391 167.07 216.391 164.234V85.1572C216.391 82.3207 214.07 80 211.234 80ZM212.953 164.234C212.953 165.179 212.179 165.953 211.234 165.953H132.157C131.212 165.953 130.438 165.179 130.438 164.234V85.1572C130.438 84.2117 131.212 83.4381 132.157 83.4381H211.234C212.179 83.4381 212.953 84.2117 212.953 85.1572V164.234Z" fill="white"/>
<path d="M168.515 149.776V159.987H152.304V149.776H168.515ZM170.234 148.057H150.585V161.707H170.234V148.057Z" fill="white"/>
<path d="M192.376 148.057H172.727V150.326H192.376V148.057Z" fill="white"/>
<path d="M186.256 151.547H172.727V153.816H186.256V151.547Z" fill="white"/>
<path d="M190.038 155.037H172.727V157.306H190.038V155.037Z" fill="white"/>
<path d="M183.075 159.076H172.727V161.346H183.075V159.076Z" fill="white"/>
<path d="M169.042 148.475L150.982 160.151L151.915 161.594L169.976 149.919L169.042 148.475Z" fill="white"/>
<path d="M151.906 148.463L150.973 149.907L169.028 161.588L169.962 160.145L151.906 148.463Z" fill="white"/>
</g>
<g filter="url(#filter6_d_106_3)">
<path d="M32.1572 23C29.3207 23 27 25.3207 27 28.1572V107.234C27 110.07 29.3207 112.391 32.1572 112.391H111.234C114.07 112.391 116.391 110.07 116.391 107.234V28.1572C116.391 25.3207 114.07 23 111.234 23H32.1572ZM32.1572 26.4381H111.234C112.179 26.4381 112.953 27.2117 112.953 28.1572V107.234C112.953 108.179 112.179 108.953 111.234 108.953H32.1572C31.2117 108.953 30.4381 108.179 30.4381 107.234V28.1572C30.4381 27.2117 31.2117 26.4381 32.1572 26.4381ZM40.7524 33.3143C38.8615 33.3143 37.3143 34.8615 37.3143 36.7524V98.6383C37.3143 100.529 38.8615 102.076 40.7524 102.076H45.9096C46.8551 102.076 47.6286 101.303 47.6286 100.357C47.6286 99.4119 46.8551 98.6383 45.9096 98.6383H40.7524V36.7524H102.638V98.6383H97.4811C96.5357 98.6383 95.7621 99.4119 95.7621 100.357C95.7621 101.303 96.5357 102.076 97.4811 102.076H102.638C104.529 102.076 106.076 100.529 106.076 98.6383V36.7524C106.076 34.8615 104.529 33.3143 102.638 33.3143H40.7524Z" fill="white"/>
<path d="M52.8718 49.7828C54.8831 49.4562 57.4961 49.1639 60.8482 49.1639C64.9568 49.1639 67.9651 50.1266 69.8733 51.8457C71.6439 53.3756 72.6925 55.7307 72.6925 58.6015C72.6925 61.5239 71.833 63.8275 70.2171 65.4949C68.0167 67.85 64.441 69.0362 60.3841 69.0362C59.1464 69.0362 57.9946 68.9846 57.0491 68.7439V81.6712H52.889V49.7828H52.8718ZM57.0319 65.3574C57.943 65.5981 59.0776 65.684 60.47 65.684C65.4897 65.684 68.5324 63.243 68.5324 58.7906C68.5324 54.5274 65.5241 52.4645 60.9342 52.4645C59.1292 52.4645 57.7367 52.602 57.0147 52.7911V65.3574H57.0319Z" fill="white"/>
<path d="M76.5088 77.3736C77.7465 78.1815 79.9469 79.0582 82.0441 79.0582C85.104 79.0582 86.5308 77.5283 86.5308 75.6029C86.5308 73.5916 85.3447 72.4914 82.2332 71.3397C78.0731 69.8613 76.1306 67.5578 76.1306 64.7729C76.1306 61.0426 79.1389 57.9655 84.107 57.9655C86.4449 57.9655 88.4906 58.6359 89.7799 59.4095L88.7312 62.4694C87.8201 61.9021 86.1527 61.1285 84.0038 61.1285C81.5284 61.1285 80.136 62.5725 80.136 64.2916C80.136 66.1997 81.5284 67.0764 84.5196 68.2282C88.5421 69.7582 90.605 71.7694 90.605 75.2247C90.605 79.2989 87.4591 82.1697 81.9582 82.1697C79.4312 82.1697 77.0932 81.5509 75.4601 80.5882L76.5088 77.3736Z" fill="white"/>
<path d="M84.5023 90.7307C84.3476 90.9714 84.1069 91.0917 83.9007 91.2636C83.0411 91.934 82.1644 92.6045 81.3049 93.2577C80.2907 94.0485 79.2592 94.822 78.245 95.6128C77.2307 96.4036 76.1993 97.1771 75.1851 97.9679C74.4459 98.5352 73.6895 99.1025 72.9331 99.6354C72.469 99.962 71.9704 100.254 71.4375 100.461C71.0078 100.615 70.5436 100.736 70.0967 100.856C69.6153 100.993 69.134 101.131 68.6527 101.251C68.4636 101.303 68.3604 101.217 68.3432 101.028C68.3432 100.203 67.965 99.5838 67.2774 99.154C66.968 98.965 66.968 98.9134 67.2087 98.6383C67.7931 98.0195 68.3776 97.4178 68.9793 96.8161C69.1168 96.6786 69.2887 96.5755 69.4434 96.4723C70.5264 95.8191 71.6782 95.2518 72.8472 94.7533C74.3083 94.1344 75.7695 93.4984 77.2307 92.8795C78.6919 92.2607 80.1531 91.6418 81.6143 91.0229C82.2848 90.7479 82.938 90.4556 83.6084 90.1806C83.7631 90.1118 83.935 90.1118 84.1069 90.0775C84.1585 90.0946 84.2101 90.1118 84.2617 90.1118C84.4508 90.215 84.5023 90.3697 84.5367 90.576C84.5367 90.6276 84.5195 90.6791 84.5023 90.7307Z" fill="white"/>
<path d="M58.8884 103.039C58.9572 103.005 59.026 102.97 59.0947 102.953C59.6792 102.867 60.2465 102.764 60.7622 102.489C61.3811 102.162 61.828 101.681 62.2406 101.148C62.4297 100.89 62.6188 100.632 62.8251 100.392C63.1001 100.065 63.4267 99.8072 63.8049 99.6525C64.4582 99.3947 65.1286 99.3775 65.799 99.6697C66.6586 100.031 67.1571 100.701 67.2259 101.629C67.2946 102.592 66.8477 103.572 65.8506 104.053C65.2317 104.346 64.5957 104.449 63.9253 104.466C63.1345 104.483 62.3781 104.363 61.6217 104.174C61.0544 104.036 60.5044 103.864 59.9371 103.709C59.662 103.624 59.387 103.52 59.0947 103.434C58.9744 103.4 58.8884 103.331 58.8541 103.211C58.8541 103.142 58.8713 103.091 58.8884 103.039Z" fill="white"/>
</g>
<defs>
<filter id="filter0_d_106_3" x="200" y="0" width="143.391" height="143.391" filterUnits="userSpaceOnUse" color-interpolation-filters="sRGB">
<feFlood flood-opacity="0" result="BackgroundImageFix"/>
<feColorMatrix in="SourceAlpha" type="matrix" values="0 0 0 0 0 0 0 0 0 0 0 0 0 0 0 0 0 0 127 0" result="hardAlpha"/>
<feOffset dy="4"/>
<feGaussianBlur stdDeviation="13.5"/>
<feComposite in2="hardAlpha" operator="out"/>
<feColorMatrix type="matrix" values="0 0 0 0 0 0 0 0 0 1 0 0 0 0 0.0999999 0 0 0 1 0"/>
<feBlend mode="normal" in2="BackgroundImageFix" result="effect1_dropShadow_106_3"/>
<feBlend mode="normal" in="SourceGraphic" in2="effect1_dropShadow_106_3" result="shape"/>
</filter>
<filter id="filter1_d_106_3" x="300" y="0" width="143.391" height="143.391" filterUnits="userSpaceOnUse" color-interpolation-filters="sRGB">
<feFlood flood-opacity="0" result="BackgroundImageFix"/>
<feColorMatrix in="SourceAlpha" type="matrix" values="0 0 0 0 0 0 0 0 0 0 0 0 0 0 0 0 0 0 127 0" result="hardAlpha"/>
<feOffset dy="4"/>
<feGaussianBlur stdDeviation="13.5"/>
<feComposite in2="hardAlpha" operator="out"/>
<feColorMatrix type="matrix" values="0 0 0 0 0.74 0 0 0 0 0 0 0 0 0 1 0 0 0 1 0"/>
<feBlend mode="normal" in2="BackgroundImageFix" result="effect1_dropShadow_106_3"/>
<feBlend mode="normal" in="SourceGraphic" in2="effect1_dropShadow_106_3" result="shape"/>
</filter>
<filter id="filter2_d_106_3" x="0" y="107" width="143.391" height="143.391" filterUnits="userSpaceOnUse" color-interpolation-filters="sRGB">
<feFlood flood-opacity="0" result="BackgroundImageFix"/>
<feColorMatrix in="SourceAlpha" type="matrix" values="0 0 0 0 0 0 0 0 0 0 0 0 0 0 0 0 0 0 127 0" result="hardAlpha"/>
<feOffset dy="4"/>
<feGaussianBlur stdDeviation="13.5"/>
<feComposite in2="hardAlpha" operator="out"/>
<feColorMatrix type="matrix" values="0 0 0 0 1 0 0 0 0 0 0 0 0 0 0 0 0 0 1 0"/>
<feBlend mode="normal" in2="BackgroundImageFix" result="effect1_dropShadow_106_3"/>
<feBlend mode="normal" in="SourceGraphic" in2="effect1_dropShadow_106_3" result="shape"/>
</filter>
<filter id="filter3_d_106_3" x="201" y="99" width="143.391" height="143.391" filterUnits="userSpaceOnUse" color-interpolation-filters="sRGB">
<feFlood flood-opacity="0" result="BackgroundImageFix"/>
<feColorMatrix in="SourceAlpha" type="matrix" values="0 0 0 0 0 0 0 0 0 0 0 0 0 0 0 0 0 0 127 0" result="hardAlpha"/>
<feOffset dy="4"/>
<feGaussianBlur stdDeviation="13.5"/>
<feComposite in2="hardAlpha" operator="out"/>
<feColorMatrix type="matrix" values="0 0 0 0 0.74 0 0 0 0 0 0 0 0 0 1 0 0 0 1 0"/>
<feBlend mode="normal" in2="BackgroundImageFix" result="effect1_dropShadow_106_3"/>
<feBlend mode="normal" in="SourceGraphic" in2="effect1_dropShadow_106_3" result="shape"/>
</filter>
<filter id="filter4_d_106_3" x="301" y="99" width="143.391" height="143.391" filterUnits="userSpaceOnUse" color-interpolation-filters="sRGB">
<feFlood flood-opacity="0" result="BackgroundImageFix"/>
<feColorMatrix in="SourceAlpha" type="matrix" values="0 0 0 0 0 0 0 0 0 0 0 0 0 0 0 0 0 0 127 0" result="hardAlpha"/>
<feOffset dy="4"/>
<feGaussianBlur stdDeviation="13.5"/>
<feComposite in2="hardAlpha" operator="out"/>
<feColorMatrix type="matrix" values="0 0 0 0 1 0 0 0 0 0 0 0 0 0 0.72 0 0 0 1 0"/>
<feBlend mode="normal" in2="BackgroundImageFix" result="effect1_dropShadow_106_3"/>
<feBlend mode="normal" in="SourceGraphic" in2="effect1_dropShadow_106_3" result="shape"/>
</filter>
<filter id="filter5_d_106_3" x="100" y="57" width="143.391" height="143.391" filterUnits="userSpaceOnUse" color-interpolation-filters="sRGB">
<feFlood flood-opacity="0" result="BackgroundImageFix"/>
<feColorMatrix in="SourceAlpha" type="matrix" values="0 0 0 0 0 0 0 0 0 0 0 0 0 0 0 0 0 0 127 0" result="hardAlpha"/>
<feOffset dy="4"/>
<feGaussianBlur stdDeviation="13.5"/>
<feComposite in2="hardAlpha" operator="out"/>
<feColorMatrix type="matrix" values="0 0 0 0 1 0 0 0 0 0 0 0 0 0 0.9 0 0 0 1 0"/>
<feBlend mode="normal" in2="BackgroundImageFix" result="effect1_dropShadow_106_3"/>
<feBlend mode="normal" in="SourceGraphic" in2="effect1_dropShadow_106_3" result="shape"/>
</filter>
<filter id="filter6_d_106_3" x="0" y="0" width="143.391" height="143.391" filterUnits="userSpaceOnUse" color-interpolation-filters="sRGB">
<feFlood flood-opacity="0" result="BackgroundImageFix"/>
<feColorMatrix in="SourceAlpha" type="matrix" values="0 0 0 0 0 0 0 0 0 0 0 0 0 0 0 0 0 0 127 0" result="hardAlpha"/>
<feOffset dy="4"/>
<feGaussianBlur stdDeviation="13.5"/>
<feComposite in2="hardAlpha" operator="out"/>
<feColorMatrix type="matrix" values="0 0 0 0 0 0 0 0 0 0.94 0 0 0 0 1 0 0 0 1 0"/>
<feBlend mode="normal" in2="BackgroundImageFix" result="effect1_dropShadow_106_3"/>
<feBlend mode="normal" in="SourceGraphic" in2="effect1_dropShadow_106_3" result="shape"/>
</filter>
</defs>
</svg>
