<?xml version="1.0" encoding="utf-8"?>
<!-- Generator: Adobe Illustrator 24.0.1, SVG Export Plug-In . SVG Version: 6.00 Build 0)  -->
<svg version="1.1" id="Capa_1" xmlns="http://www.w3.org/2000/svg" xmlns:xlink="http://www.w3.org/1999/xlink" x="0px" y="0px"
	 viewBox="0 0 621 481" style="enable-background:new 0 0 621 481;" xml:space="preserve">
<style type="text/css">
	.st0{clip-path:url(#SVGID_1_);fill:#F3576F;}
	.st1{clip-path:url(#SVGID_1_);fill:#F25770;}
	.st2{clip-path:url(#SVGID_1_);fill:#F25871;}
	.st3{clip-path:url(#SVGID_1_);fill:#F15872;}
	.st4{clip-path:url(#SVGID_1_);fill:#F05873;}
	.st5{clip-path:url(#SVGID_1_);fill:#F05974;}
	.st6{clip-path:url(#SVGID_1_);fill:#EF5975;}
	.st7{clip-path:url(#SVGID_1_);fill:#EE5976;}
	.st8{clip-path:url(#SVGID_1_);fill:#EE5977;}
	.st9{clip-path:url(#SVGID_1_);fill:#ED5A78;}
	.st10{clip-path:url(#SVGID_1_);fill:#EC5A79;}
	.st11{clip-path:url(#SVGID_1_);fill:#EC5A7A;}
	.st12{clip-path:url(#SVGID_1_);fill:#EB5B7B;}
	.st13{clip-path:url(#SVGID_1_);fill:#EA5B7C;}
	.st14{clip-path:url(#SVGID_1_);fill:#EA5B7D;}
	.st15{clip-path:url(#SVGID_1_);fill:#E95C7E;}
	.st16{clip-path:url(#SVGID_1_);fill:#E85C7F;}
	.st17{clip-path:url(#SVGID_1_);fill:#E85C80;}
	.st18{clip-path:url(#SVGID_1_);fill:#E75C81;}
	.st19{clip-path:url(#SVGID_1_);fill:#E65D82;}
	.st20{clip-path:url(#SVGID_1_);fill:#E65D83;}
	.st21{clip-path:url(#SVGID_1_);fill:#E55D84;}
	.st22{clip-path:url(#SVGID_1_);fill:#E45E85;}
	.st23{clip-path:url(#SVGID_1_);fill:#E45E86;}
	.st24{clip-path:url(#SVGID_1_);fill:#E35E87;}
	.st25{clip-path:url(#SVGID_1_);fill:#E25F88;}
	.st26{clip-path:url(#SVGID_1_);fill:#E25F89;}
	.st27{clip-path:url(#SVGID_1_);fill:#E15F8A;}
	.st28{clip-path:url(#SVGID_1_);fill:#E05F8B;}
	.st29{clip-path:url(#SVGID_1_);fill:#E0608C;}
	.st30{clip-path:url(#SVGID_1_);fill:#DF608D;}
	.st31{clip-path:url(#SVGID_1_);fill:#DE608E;}
	.st32{clip-path:url(#SVGID_1_);fill:#DE618F;}
	.st33{clip-path:url(#SVGID_1_);fill:#DD6190;}
	.st34{clip-path:url(#SVGID_1_);fill:#DC6191;}
	.st35{clip-path:url(#SVGID_1_);fill:#DC6292;}
	.st36{clip-path:url(#SVGID_1_);fill:#DB6293;}
	.st37{clip-path:url(#SVGID_1_);fill:#DA6294;}
	.st38{clip-path:url(#SVGID_1_);fill:#DA6295;}
	.st39{clip-path:url(#SVGID_1_);fill:#D96396;}
	.st40{clip-path:url(#SVGID_1_);fill:#D86397;}
	.st41{clip-path:url(#SVGID_1_);fill:#D86398;}
	.st42{clip-path:url(#SVGID_1_);fill:#D76499;}
	.st43{clip-path:url(#SVGID_1_);fill:#D6649A;}
	.st44{clip-path:url(#SVGID_1_);fill:#D6649B;}
	.st45{clip-path:url(#SVGID_1_);fill:#D5659C;}
	.st46{clip-path:url(#SVGID_1_);fill:#D4659D;}
	.st47{clip-path:url(#SVGID_1_);fill:#D4659E;}
	.st48{clip-path:url(#SVGID_1_);fill:#D3669F;}
	.st49{clip-path:url(#SVGID_1_);fill:#D266A0;}
	.st50{clip-path:url(#SVGID_1_);fill:#D266A1;}
	.st51{clip-path:url(#SVGID_1_);fill:#D166A2;}
	.st52{clip-path:url(#SVGID_1_);fill:#D067A3;}
	.st53{clip-path:url(#SVGID_1_);fill:#D067A4;}
	.st54{clip-path:url(#SVGID_1_);fill:#CF67A5;}
	.st55{clip-path:url(#SVGID_1_);fill:#CE68A6;}
	.st56{clip-path:url(#SVGID_1_);fill:#CE68A7;}
	.st57{clip-path:url(#SVGID_1_);fill:#CD68A8;}
	.st58{clip-path:url(#SVGID_1_);fill:#CC69A9;}
	.st59{clip-path:url(#SVGID_1_);fill:#CC69AA;}
	.st60{clip-path:url(#SVGID_1_);fill:#CB69AC;}
	.st61{clip-path:url(#SVGID_1_);fill:#CB69AD;}
	.st62{clip-path:url(#SVGID_1_);fill:#CA6AAE;}
	.st63{clip-path:url(#SVGID_1_);fill:#C96AAF;}
	.st64{clip-path:url(#SVGID_1_);fill:#C96AB0;}
	.st65{clip-path:url(#SVGID_1_);fill:#C86BB1;}
	.st66{clip-path:url(#SVGID_1_);fill:#C76BB2;}
	.st67{clip-path:url(#SVGID_1_);fill:#C76BB3;}
	.st68{clip-path:url(#SVGID_1_);fill:#C66CB4;}
	.st69{clip-path:url(#SVGID_1_);fill:#C56CB5;}
	.st70{clip-path:url(#SVGID_1_);fill:#C56CB6;}
	.st71{clip-path:url(#SVGID_1_);fill:#C46CB7;}
	.st72{clip-path:url(#SVGID_1_);fill:#C36DB8;}
	.st73{clip-path:url(#SVGID_1_);fill:#C36DB9;}
	.st74{clip-path:url(#SVGID_1_);fill:#C26DBA;}
	.st75{clip-path:url(#SVGID_1_);fill:#C16EBB;}
	.st76{clip-path:url(#SVGID_1_);fill:#C16EBC;}
	.st77{clip-path:url(#SVGID_1_);fill:#C06EBD;}
	.st78{clip-path:url(#SVGID_1_);fill:#BF6FBE;}
	.st79{clip-path:url(#SVGID_1_);fill:#BF6FBF;}
	.st80{clip-path:url(#SVGID_1_);fill:#BE6FC0;}
	.st81{clip-path:url(#SVGID_1_);fill:#BD70C1;}
	.st82{clip-path:url(#SVGID_1_);fill:#BD70C2;}
	.st83{clip-path:url(#SVGID_1_);fill:#BC70C3;}
	.st84{clip-path:url(#SVGID_1_);fill:#BB70C4;}
	.st85{clip-path:url(#SVGID_1_);fill:#BB71C5;}
	.st86{clip-path:url(#SVGID_1_);fill:#BA71C6;}
	.st87{clip-path:url(#SVGID_1_);fill:#B971C7;}
	.st88{clip-path:url(#SVGID_1_);fill:#B972C8;}
	.st89{clip-path:url(#SVGID_1_);fill:#B872C9;}
	.st90{clip-path:url(#SVGID_1_);fill:#B772CA;}
	.st91{clip-path:url(#SVGID_1_);fill:#B773CB;}
	.st92{clip-path:url(#SVGID_1_);fill:#B673CC;}
	.st93{clip-path:url(#SVGID_1_);fill:#B573CD;}
	.st94{clip-path:url(#SVGID_1_);fill:#B573CE;}
	.st95{clip-path:url(#SVGID_1_);fill:#B474CF;}
	.st96{clip-path:url(#SVGID_1_);fill:#B374D0;}
	.st97{clip-path:url(#SVGID_1_);fill:#B374D1;}
	.st98{clip-path:url(#SVGID_1_);fill:#B275D2;}
	.st99{clip-path:url(#SVGID_1_);fill:#B175D3;}
	.st100{clip-path:url(#SVGID_1_);fill:#B175D4;}
	.st101{clip-path:url(#SVGID_1_);fill:#B076D5;}
	.st102{clip-path:url(#SVGID_1_);fill:#AF76D6;}
	.st103{clip-path:url(#SVGID_1_);fill:#AF76D7;}
	.st104{clip-path:url(#SVGID_1_);fill:#AE76D8;}
	.st105{clip-path:url(#SVGID_1_);fill:#AD77D9;}
	.st106{clip-path:url(#SVGID_1_);fill:#AD77DA;}
	.st107{clip-path:url(#SVGID_1_);fill:#AC77DB;}
	.st108{clip-path:url(#SVGID_1_);fill:#AB78DC;}
	.st109{clip-path:url(#SVGID_1_);fill:#AB78DD;}
	.st110{clip-path:url(#SVGID_1_);fill:#AA78DE;}
	.st111{clip-path:url(#SVGID_1_);fill:#A979DF;}
	.st112{clip-path:url(#SVGID_1_);fill:#A979E0;}
	.st113{clip-path:url(#SVGID_1_);fill:#A879E1;}
	.st114{clip-path:url(#SVGID_1_);fill:#A779E2;}
	.st115{clip-path:url(#SVGID_1_);fill:#A77AE3;}
	.st116{clip-path:url(#SVGID_1_);fill:#A67AE4;}
	.st117{clip-path:url(#SVGID_1_);fill:#A57AE5;}
	.st118{clip-path:url(#SVGID_1_);fill:#A57BE6;}
	.st119{clip-path:url(#SVGID_1_);fill:#A47BE7;}
	.st120{clip-path:url(#SVGID_2_);fill:#A47BE7;}
	.st121{clip-path:url(#SVGID_2_);fill:#A37BE7;}
	.st122{clip-path:url(#SVGID_2_);fill:#A27BE7;}
	.st123{clip-path:url(#SVGID_2_);fill:#A17CE6;}
	.st124{clip-path:url(#SVGID_2_);fill:#A07CE6;}
	.st125{clip-path:url(#SVGID_2_);fill:#9F7CE6;}
	.st126{clip-path:url(#SVGID_2_);fill:#9E7CE6;}
	.st127{clip-path:url(#SVGID_2_);fill:#9D7CE5;}
	.st128{clip-path:url(#SVGID_2_);fill:#9C7DE5;}
	.st129{clip-path:url(#SVGID_2_);fill:#9B7DE5;}
	.st130{clip-path:url(#SVGID_2_);fill:#9A7DE5;}
	.st131{clip-path:url(#SVGID_2_);fill:#997DE4;}
	.st132{clip-path:url(#SVGID_2_);fill:#987DE4;}
	.st133{clip-path:url(#SVGID_2_);fill:#977EE4;}
	.st134{clip-path:url(#SVGID_2_);fill:#967EE4;}
	.st135{clip-path:url(#SVGID_2_);fill:#957EE3;}
	.st136{clip-path:url(#SVGID_2_);fill:#947EE3;}
	.st137{clip-path:url(#SVGID_2_);fill:#937EE3;}
	.st138{clip-path:url(#SVGID_2_);fill:#927FE3;}
	.st139{clip-path:url(#SVGID_2_);fill:#917FE2;}
	.st140{clip-path:url(#SVGID_2_);fill:#907FE2;}
	.st141{clip-path:url(#SVGID_2_);fill:#8F7FE2;}
	.st142{clip-path:url(#SVGID_2_);fill:#8E7FE2;}
	.st143{clip-path:url(#SVGID_2_);fill:#8D80E1;}
	.st144{clip-path:url(#SVGID_2_);fill:#8C80E1;}
	.st145{clip-path:url(#SVGID_2_);fill:#8B80E1;}
	.st146{clip-path:url(#SVGID_2_);fill:#8A80E1;}
	.st147{clip-path:url(#SVGID_2_);fill:#8980E0;}
	.st148{clip-path:url(#SVGID_2_);fill:#8881E0;}
	.st149{clip-path:url(#SVGID_2_);fill:#8781E0;}
	.st150{clip-path:url(#SVGID_2_);fill:#8681E0;}
	.st151{clip-path:url(#SVGID_2_);fill:#8581DF;}
	.st152{clip-path:url(#SVGID_2_);fill:#8481DF;}
	.st153{clip-path:url(#SVGID_2_);fill:#8382DF;}
	.st154{clip-path:url(#SVGID_2_);fill:#8282DF;}
	.st155{clip-path:url(#SVGID_2_);fill:#8182DE;}
	.st156{clip-path:url(#SVGID_2_);fill:#8082DE;}
	.st157{clip-path:url(#SVGID_2_);fill:#7F82DE;}
	.st158{clip-path:url(#SVGID_2_);fill:#7E83DE;}
	.st159{clip-path:url(#SVGID_2_);fill:#7D83DD;}
	.st160{clip-path:url(#SVGID_2_);fill:#7C83DD;}
	.st161{clip-path:url(#SVGID_2_);fill:#7B83DD;}
	.st162{clip-path:url(#SVGID_2_);fill:#7A83DD;}
	.st163{clip-path:url(#SVGID_2_);fill:#7984DC;}
	.st164{clip-path:url(#SVGID_2_);fill:#7884DC;}
	.st165{clip-path:url(#SVGID_2_);fill:#7784DC;}
	.st166{clip-path:url(#SVGID_2_);fill:#7684DC;}
	.st167{clip-path:url(#SVGID_2_);fill:#7584DB;}
	.st168{clip-path:url(#SVGID_2_);fill:#7485DB;}
	.st169{clip-path:url(#SVGID_2_);fill:#7385DB;}
	.st170{clip-path:url(#SVGID_2_);fill:#7285DB;}
	.st171{clip-path:url(#SVGID_2_);fill:#7185DA;}
	.st172{clip-path:url(#SVGID_2_);fill:#7085DA;}
	.st173{clip-path:url(#SVGID_2_);fill:#6F86DA;}
	.st174{clip-path:url(#SVGID_2_);fill:#6E86DA;}
	.st175{clip-path:url(#SVGID_2_);fill:#6D86D9;}
	.st176{clip-path:url(#SVGID_2_);fill:#6C86D9;}
	.st177{clip-path:url(#SVGID_2_);fill:#6B86D9;}
	.st178{clip-path:url(#SVGID_2_);fill:#6A87D9;}
	.st179{clip-path:url(#SVGID_2_);fill:#6987D8;}
	.st180{clip-path:url(#SVGID_2_);fill:#6887D8;}
	.st181{clip-path:url(#SVGID_2_);fill:#6787D8;}
	.st182{clip-path:url(#SVGID_2_);fill:#6687D8;}
	.st183{clip-path:url(#SVGID_2_);fill:#6588D7;}
	.st184{clip-path:url(#SVGID_2_);fill:#6488D7;}
	.st185{clip-path:url(#SVGID_2_);fill:#6388D7;}
	.st186{clip-path:url(#SVGID_2_);fill:#6288D7;}
	.st187{clip-path:url(#SVGID_2_);fill:#6188D6;}
	.st188{clip-path:url(#SVGID_2_);fill:#6089D6;}
	.st189{clip-path:url(#SVGID_2_);fill:#5F89D6;}
	.st190{clip-path:url(#SVGID_2_);fill:#5E89D6;}
	.st191{clip-path:url(#SVGID_2_);fill:#5D89D5;}
	.st192{clip-path:url(#SVGID_2_);fill:#5C89D5;}
	.st193{clip-path:url(#SVGID_2_);fill:#5B8AD5;}
	.st194{clip-path:url(#SVGID_2_);fill:#5A8AD5;}
	.st195{clip-path:url(#SVGID_2_);fill:#598AD5;}
	.st196{clip-path:url(#SVGID_2_);fill:#578AD4;}
	.st197{clip-path:url(#SVGID_2_);fill:#568AD4;}
	.st198{clip-path:url(#SVGID_2_);fill:#558BD4;}
	.st199{clip-path:url(#SVGID_2_);fill:#548BD4;}
	.st200{clip-path:url(#SVGID_2_);fill:#538BD3;}
	.st201{clip-path:url(#SVGID_2_);fill:#528BD3;}
	.st202{clip-path:url(#SVGID_2_);fill:#518BD3;}
	.st203{clip-path:url(#SVGID_2_);fill:#508CD3;}
	.st204{clip-path:url(#SVGID_2_);fill:#4F8CD2;}
	.st205{clip-path:url(#SVGID_2_);fill:#4E8CD2;}
	.st206{clip-path:url(#SVGID_2_);fill:#4D8CD2;}
	.st207{clip-path:url(#SVGID_2_);fill:#4C8CD2;}
	.st208{clip-path:url(#SVGID_2_);fill:#4B8DD1;}
	.st209{clip-path:url(#SVGID_2_);fill:#4A8DD1;}
	.st210{clip-path:url(#SVGID_2_);fill:#498DD1;}
	.st211{clip-path:url(#SVGID_2_);fill:#488DD1;}
	.st212{clip-path:url(#SVGID_2_);fill:#478DD0;}
	.st213{clip-path:url(#SVGID_2_);fill:#468ED0;}
	.st214{clip-path:url(#SVGID_2_);fill:#458ED0;}
	.st215{clip-path:url(#SVGID_2_);fill:#448ED0;}
	.st216{clip-path:url(#SVGID_2_);fill:#438ECF;}
	.st217{clip-path:url(#SVGID_2_);fill:#428ECF;}
	.st218{clip-path:url(#SVGID_2_);fill:#418FCF;}
	.st219{clip-path:url(#SVGID_2_);fill:#408FCF;}
	.st220{clip-path:url(#SVGID_2_);fill:#3F8FCE;}
	.st221{clip-path:url(#SVGID_2_);fill:#3E8FCE;}
	.st222{clip-path:url(#SVGID_2_);fill:#3D8FCE;}
	.st223{clip-path:url(#SVGID_2_);fill:#3C90CE;}
	.st224{clip-path:url(#SVGID_2_);fill:#3B90CD;}
	.st225{clip-path:url(#SVGID_2_);fill:#3A90CD;}
	.st226{clip-path:url(#SVGID_2_);fill:#3990CD;}
	.st227{clip-path:url(#SVGID_2_);fill:#3890CD;}
	.st228{clip-path:url(#SVGID_2_);fill:#3791CC;}
	.st229{clip-path:url(#SVGID_2_);fill:#3691CC;}
	.st230{clip-path:url(#SVGID_2_);fill:#3591CC;}
	.st231{clip-path:url(#SVGID_2_);fill:#3491CC;}
	.st232{clip-path:url(#SVGID_2_);fill:#3391CB;}
	.st233{clip-path:url(#SVGID_2_);fill:#3292CB;}
	.st234{clip-path:url(#SVGID_2_);fill:#3192CB;}
	.st235{clip-path:url(#SVGID_2_);fill:#3092CB;}
	.st236{clip-path:url(#SVGID_2_);fill:#2F92CA;}
	.st237{clip-path:url(#SVGID_2_);fill:#2E92CA;}
	.st238{clip-path:url(#SVGID_2_);fill:#2D93CA;}
	.st239{clip-path:url(#SVGID_2_);fill:#2C93CA;}
	.st240{clip-path:url(#SVGID_2_);fill:#2B93C9;}
	.st241{clip-path:url(#SVGID_2_);fill:#2A93C9;}
	.st242{clip-path:url(#SVGID_2_);fill:#2993C9;}
	.st243{clip-path:url(#SVGID_2_);fill:#2894C9;}
	.st244{clip-path:url(#SVGID_2_);fill:#2794C8;}
	.st245{clip-path:url(#SVGID_2_);fill:#2694C8;}
	.st246{clip-path:url(#SVGID_2_);fill:#2594C8;}
	.st247{clip-path:url(#SVGID_2_);fill:#2494C8;}
	.st248{clip-path:url(#SVGID_2_);fill:#2395C7;}
	.st249{clip-path:url(#SVGID_2_);fill:#2295C7;}
	.st250{clip-path:url(#SVGID_2_);fill:#2195C7;}
	.st251{clip-path:url(#SVGID_2_);fill:#2095C7;}
	.st252{clip-path:url(#SVGID_2_);fill:#1F95C6;}
	.st253{clip-path:url(#SVGID_2_);fill:#1E96C6;}
	.st254{clip-path:url(#SVGID_2_);fill:#1D96C6;}
	.st255{clip-path:url(#SVGID_2_);fill:#1C96C6;}
	.st256{clip-path:url(#SVGID_2_);fill:#1B96C5;}
	.st257{clip-path:url(#SVGID_2_);fill:#1A96C5;}
	.st258{clip-path:url(#SVGID_2_);fill:#1997C5;}
	.st259{clip-path:url(#SVGID_2_);fill:#1897C5;}
	.st260{clip-path:url(#SVGID_2_);fill:#1797C4;}
	.st261{clip-path:url(#SVGID_2_);fill:#1697C4;}
	.st262{clip-path:url(#SVGID_2_);fill:#1597C4;}
	.st263{clip-path:url(#SVGID_2_);fill:#1498C4;}
	.st264{clip-path:url(#SVGID_2_);fill:#1398C3;}
	.st265{clip-path:url(#SVGID_2_);fill:#1298C3;}
	.st266{clip-path:url(#SVGID_2_);fill:#1198C3;}
	.st267{clip-path:url(#SVGID_2_);fill:#1098C3;}
	.st268{clip-path:url(#SVGID_2_);fill:#0F99C2;}
	.st269{clip-path:url(#SVGID_2_);fill:#0E99C2;}
	.st270{clip-path:url(#SVGID_2_);fill:#0D99C2;}
	.st271{fill:#B3B3B3;}
</style>
<g>
	<g>
		<g>
			<defs>
				<path id="SVGID_5_" d="M127.98-22.7c0,0,59.2,98.15,51.41,176.04c0,0-2.14,23.2-7.3,41.2c0,0,13.48-26.48-48.81-108.62
					c0,0-61.6-69.64-79.86-79.78L127.98-22.7z"/>
			</defs>
			<clipPath id="SVGID_1_">
				<use xlink:href="#SVGID_5_"  style="overflow:visible;"/>
			</clipPath>
			<path class="st0" d="M43.42-22.7v217.24V-22.7z"/>
			<rect x="43.42" y="-22.7" class="st0" width="1.14" height="217.24"/>
			<rect x="44.56" y="-22.7" class="st1" width="1.14" height="217.24"/>
			<rect x="45.7" y="-22.7" class="st2" width="1.14" height="217.24"/>
			<rect x="46.84" y="-22.7" class="st3" width="1.14" height="217.24"/>
			<rect x="47.98" y="-22.7" class="st4" width="1.14" height="217.24"/>
			<rect x="49.12" y="-22.7" class="st5" width="1.14" height="217.24"/>
			<rect x="50.26" y="-22.7" class="st6" width="1.14" height="217.24"/>
			<rect x="51.39" y="-22.7" class="st7" width="1.14" height="217.24"/>
			<rect x="52.53" y="-22.7" class="st8" width="1.14" height="217.24"/>
			<rect x="53.67" y="-22.7" class="st9" width="1.14" height="217.24"/>
			<rect x="54.81" y="-22.7" class="st10" width="1.14" height="217.24"/>
			<rect x="55.95" y="-22.7" class="st11" width="1.14" height="217.24"/>
			<rect x="57.09" y="-22.7" class="st12" width="1.14" height="217.24"/>
			<rect x="58.23" y="-22.7" class="st13" width="1.14" height="217.24"/>
			<rect x="59.37" y="-22.7" class="st14" width="1.14" height="217.24"/>
			<rect x="60.51" y="-22.7" class="st15" width="1.14" height="217.24"/>
			<rect x="61.65" y="-22.7" class="st16" width="1.14" height="217.24"/>
			<rect x="62.78" y="-22.7" class="st17" width="1.14" height="217.24"/>
			<rect x="63.92" y="-22.7" class="st18" width="1.14" height="217.24"/>
			<rect x="65.06" y="-22.7" class="st19" width="1.14" height="217.24"/>
			<rect x="66.2" y="-22.7" class="st20" width="1.14" height="217.24"/>
			<rect x="67.34" y="-22.7" class="st21" width="1.14" height="217.24"/>
			<rect x="68.48" y="-22.7" class="st22" width="1.14" height="217.24"/>
			<rect x="69.62" y="-22.7" class="st23" width="1.14" height="217.24"/>
			<rect x="70.76" y="-22.7" class="st24" width="1.14" height="217.24"/>
			<rect x="71.9" y="-22.7" class="st25" width="1.14" height="217.24"/>
			<rect x="73.03" y="-22.7" class="st26" width="1.14" height="217.24"/>
			<rect x="74.17" y="-22.7" class="st27" width="1.14" height="217.24"/>
			<rect x="75.31" y="-22.7" class="st28" width="1.14" height="217.24"/>
			<rect x="76.45" y="-22.7" class="st29" width="1.14" height="217.24"/>
			<rect x="77.59" y="-22.7" class="st30" width="1.14" height="217.24"/>
			<rect x="78.73" y="-22.7" class="st31" width="1.14" height="217.24"/>
			<rect x="79.87" y="-22.7" class="st32" width="1.14" height="217.24"/>
			<rect x="81.01" y="-22.7" class="st33" width="1.14" height="217.24"/>
			<rect x="82.15" y="-22.7" class="st34" width="1.14" height="217.24"/>
			<rect x="83.29" y="-22.7" class="st35" width="1.14" height="217.24"/>
			<rect x="84.42" y="-22.7" class="st36" width="1.14" height="217.24"/>
			<rect x="85.56" y="-22.7" class="st37" width="1.14" height="217.24"/>
			<rect x="86.7" y="-22.7" class="st38" width="1.14" height="217.24"/>
			<rect x="87.84" y="-22.7" class="st39" width="1.14" height="217.24"/>
			<rect x="88.98" y="-22.7" class="st40" width="1.14" height="217.24"/>
			<rect x="90.12" y="-22.7" class="st41" width="1.14" height="217.24"/>
			<rect x="91.26" y="-22.7" class="st42" width="1.14" height="217.24"/>
			<rect x="92.4" y="-22.7" class="st43" width="1.14" height="217.24"/>
			<rect x="93.54" y="-22.7" class="st44" width="1.14" height="217.24"/>
			<rect x="94.68" y="-22.7" class="st45" width="1.14" height="217.24"/>
			<rect x="95.81" y="-22.7" class="st46" width="1.14" height="217.24"/>
			<rect x="96.95" y="-22.7" class="st47" width="1.14" height="217.24"/>
			<rect x="98.09" y="-22.7" class="st48" width="1.14" height="217.24"/>
			<rect x="99.23" y="-22.7" class="st49" width="1.14" height="217.24"/>
			<rect x="100.37" y="-22.7" class="st50" width="1.14" height="217.24"/>
			<rect x="101.51" y="-22.7" class="st51" width="1.14" height="217.24"/>
			<rect x="102.65" y="-22.7" class="st52" width="1.14" height="217.24"/>
			<rect x="103.79" y="-22.7" class="st53" width="1.14" height="217.24"/>
			<rect x="104.93" y="-22.7" class="st54" width="1.14" height="217.24"/>
			<rect x="106.07" y="-22.7" class="st55" width="1.14" height="217.24"/>
			<rect x="107.2" y="-22.7" class="st56" width="1.14" height="217.24"/>
			<rect x="108.34" y="-22.7" class="st57" width="1.14" height="217.24"/>
			<rect x="109.48" y="-22.7" class="st58" width="1.14" height="217.24"/>
			<rect x="110.62" y="-22.7" class="st59" width="1.14" height="217.24"/>
			<rect x="111.76" y="-22.7" class="st60" width="1.14" height="217.24"/>
			<rect x="112.9" y="-22.7" class="st61" width="1.14" height="217.24"/>
			<rect x="114.04" y="-22.7" class="st62" width="1.14" height="217.24"/>
			<rect x="115.18" y="-22.7" class="st63" width="1.14" height="217.24"/>
			<rect x="116.32" y="-22.7" class="st64" width="1.14" height="217.24"/>
			<rect x="117.45" y="-22.7" class="st65" width="1.14" height="217.24"/>
			<rect x="118.59" y="-22.7" class="st66" width="1.14" height="217.24"/>
			<rect x="119.73" y="-22.7" class="st67" width="1.14" height="217.24"/>
			<rect x="120.87" y="-22.7" class="st68" width="1.14" height="217.24"/>
			<rect x="122.01" y="-22.7" class="st69" width="1.14" height="217.24"/>
			<rect x="123.15" y="-22.7" class="st70" width="1.14" height="217.24"/>
			<rect x="124.29" y="-22.7" class="st71" width="1.14" height="217.24"/>
			<rect x="125.43" y="-22.7" class="st72" width="1.14" height="217.24"/>
			<rect x="126.57" y="-22.7" class="st73" width="1.14" height="217.24"/>
			<rect x="127.71" y="-22.7" class="st74" width="1.14" height="217.24"/>
			<rect x="128.84" y="-22.7" class="st75" width="1.14" height="217.24"/>
			<rect x="129.98" y="-22.7" class="st76" width="1.14" height="217.24"/>
			<rect x="131.12" y="-22.7" class="st77" width="1.14" height="217.24"/>
			<rect x="132.26" y="-22.7" class="st78" width="1.14" height="217.24"/>
			<rect x="133.4" y="-22.7" class="st79" width="1.14" height="217.24"/>
			<rect x="134.54" y="-22.7" class="st80" width="1.14" height="217.24"/>
			<rect x="135.68" y="-22.7" class="st81" width="1.14" height="217.24"/>
			<rect x="136.82" y="-22.7" class="st82" width="1.14" height="217.24"/>
			<rect x="137.96" y="-22.7" class="st83" width="1.14" height="217.24"/>
			<rect x="139.1" y="-22.7" class="st84" width="1.14" height="217.24"/>
			<rect x="140.23" y="-22.7" class="st85" width="1.14" height="217.24"/>
			<rect x="141.37" y="-22.7" class="st86" width="1.14" height="217.24"/>
			<rect x="142.51" y="-22.7" class="st87" width="1.14" height="217.24"/>
			<rect x="143.65" y="-22.7" class="st88" width="1.14" height="217.24"/>
			<rect x="144.79" y="-22.7" class="st89" width="1.14" height="217.24"/>
			<rect x="145.93" y="-22.7" class="st90" width="1.14" height="217.24"/>
			<rect x="147.07" y="-22.7" class="st91" width="1.14" height="217.24"/>
			<rect x="148.21" y="-22.7" class="st92" width="1.14" height="217.24"/>
			<rect x="149.35" y="-22.7" class="st93" width="1.14" height="217.24"/>
			<rect x="150.49" y="-22.7" class="st94" width="1.14" height="217.24"/>
			<rect x="151.62" y="-22.7" class="st95" width="1.14" height="217.24"/>
			<rect x="152.76" y="-22.7" class="st96" width="1.14" height="217.24"/>
			<rect x="153.9" y="-22.7" class="st97" width="1.14" height="217.24"/>
			<rect x="155.04" y="-22.7" class="st98" width="1.14" height="217.24"/>
			<rect x="156.18" y="-22.7" class="st99" width="1.14" height="217.24"/>
			<rect x="157.32" y="-22.7" class="st100" width="1.14" height="217.24"/>
			<rect x="158.46" y="-22.7" class="st101" width="1.14" height="217.24"/>
			<rect x="159.6" y="-22.7" class="st102" width="1.14" height="217.24"/>
			<rect x="160.74" y="-22.7" class="st103" width="1.14" height="217.24"/>
			<rect x="161.87" y="-22.7" class="st104" width="1.14" height="217.24"/>
			<rect x="163.01" y="-22.7" class="st105" width="1.14" height="217.24"/>
			<rect x="164.15" y="-22.7" class="st106" width="1.14" height="217.24"/>
			<rect x="165.29" y="-22.7" class="st107" width="1.14" height="217.24"/>
			<rect x="166.43" y="-22.7" class="st108" width="1.14" height="217.24"/>
			<rect x="167.57" y="-22.7" class="st109" width="1.14" height="217.24"/>
			<rect x="168.71" y="-22.7" class="st110" width="1.14" height="217.24"/>
			<rect x="169.85" y="-22.7" class="st111" width="1.14" height="217.24"/>
			<rect x="170.99" y="-22.7" class="st112" width="1.14" height="217.24"/>
			<rect x="172.13" y="-22.7" class="st113" width="1.14" height="217.24"/>
			<rect x="173.26" y="-22.7" class="st114" width="1.14" height="217.24"/>
			<rect x="174.4" y="-22.7" class="st115" width="1.14" height="217.24"/>
			<rect x="175.54" y="-22.7" class="st116" width="1.14" height="217.24"/>
			<rect x="176.68" y="-22.7" class="st117" width="1.14" height="217.24"/>
			<rect x="177.82" y="-22.7" class="st118" width="1.14" height="217.24"/>
			<rect x="178.96" y="-22.7" class="st119" width="1.14" height="217.24"/>
			<rect x="180.1" y="-22.7" class="st119" width="7.08" height="217.24"/>
		</g>
	</g>
	<g>
		<g>
			<defs>
				<path id="SVGID_7_" d="M562.01,373.34c0,0-17.96,72.57-109.94,40.01c0,0,27.4,25.84,36.26,27.02c0,0,22.1,10.31,32.62,4.96
					c0,0,24.31-5.92,32.21-21.99C553.17,423.35,566.08,406.4,562.01,373.34z"/>
			</defs>
			<clipPath id="SVGID_2_">
				<use xlink:href="#SVGID_7_"  style="overflow:visible;"/>
			</clipPath>
			<path class="st120" d="M452.08,373.34v77.34V373.34z"/>
			<rect x="452.08" y="373.34" class="st120" width="0.73" height="77.34"/>
			<rect x="452.81" y="373.34" class="st121" width="0.73" height="77.34"/>
			<rect x="453.55" y="373.34" class="st122" width="0.73" height="77.34"/>
			<rect x="454.28" y="373.34" class="st123" width="0.73" height="77.34"/>
			<rect x="455.01" y="373.34" class="st124" width="0.73" height="77.34"/>
			<rect x="455.75" y="373.34" class="st125" width="0.73" height="77.34"/>
			<rect x="456.48" y="373.34" class="st126" width="0.73" height="77.34"/>
			<rect x="457.21" y="373.34" class="st127" width="0.73" height="77.34"/>
			<rect x="457.95" y="373.34" class="st128" width="0.73" height="77.34"/>
			<rect x="458.68" y="373.34" class="st129" width="0.73" height="77.34"/>
			<rect x="459.41" y="373.34" class="st130" width="0.73" height="77.34"/>
			<rect x="460.14" y="373.34" class="st131" width="0.73" height="77.34"/>
			<rect x="460.88" y="373.34" class="st132" width="0.73" height="77.34"/>
			<rect x="461.61" y="373.34" class="st133" width="0.73" height="77.34"/>
			<rect x="462.34" y="373.34" class="st134" width="0.73" height="77.34"/>
			<rect x="463.08" y="373.34" class="st135" width="0.73" height="77.34"/>
			<rect x="463.81" y="373.34" class="st136" width="0.73" height="77.34"/>
			<rect x="464.54" y="373.34" class="st137" width="0.73" height="77.34"/>
			<rect x="465.28" y="373.34" class="st138" width="0.73" height="77.34"/>
			<rect x="466.01" y="373.34" class="st139" width="0.73" height="77.34"/>
			<rect x="466.74" y="373.34" class="st140" width="0.73" height="77.34"/>
			<rect x="467.48" y="373.34" class="st141" width="0.73" height="77.34"/>
			<rect x="468.21" y="373.34" class="st142" width="0.73" height="77.34"/>
			<rect x="468.94" y="373.34" class="st143" width="0.73" height="77.34"/>
			<rect x="469.68" y="373.34" class="st144" width="0.73" height="77.34"/>
			<rect x="470.41" y="373.34" class="st145" width="0.73" height="77.34"/>
			<rect x="471.14" y="373.34" class="st146" width="0.73" height="77.34"/>
			<rect x="471.88" y="373.34" class="st147" width="0.73" height="77.34"/>
			<rect x="472.61" y="373.34" class="st148" width="0.73" height="77.34"/>
			<rect x="473.34" y="373.34" class="st149" width="0.73" height="77.34"/>
			<rect x="474.08" y="373.34" class="st150" width="0.73" height="77.34"/>
			<rect x="474.81" y="373.34" class="st151" width="0.73" height="77.34"/>
			<rect x="475.54" y="373.34" class="st152" width="0.73" height="77.34"/>
			<rect x="476.28" y="373.34" class="st153" width="0.73" height="77.34"/>
			<rect x="477.01" y="373.34" class="st154" width="0.73" height="77.34"/>
			<rect x="477.74" y="373.34" class="st155" width="0.73" height="77.34"/>
			<rect x="478.48" y="373.34" class="st156" width="0.73" height="77.34"/>
			<rect x="479.21" y="373.34" class="st157" width="0.73" height="77.34"/>
			<rect x="479.94" y="373.34" class="st158" width="0.73" height="77.34"/>
			<rect x="480.68" y="373.34" class="st159" width="0.73" height="77.34"/>
			<rect x="481.41" y="373.34" class="st160" width="0.73" height="77.34"/>
			<rect x="482.14" y="373.34" class="st161" width="0.73" height="77.34"/>
			<rect x="482.88" y="373.34" class="st162" width="0.73" height="77.34"/>
			<rect x="483.61" y="373.34" class="st163" width="0.73" height="77.34"/>
			<rect x="484.34" y="373.34" class="st164" width="0.73" height="77.34"/>
			<rect x="485.08" y="373.34" class="st165" width="0.73" height="77.34"/>
			<rect x="485.81" y="373.34" class="st166" width="0.73" height="77.34"/>
			<rect x="486.54" y="373.34" class="st167" width="0.73" height="77.34"/>
			<rect x="487.28" y="373.34" class="st168" width="0.73" height="77.34"/>
			<rect x="488.01" y="373.34" class="st169" width="0.73" height="77.34"/>
			<rect x="488.74" y="373.34" class="st170" width="0.73" height="77.34"/>
			<rect x="489.48" y="373.34" class="st171" width="0.73" height="77.34"/>
			<rect x="490.21" y="373.34" class="st172" width="0.73" height="77.34"/>
			<rect x="490.94" y="373.34" class="st173" width="0.73" height="77.34"/>
			<rect x="491.68" y="373.34" class="st174" width="0.73" height="77.34"/>
			<rect x="492.41" y="373.34" class="st175" width="0.73" height="77.34"/>
			<rect x="493.14" y="373.34" class="st176" width="0.73" height="77.34"/>
			<rect x="493.88" y="373.34" class="st177" width="0.73" height="77.34"/>
			<rect x="494.61" y="373.34" class="st178" width="0.73" height="77.34"/>
			<rect x="495.34" y="373.34" class="st179" width="0.73" height="77.34"/>
			<rect x="496.08" y="373.34" class="st180" width="0.73" height="77.34"/>
			<rect x="496.81" y="373.34" class="st181" width="0.73" height="77.34"/>
			<rect x="497.54" y="373.34" class="st182" width="0.73" height="77.34"/>
			<rect x="498.28" y="373.34" class="st183" width="0.73" height="77.34"/>
			<rect x="499.01" y="373.34" class="st184" width="0.73" height="77.34"/>
			<rect x="499.74" y="373.34" class="st185" width="0.73" height="77.34"/>
			<rect x="500.48" y="373.34" class="st186" width="0.73" height="77.34"/>
			<rect x="501.21" y="373.34" class="st187" width="0.73" height="77.34"/>
			<rect x="501.94" y="373.34" class="st188" width="0.73" height="77.34"/>
			<rect x="502.68" y="373.34" class="st189" width="0.73" height="77.34"/>
			<rect x="503.41" y="373.34" class="st190" width="0.73" height="77.34"/>
			<rect x="504.14" y="373.34" class="st191" width="0.73" height="77.34"/>
			<rect x="504.88" y="373.34" class="st192" width="0.73" height="77.34"/>
			<rect x="505.61" y="373.34" class="st193" width="0.73" height="77.34"/>
			<rect x="506.34" y="373.34" class="st194" width="0.73" height="77.34"/>
			<rect x="507.08" y="373.34" class="st195" width="0.73" height="77.34"/>
			<rect x="507.81" y="373.34" class="st196" width="0.73" height="77.34"/>
			<rect x="508.54" y="373.34" class="st197" width="0.73" height="77.34"/>
			<rect x="509.27" y="373.34" class="st198" width="0.73" height="77.34"/>
			<rect x="510.01" y="373.34" class="st199" width="0.73" height="77.34"/>
			<rect x="510.74" y="373.34" class="st200" width="0.73" height="77.34"/>
			<rect x="511.47" y="373.34" class="st201" width="0.73" height="77.34"/>
			<rect x="512.21" y="373.34" class="st202" width="0.73" height="77.34"/>
			<rect x="512.94" y="373.34" class="st203" width="0.73" height="77.34"/>
			<rect x="513.67" y="373.34" class="st204" width="0.73" height="77.34"/>
			<rect x="514.41" y="373.34" class="st205" width="0.73" height="77.34"/>
			<rect x="515.14" y="373.34" class="st206" width="0.73" height="77.34"/>
			<rect x="515.87" y="373.34" class="st207" width="0.73" height="77.34"/>
			<rect x="516.61" y="373.34" class="st208" width="0.73" height="77.34"/>
			<rect x="517.34" y="373.34" class="st209" width="0.73" height="77.34"/>
			<rect x="518.07" y="373.34" class="st210" width="0.73" height="77.34"/>
			<rect x="518.81" y="373.34" class="st211" width="0.73" height="77.34"/>
			<rect x="519.54" y="373.34" class="st212" width="0.73" height="77.34"/>
			<rect x="520.27" y="373.34" class="st213" width="0.73" height="77.34"/>
			<rect x="521.01" y="373.34" class="st214" width="0.73" height="77.34"/>
			<rect x="521.74" y="373.34" class="st215" width="0.73" height="77.34"/>
			<rect x="522.47" y="373.34" class="st216" width="0.73" height="77.34"/>
			<rect x="523.21" y="373.34" class="st217" width="0.73" height="77.34"/>
			<rect x="523.94" y="373.34" class="st218" width="0.73" height="77.34"/>
			<rect x="524.67" y="373.34" class="st219" width="0.73" height="77.34"/>
			<rect x="525.41" y="373.34" class="st220" width="0.73" height="77.34"/>
			<rect x="526.14" y="373.34" class="st221" width="0.73" height="77.34"/>
			<rect x="526.87" y="373.34" class="st222" width="0.73" height="77.34"/>
			<rect x="527.61" y="373.34" class="st223" width="0.73" height="77.34"/>
			<rect x="528.34" y="373.34" class="st224" width="0.73" height="77.34"/>
			<rect x="529.07" y="373.34" class="st225" width="0.73" height="77.34"/>
			<rect x="529.81" y="373.34" class="st226" width="0.73" height="77.34"/>
			<rect x="530.54" y="373.34" class="st227" width="0.73" height="77.34"/>
			<rect x="531.27" y="373.34" class="st228" width="0.73" height="77.34"/>
			<rect x="532.01" y="373.34" class="st229" width="0.73" height="77.34"/>
			<rect x="532.74" y="373.34" class="st230" width="0.73" height="77.34"/>
			<rect x="533.47" y="373.34" class="st231" width="0.73" height="77.34"/>
			<rect x="534.21" y="373.34" class="st232" width="0.73" height="77.34"/>
			<rect x="534.94" y="373.34" class="st233" width="0.73" height="77.34"/>
			<rect x="535.67" y="373.34" class="st234" width="0.73" height="77.34"/>
			<rect x="536.41" y="373.34" class="st235" width="0.73" height="77.34"/>
			<rect x="537.14" y="373.34" class="st236" width="0.73" height="77.34"/>
			<rect x="537.87" y="373.34" class="st237" width="0.73" height="77.34"/>
			<rect x="538.61" y="373.34" class="st238" width="0.73" height="77.34"/>
			<rect x="539.34" y="373.34" class="st239" width="0.73" height="77.34"/>
			<rect x="540.07" y="373.34" class="st240" width="0.73" height="77.34"/>
			<rect x="540.81" y="373.34" class="st241" width="0.73" height="77.34"/>
			<rect x="541.54" y="373.34" class="st242" width="0.73" height="77.34"/>
			<rect x="542.27" y="373.34" class="st243" width="0.73" height="77.34"/>
			<rect x="543.01" y="373.34" class="st244" width="0.73" height="77.34"/>
			<rect x="543.74" y="373.34" class="st245" width="0.73" height="77.34"/>
			<rect x="544.47" y="373.34" class="st246" width="0.73" height="77.34"/>
			<rect x="545.21" y="373.34" class="st247" width="0.73" height="77.34"/>
			<rect x="545.94" y="373.34" class="st248" width="0.73" height="77.34"/>
			<rect x="546.67" y="373.34" class="st249" width="0.73" height="77.34"/>
			<rect x="547.41" y="373.34" class="st250" width="0.73" height="77.34"/>
			<rect x="548.14" y="373.34" class="st251" width="0.73" height="77.34"/>
			<rect x="548.87" y="373.34" class="st252" width="0.73" height="77.34"/>
			<rect x="549.61" y="373.34" class="st253" width="0.73" height="77.34"/>
			<rect x="550.34" y="373.34" class="st254" width="0.73" height="77.34"/>
			<rect x="551.07" y="373.34" class="st255" width="0.73" height="77.34"/>
			<rect x="551.81" y="373.34" class="st256" width="0.73" height="77.34"/>
			<rect x="552.54" y="373.34" class="st257" width="0.73" height="77.34"/>
			<rect x="553.27" y="373.34" class="st258" width="0.73" height="77.34"/>
			<rect x="554.01" y="373.34" class="st259" width="0.73" height="77.34"/>
			<rect x="554.74" y="373.34" class="st260" width="0.73" height="77.34"/>
			<rect x="555.47" y="373.34" class="st261" width="0.73" height="77.34"/>
			<rect x="556.21" y="373.34" class="st262" width="0.73" height="77.34"/>
			<rect x="556.94" y="373.34" class="st263" width="0.73" height="77.34"/>
			<rect x="557.67" y="373.34" class="st264" width="0.73" height="77.34"/>
			<rect x="558.4" y="373.34" class="st265" width="0.73" height="77.34"/>
			<rect x="559.14" y="373.34" class="st266" width="0.73" height="77.34"/>
			<rect x="559.87" y="373.34" class="st267" width="0.73" height="77.34"/>
			<rect x="560.6" y="373.34" class="st268" width="0.73" height="77.34"/>
			<rect x="561.34" y="373.34" class="st269" width="0.73" height="77.34"/>
			<rect x="562.07" y="373.34" class="st270" width="0.73" height="77.34"/>
			<rect x="562.8" y="373.34" class="st270" width="3.27" height="77.34"/>
		</g>
	</g>
	<g>
		<path class="st271" d="M512.21,447c-0.59,0-1.19-0.01-1.79-0.04c-36.61-1.45-71.65-45.34-94.83-74.39
			c-1.92-2.4-3.74-4.68-5.46-6.81c-30.57-37.8-64.37-52.86-113.05-50.38c-7,0.36-14.13,0.93-21.03,1.48
			c-20.17,1.61-41.02,3.27-61.28-0.08c-23.91-3.95-52.41-19.13-54.03-48.91c-0.79-14.52,2.36-28.94,5.4-42.89
			c3.26-14.92,6.62-30.34,5.07-45.72c-2.37-23.51-13.75-42.58-26.21-61.64c-28.26-43.24-63.25-81.04-104-112.37l0.95-1.24
			c40.89,31.44,76.01,69.37,104.36,112.75c12.57,19.23,24.05,38.48,26.46,62.34c1.58,15.63-1.82,31.18-5.1,46.21
			c-3.02,13.85-6.15,28.16-5.37,42.47c1.57,28.86,29.39,43.6,52.73,47.46c20.07,3.32,40.83,1.66,60.9,0.06
			c6.91-0.55,14.06-1.12,21.08-1.48c48.56-2.49,83.84,13.23,114.34,50.96c1.72,2.13,3.54,4.41,5.46,6.82
			c21.61,27.07,57.79,72.39,93.68,73.81c13.81,0.54,26.71-5.47,38.32-17.87c10.49-11.2,12.95-26.92,13.17-38.14
			c0.18-9.26-0.96-18.64-2.06-27.72c-0.55-4.54-1.12-9.23-1.52-13.86c-1.67-19.39,8.34-34.84,26.13-40.32
			c17.24-5.32,34.06,4.19,45,25.42l-1.38,0.71c-3.96-7.68-18.76-32.17-43.15-24.65c-17.31,5.34-26.67,19.8-25.04,38.7
			c0.4,4.6,0.96,9.28,1.51,13.8c1.11,9.13,2.25,18.57,2.07,27.94c-0.22,11.49-2.76,27.61-13.59,39.17
			C538.5,440.82,525.82,447,512.21,447z"/>
	</g>
</g>
</svg>
