<svg width="298" height="112" viewBox="0 0 298 112" fill="none" xmlns="http://www.w3.org/2000/svg">
<path d="M44.6099 84.5016C44.471 84.5016 44.3371 84.4818 44.2032 84.4471L17.5613 76.8592C16.9662 76.6905 16.5397 76.1748 16.4851 75.5598L10.5338 8.47883C10.4991 8.06224 10.638 7.65061 10.9206 7.34312C11.2033 7.03564 11.6001 6.86206 12.0167 6.86206H77.3519C77.7685 6.86206 78.1653 7.03564 78.448 7.34312C78.7307 7.65061 78.8695 8.06224 78.8348 8.47883L72.8934 75.5598C72.8389 76.1748 72.4124 76.6905 71.8172 76.8592L45.0215 84.4421C44.8827 84.4818 44.7438 84.5016 44.6099 84.5016ZM19.3566 74.2753L44.6099 81.4665L70.012 74.2753L75.7203 9.83275H13.6384L19.3566 74.2753ZM44.6793 70.035C44.5504 70.035 44.4215 70.0201 44.2975 69.9854L27.4256 65.4724C26.8155 65.3087 26.3742 64.778 26.3246 64.1532L25.298 51.1793C25.2633 50.7677 25.4071 50.3561 25.6898 50.0536C25.9725 49.751 26.3692 49.5775 26.7808 49.5775H34.8994C35.6681 49.5775 36.3128 50.1676 36.3823 50.9314L36.8782 56.4661L44.6843 58.5986L52.3516 56.481L53.1103 48.4715H26.3494C25.5757 48.4715 24.9359 47.8813 24.8665 47.1126L22.6992 22.1966C22.6645 21.78 22.8034 21.3683 23.0861 21.0609C23.3688 20.7534 23.7655 20.5798 24.1821 20.5798L65.1766 20.5897C65.5932 20.5897 65.9899 20.7633 66.2726 21.0708C66.5553 21.3783 66.6942 21.7899 66.6594 22.2065L65.9403 30.3597C65.8709 31.1285 65.2311 31.7186 64.4575 31.7186L34.7903 31.7087L35.2565 37.1889H63.7284C64.145 37.1889 64.5467 37.3624 64.8294 37.6749C65.1121 37.9873 65.251 38.399 65.2113 38.8155L62.8953 64.1978C62.8407 64.8177 62.3993 65.3385 61.7992 65.4972L45.0662 69.9854C44.9372 70.0201 44.8083 70.035 44.6793 70.035ZM29.206 62.8736L44.6793 67.0098L60.0238 62.8935L62.0968 40.1645H33.8877C33.0942 40.1645 32.4494 39.5446 32.4048 38.7659L31.6907 30.3449C31.6559 29.9283 31.7948 29.5166 32.0775 29.2141C32.3602 28.9066 32.7569 28.7331 33.1735 28.7331L63.0986 28.743L63.5549 23.5654L25.8038 23.5554L27.7132 45.4909H54.742C55.1586 45.4909 55.5603 45.6694 55.843 45.9769C56.1257 46.2894 56.2645 46.701 56.2248 47.1176L55.2131 57.7754C55.1536 58.3903 54.7221 58.9061 54.127 59.0698L45.0761 61.5693C44.8182 61.6387 44.5454 61.6437 44.2875 61.5693L35.0928 59.0549C34.4927 58.8912 34.0563 58.3705 34.0017 57.7506L33.5355 52.5432H28.3926L29.206 62.8736Z" fill="#F1C583"/>
<path d="M89.3587 70.7541H86.383V6.5595C86.383 5.13615 85.2225 3.97565 83.7991 3.97565H5.5595C4.13615 3.97565 2.97565 5.13615 2.97565 6.5595H0C0 3.49458 2.49458 1 5.5595 1H83.7991C86.8641 1 89.3587 3.49458 89.3587 6.5595V70.7541Z" fill="#F1C583"/>
<path d="M2.97565 14.7426H0V18.2439H2.97565V14.7426Z" fill="#F1C583"/>
<path d="M83.8041 90.3587H5.5595C2.49458 90.3587 0 87.8641 0 84.7992V25.5938H2.97565V84.7992C2.97565 86.2225 4.13615 87.383 5.5595 87.383H83.7991V90.3587H83.8041Z" fill="#F1C583"/>
<path d="M89.3586 77.9303H86.383V81.4316H89.3586V77.9303Z" fill="#F1C583"/>
<path d="M193.359 92.0887H190.383V27.8941C190.383 26.4707 189.222 25.3102 187.799 25.3102H109.559C108.136 25.3102 106.976 26.4658 106.976 27.8941H104C104 24.8292 106.495 22.3346 109.559 22.3346H187.799C190.864 22.3346 193.359 24.8292 193.359 27.8941V92.0887Z" fill="#6F83EF"/>
<path d="M106.976 36.077H104V39.5784H106.976V36.077Z" fill="#6F83EF"/>
<path d="M187.804 111.693H109.559C106.495 111.693 104 109.199 104 106.134V46.9282H106.976V106.134C106.976 107.557 108.136 108.718 109.559 108.718H187.799V111.693H187.804Z" fill="#6F83EF"/>
<path d="M193.359 99.265H190.383V102.766H193.359V99.265Z" fill="#6F83EF"/>
<path d="M148.61 106.233C148.471 106.233 148.337 106.213 148.203 106.178L121.269 98.5111C120.674 98.3425 120.247 97.8268 120.192 97.2118L114.182 29.4117C114.147 28.9951 114.286 28.5835 114.568 28.276C114.851 27.9685 115.248 27.7949 115.665 27.7949H181.699C182.116 27.7949 182.512 27.9685 182.795 28.276C183.078 28.5835 183.217 28.9951 183.182 29.4117L177.176 97.2167C177.122 97.8317 176.695 98.3475 176.1 98.5161L149.017 106.178C148.883 106.218 148.749 106.233 148.61 106.233ZM123.069 95.9273L148.61 103.198L174.3 95.9273L180.072 30.7656H117.291L123.069 95.9273ZM148.684 91.4142C148.535 91.4142 148.387 91.3944 148.243 91.3448L131.063 85.9936C130.483 85.8101 130.067 85.2943 130.022 84.6843L129.109 72.5585C129.08 72.1469 129.219 71.7402 129.501 71.4328C129.784 71.1302 130.176 70.9567 130.592 70.9567H138.795C139.564 70.9567 140.209 71.5419 140.278 72.3106L140.784 77.9197L148.684 80.0869L156.461 77.9395L157.333 69.5135H139.544C138.775 69.5135 138.136 68.9283 138.061 68.1645L137.302 60.0757C137.263 59.6591 137.402 59.2475 137.684 58.9351C137.967 58.6276 138.364 58.449 138.785 58.449H158.31L158.831 52.8796L128.623 52.8697C127.85 52.8697 127.205 52.2746 127.141 51.5009L126.471 43.2584C126.436 42.8467 126.58 42.4351 126.863 42.1276C127.146 41.8201 127.542 41.6466 127.959 41.6466L169.4 41.6565C169.816 41.6565 170.218 41.83 170.501 42.1425C170.783 42.4549 170.922 42.8666 170.883 43.2782L167.054 85.2398C166.999 85.8547 166.573 86.3656 165.978 86.5342L149.086 91.3398C148.957 91.3944 148.818 91.4142 148.684 91.4142ZM132.913 83.4544L148.704 88.3691L164.192 83.9602L167.778 44.6371L129.581 44.6272L130.007 49.8941L160.473 49.904C160.889 49.904 161.291 50.0825 161.574 50.39C161.856 50.6975 161.995 51.1141 161.956 51.5306L161.152 60.0757C161.083 60.8395 160.438 61.4247 159.669 61.4247H140.422L140.898 66.5378H158.98C159.402 66.5378 159.803 66.7164 160.086 67.0288C160.369 67.3412 160.503 67.7578 160.463 68.1794L159.312 79.2587C159.248 79.8687 158.821 80.3746 158.231 80.5382L149.081 83.0675C148.823 83.137 148.55 83.137 148.292 83.0675L139.003 80.5184C138.403 80.3547 137.972 79.834 137.917 79.219L137.441 73.9373H132.194L132.913 83.4544Z" fill="#6F83EF"/>
<path d="M210.976 14.7394H208V18.2407H210.976V14.7394Z" fill="#DEE870"/>
<path d="M297.359 69.7541H294.383V5.5595C294.383 4.13615 293.223 2.97565 291.799 2.97565H213.56C212.136 2.97565 210.976 4.13615 210.976 5.5595H208C208 2.49458 210.495 0 213.56 0H291.799C294.864 0 297.359 2.49458 297.359 5.5595V69.7541Z" fill="#DEE870"/>
<path d="M291.799 89.3587H213.56C210.495 89.3587 208 86.8641 208 83.7992V24.5938H210.976V83.7992C210.976 85.2225 212.136 86.383 213.56 86.383H291.799V89.3587Z" fill="#DEE870"/>
<path d="M297.359 76.9303H294.383V80.4316H297.359V76.9303Z" fill="#DEE870"/>
<path d="M286.711 80.6251H217.874C217.051 80.6251 216.386 79.9606 216.386 79.1373V10.3007C216.386 9.47743 217.051 8.81287 217.874 8.81287H286.711C287.534 8.81287 288.199 9.47743 288.199 10.3007V79.1373C288.199 79.9606 287.534 80.6251 286.711 80.6251ZM219.367 77.6495H285.228V11.7885H219.367V77.6495ZM245.691 75.3285C243.237 75.3285 240.94 74.7383 239.006 73.5778C237.196 72.4917 235.678 70.7708 234.627 68.5986C234.295 67.9142 234.538 67.0859 235.187 66.6842L240.42 63.4556C240.653 63.3118 240.925 63.2325 241.203 63.2325C242.096 63.2325 242.488 63.907 242.721 64.3087L242.84 64.512C243.41 65.4642 243.797 65.9651 244.496 66.342C244.918 66.4511 246.574 66.8132 247.1 65.7171C247.115 65.6824 247.135 65.6477 247.155 65.613C247.412 65.0625 247.388 62.5183 247.368 60.6635C247.363 59.994 247.353 59.2947 247.353 58.5855C247.353 55.7983 247.358 53.021 247.368 50.2487C247.373 47.4814 247.383 44.7091 247.383 41.9368C247.383 41.1135 248.047 40.4489 248.87 40.4489H255.318C255.729 40.4489 256.126 40.6225 256.409 40.925C256.691 41.2276 256.835 41.6342 256.806 42.0459L256.796 42.155C256.796 44.1189 256.801 46.0779 256.801 48.0319C256.806 51.9002 256.815 55.9025 256.796 59.8353C256.796 60.356 256.806 60.8867 256.815 61.4025C256.865 64.5368 256.91 67.4976 255.486 70.1062C254.365 72.3826 252.198 74.0886 249.386 74.902C249.356 74.9119 249.327 74.9168 249.297 74.9268C248.067 75.1946 246.862 75.3285 245.691 75.3285ZM237.96 68.4746C238.674 69.5706 239.547 70.4385 240.529 71.0287C242.691 72.3181 245.622 72.6851 248.588 72.0305C250.001 71.6139 251.871 70.7113 252.813 68.7721C252.823 68.7473 252.838 68.7275 252.848 68.7077C253.909 66.7834 253.87 64.3136 253.825 61.452C253.815 60.9214 253.81 60.3858 253.805 59.8353C253.825 55.9025 253.82 51.9052 253.81 48.0418C253.805 46.5093 253.805 44.9719 253.805 43.4345H250.343C250.343 45.7158 250.338 47.9922 250.329 50.2686C250.324 53.0409 250.314 55.8132 250.314 58.6004C250.314 59.2997 250.319 59.989 250.329 60.6486C250.363 64.0855 250.353 65.9552 249.748 67.0661C248.553 69.5012 245.672 69.8632 243.485 69.1689C243.415 69.149 243.346 69.1193 243.281 69.0846C242.046 68.4795 241.317 67.6612 240.727 66.7735L237.96 68.4746ZM270.409 75.026C266.387 75.026 262.375 73.6274 259.965 71.1973C259.94 71.1725 259.915 71.1477 259.89 71.1179C259.692 70.8898 259.508 70.6815 259.335 70.4881C258.571 69.6301 257.911 68.8862 257.336 67.567C257.034 66.8727 257.301 66.0593 257.956 65.6824L263.203 62.6671C263.883 62.2753 264.755 62.4836 265.187 63.1382C266.501 65.1319 267.493 65.9155 269.229 66.3222C270.86 66.5106 272.294 66.2131 272.894 65.5684C273.008 65.4444 273.355 65.0675 273.167 64.0954C272.889 63.2176 270.935 62.3943 269.045 61.6008C267.225 60.8321 265.162 59.9642 263.377 58.6401C261.12 57.1026 259.608 54.5138 259.231 51.5283C258.854 48.5675 259.672 45.696 261.472 43.6378C262.762 42.0657 264.83 40.8407 267.161 40.2704C267.215 40.2555 267.27 40.2456 267.329 40.2406L269.348 39.9828C269.397 39.9778 269.452 39.9728 269.502 39.9728C273.608 39.8786 276.554 40.9697 278.746 43.3998C279.381 44.0396 279.852 44.7041 280.591 45.8547C280.809 46.1919 280.879 46.5986 280.794 46.9854C280.705 47.3772 280.467 47.7145 280.13 47.9228C278.076 49.2023 278.076 49.2023 275.126 51.1315C274.764 51.3696 274.317 51.434 273.906 51.32C273.489 51.2009 273.147 50.9083 272.963 50.5215C272.537 49.609 271.862 48.9692 271.074 48.7262C270.409 48.5278 269.616 48.5873 269.115 48.8799C268.748 49.0932 268.654 49.356 268.609 49.5346C268.604 49.5643 268.594 49.5941 268.584 49.6239C268.539 49.7726 268.49 49.9363 268.688 50.7C269.075 51.3993 270.434 51.9845 271.748 52.5499C272.18 52.7334 272.616 52.9219 273.043 53.1252C278.954 55.5305 281.88 58.4218 282.53 62.4935C282.56 62.6869 282.555 62.8804 282.51 63.0639C282.699 64.7203 282.575 66.3371 282.143 67.691C281.151 71.0931 278.394 73.5282 274.387 74.5449C273.107 74.8672 271.758 75.026 270.409 75.026ZM262.112 69.1342C264.607 71.6139 269.561 72.695 273.663 71.6536C275.369 71.2221 278.369 70.0219 279.296 66.8429C279.301 66.833 279.311 66.7884 279.316 66.7785C279.525 66.1337 279.817 64.755 279.475 62.7861C279.445 62.6225 279.445 62.4588 279.47 62.3051C278.979 60.3511 277.466 58.1144 271.897 55.8578C271.872 55.8479 271.847 55.838 271.823 55.8281C271.411 55.6347 270.994 55.4561 270.578 55.2776C268.688 54.4642 266.734 53.6211 265.936 51.8159C265.906 51.7465 265.881 51.677 265.861 51.6076C265.579 50.5761 265.46 49.7478 265.728 48.8105C265.99 47.7393 266.645 46.8714 267.627 46.301C268.847 45.5918 270.459 45.4331 271.942 45.8745C273.048 46.2167 274.015 46.8863 274.768 47.8137C275.974 47.0251 276.494 46.6879 277.253 46.2118C277.02 45.8993 276.832 45.6811 276.618 45.4679C276.599 45.448 276.579 45.4282 276.564 45.4083C274.962 43.618 272.894 42.8691 269.65 42.9386L267.796 43.1717C266.129 43.5932 264.627 44.471 263.769 45.5274C263.754 45.5423 263.744 45.5571 263.729 45.572C262.479 46.9854 261.919 49.0138 262.186 51.1365C262.454 53.2541 263.535 55.1387 265.078 56.1802C265.098 56.1951 265.117 56.205 265.137 56.2199C266.635 57.3407 268.45 58.1044 270.206 58.8434C272.899 59.9791 275.443 61.0503 276.058 63.3515C276.063 63.3813 276.073 63.406 276.078 63.4358C276.504 65.5088 275.77 66.833 275.086 67.5769C273.792 68.9755 271.5 69.5904 268.802 69.2582C268.753 69.2532 268.708 69.2433 268.659 69.2334C266.263 68.6977 264.78 67.5273 263.521 65.9106L260.728 67.5124C260.961 67.8249 261.229 68.1274 261.562 68.5043C261.735 68.7027 261.919 68.906 262.112 69.1342Z" fill="#DEE870"/>
</svg>
