<svg width="298" height="111" viewBox="0 0 298 111" fill="none" xmlns="http://www.w3.org/2000/svg">
<path d="M2.97565 34.7424H0V38.2438H2.97565V34.7424Z" fill="#00E0FF"/>
<path d="M89.3587 90.7541H86.383V26.5595C86.383 25.1362 85.2225 23.9756 83.7992 23.9756H5.5595C4.13615 23.9756 2.97565 25.1312 2.97565 26.5595H0C0 23.4946 2.49459 21 5.5595 21H83.7992C86.8641 21 89.3587 23.4946 89.3587 26.5595V90.7541Z" fill="#00E0FF"/>
<path d="M83.7992 110.359H5.5595C2.49459 110.359 0 107.864 0 104.799V45.5936H2.97565V104.799C2.97565 106.222 4.13615 107.383 5.5595 107.383H83.7992V110.359Z" fill="#00E0FF"/>
<path d="M89.3586 97.9304H86.383V101.432H89.3586V97.9304Z" fill="#00E0FF"/>
<path d="M44.6743 62.4061C46.6035 62.4061 48.1707 63.9732 48.1707 65.9025C48.1707 67.8317 46.6035 69.3988 44.6743 69.3988C42.7451 69.3988 41.1779 67.8317 41.1779 65.9025C41.1829 63.9732 42.75 62.4061 44.6743 62.4061ZM44.6743 59.4304C41.0986 59.4304 38.2023 62.3267 38.2023 65.9025C38.2023 69.4782 41.0986 72.3745 44.6743 72.3745C48.25 72.3745 51.1463 69.4782 51.1463 65.9025C51.1463 62.3267 48.25 59.4304 44.6743 59.4304Z" fill="#00E0FF"/>
<path d="M30.0937 33.6168C34.1306 33.6168 39.2834 36.4139 44.6743 41.651C50.0652 36.4188 55.218 33.6217 59.255 33.6217C60.5692 33.6217 61.7645 33.9193 62.8109 34.5243C67.1702 37.0338 68.1968 44.0067 65.7022 53.7718C75.4227 56.4995 80.9574 60.8737 80.9574 65.8926C80.9574 70.9066 75.4177 75.2857 65.7022 78.0084C68.1869 87.7686 67.1652 94.7464 62.8109 97.2559C61.7297 97.8659 60.5147 98.1883 59.2748 98.1883C59.2401 98.1883 59.2054 98.1883 59.1657 98.1883C55.1288 98.1883 50.0206 95.3366 44.6644 90.1243C39.3132 95.3366 34.205 98.1883 30.173 98.1883C30.1383 98.1883 30.1036 98.1883 30.0689 98.1883C28.829 98.1883 27.609 97.8659 26.5278 97.2559C22.1685 94.7514 21.1419 87.7735 23.6365 78.0084C13.921 75.2808 8.38137 70.9016 8.38137 65.8926C8.38137 60.8786 13.926 56.4995 23.6415 53.7768C21.1419 44.0067 22.1685 37.0338 26.5278 34.5293C27.5842 33.9143 28.7794 33.6168 30.0937 33.6168ZM62.7663 53.018C64.8343 44.8895 64.3086 38.8688 61.3032 37.1379C60.6932 36.7858 59.9791 36.6172 59.1707 36.6172C56.0165 36.6172 51.4935 39.2308 46.787 43.8133C49.0188 46.2434 51.0918 48.8074 52.9863 51.5103C56.448 51.8128 59.7212 52.3336 62.7663 53.018ZM26.5774 53.018C29.806 52.3038 33.0643 51.793 36.3524 51.5054C38.2519 48.8074 40.3299 46.2385 42.5616 43.8083C37.8403 39.2159 33.3817 36.6122 30.178 36.6122C29.3646 36.6122 28.6505 36.7908 28.0405 37.1379C25.04 38.8688 24.5143 44.8895 26.5774 53.018ZM40.31 51.2326C41.7632 51.1631 43.2163 51.1284 44.6743 51.1284C46.1324 51.1284 47.5954 51.1631 49.0535 51.2326C47.6847 49.4224 46.2217 47.6866 44.6793 46.0153C43.1419 47.6866 41.6788 49.4224 40.31 51.2326ZM44.6743 77.6266C46.8813 77.6266 49.0832 77.5423 51.3199 77.3736C53.8195 73.7186 56.0363 69.88 57.9606 65.8876C56.0413 61.8953 53.8244 58.0567 51.3199 54.4016C49.108 54.233 46.8912 54.1438 44.6743 54.1438C42.4575 54.1438 40.2406 54.2281 38.0287 54.4016C35.5242 58.0518 33.3024 61.8904 31.3881 65.8876C33.3173 69.875 35.5341 73.7136 38.0287 77.3736C40.2654 77.5423 42.4723 77.6266 44.6743 77.6266ZM59.5724 62.3466C60.4601 60.2488 61.2487 58.1113 61.9331 55.9391C59.7063 55.4431 57.4547 55.0563 55.1883 54.7736C56.7703 57.2285 58.2334 59.7528 59.5724 62.3466ZM29.7763 62.3417C30.4408 61.0473 31.1351 59.7628 31.8642 58.5031C32.5882 57.2583 33.3569 56.0135 34.1505 54.7786C31.889 55.0563 29.6423 55.4431 27.4205 55.9391C28.1 58.1113 28.8885 60.2488 29.7763 62.3417ZM64.879 75.0973C72.9628 72.8259 77.9272 69.3493 77.9272 65.8876C77.9272 62.421 72.9678 58.9544 64.879 56.673C63.892 59.8173 62.6968 62.8971 61.3032 65.8876L61.3082 65.8926C62.7563 69.0319 63.9615 72.1167 64.879 75.0973ZM24.4647 75.0973C25.4566 71.953 26.6518 68.8732 28.0355 65.8876C26.6419 62.8971 25.4467 59.8223 24.4647 56.673C16.3858 58.9494 11.4215 62.421 11.4215 65.8876C11.4215 69.3443 16.3809 72.8209 24.4647 75.0973ZM34.1405 76.9818C33.352 75.7618 32.5932 74.522 31.8642 73.2672C31.1401 72.0026 30.4458 70.7231 29.7763 69.4286C28.8885 71.5265 28.1 73.664 27.4205 75.8362C29.5481 76.3123 31.7947 76.6942 34.1405 76.9818ZM55.1982 76.9868C57.4597 76.7091 59.7063 76.3222 61.9281 75.8263C61.2437 73.659 60.4601 71.5215 59.5724 69.4286C58.2383 72.0175 56.7802 74.5418 55.1982 76.9868ZM59.1707 95.1581C59.984 95.1581 60.7031 94.9746 61.3082 94.6324C64.3136 92.9015 64.8442 86.8659 62.7712 78.7424C59.5476 79.4615 56.2843 79.9724 52.9962 80.26L52.9863 80.2699H52.9813C51.0918 82.9678 49.0237 85.5368 46.792 87.957C51.5084 92.5544 55.9719 95.1581 59.1707 95.1581ZM30.1631 95.1482C33.3173 95.1482 37.8403 92.5494 42.5616 87.957C40.3299 85.5269 38.2568 82.9579 36.3524 80.265H36.3475L36.3425 80.26C33.0544 79.9674 29.7911 79.4615 26.5725 78.7424C24.5044 86.8709 25.0351 92.9015 28.0355 94.6324C28.6505 94.9845 29.3597 95.1482 30.1631 95.1482ZM44.6743 80.6468C43.2311 80.6468 41.7681 80.6072 40.2952 80.5377C41.664 82.3479 43.127 84.0887 44.6694 85.7649C46.2068 84.0887 47.6698 82.3529 49.0436 80.5377C47.5706 80.6072 46.1125 80.6468 44.6743 80.6468ZM30.0937 30.6411C28.2388 30.6411 26.5378 31.0775 25.045 31.9454C19.8674 34.9211 18.1564 41.899 20.1352 51.7384C10.6131 54.9521 5.41563 59.9215 5.41563 65.8876C5.41563 71.8538 10.6131 76.8182 20.1302 80.0319C18.1564 89.8713 19.8723 96.8492 25.0549 99.8298C26.5973 100.703 28.3281 101.159 30.0788 101.159H30.1829C34.4778 101.159 39.4471 98.7537 44.6743 94.1761C49.9065 98.7537 54.8808 101.159 59.1707 101.159H59.2798C61.0305 101.159 62.7613 100.703 64.2838 99.8398C69.4714 96.8542 71.1873 89.8763 69.2184 80.0368C78.7405 76.8231 83.938 71.8538 83.938 65.8876C83.938 59.9215 78.7405 54.9521 69.2234 51.7384C71.1923 41.9039 69.4813 34.926 64.3037 31.9454C62.8109 31.0825 61.1148 30.6461 59.2599 30.6461C54.9155 30.6461 49.9115 33.0415 44.6793 37.6041C39.4422 33.0415 34.4381 30.6411 30.0937 30.6411ZM50.9579 44.0315C54.7568 40.793 57.6878 39.5928 59.1707 39.5928C59.4534 39.5928 59.6716 39.6375 59.8104 39.7168C60.6337 40.1929 61.695 43.1785 60.4998 49.5265C58.5805 49.1744 56.6166 48.8917 54.6229 48.6834C53.4723 47.0964 52.2424 45.5441 50.9579 44.0315ZM28.8488 49.5265C27.6536 43.1785 28.71 40.1929 29.5283 39.7218C29.7118 39.6176 29.9845 39.5928 30.178 39.5928C31.7303 39.5928 34.6067 40.798 38.3907 44.0315C37.1112 45.5342 35.8813 47.0865 34.7208 48.6785C32.7767 48.8818 30.8128 49.1645 28.8488 49.5265ZM39.6802 57.2731C41.3416 57.174 43.0129 57.1244 44.6694 57.1244C46.3258 57.1244 47.9971 57.174 49.6585 57.2731C51.4836 60.0355 53.1549 62.9219 54.6378 65.8876C53.15 68.8484 51.4786 71.7348 49.6536 74.5021C47.9773 74.6013 46.3308 74.6509 44.6644 74.6509C42.998 74.6509 41.3565 74.6013 39.6752 74.5021C37.8551 71.7298 36.1838 68.8434 34.691 65.8827C36.1888 62.9219 37.8551 60.0355 39.6802 57.2731ZM64.5715 65.8926C65.3749 64.0874 66.1089 62.2474 66.7734 60.3877C72.8884 62.5351 74.9515 64.9454 74.9515 65.8876C74.9515 66.8299 72.8884 69.2402 66.7784 71.3827C66.1337 69.5923 65.3997 67.7573 64.5715 65.8926ZM22.5752 71.3827C16.4652 69.2402 14.4021 66.8299 14.4021 65.8876C14.4021 64.9454 16.4652 62.5301 22.5752 60.3877C23.2348 62.2474 23.9737 64.0874 24.7722 65.8926C23.9688 67.6929 23.2348 69.5328 22.5752 71.3827ZM54.6229 83.0918C56.567 82.8835 58.5359 82.6009 60.5048 82.2388C61.7049 88.5918 60.6436 91.5823 59.8204 92.0584C59.6765 92.1427 59.4484 92.1874 59.1707 92.1874C57.6233 92.1874 54.7419 90.9823 50.9579 87.7438C52.2374 86.2411 53.4624 84.6838 54.6229 83.0918ZM30.1631 92.1725C29.8804 92.1725 29.6572 92.1279 29.5184 92.0485C28.7149 91.5823 27.6536 88.5918 28.8488 82.2388C30.7929 82.5959 32.7569 82.8835 34.7208 83.0918C35.8813 84.6788 37.1112 86.2311 38.3907 87.7338C34.5819 90.9723 31.6459 92.1725 30.1631 92.1725Z" fill="#00E0FF"/>
<path d="M210.976 33.7394H208V37.2407H210.976V33.7394Z" fill="#7BD779"/>
<path d="M297.359 88.7541H294.383V24.5595C294.383 23.1361 293.222 21.9756 291.799 21.9756H213.559C212.136 21.9756 210.976 23.1361 210.976 24.5595H208C208 21.4946 210.495 19 213.559 19H291.799C294.864 19 297.359 21.4946 297.359 24.5595V88.7541Z" fill="#7BD779"/>
<path d="M291.799 108.359H213.559C210.495 108.359 208 105.864 208 102.799V43.5938H210.976V102.799C210.976 104.223 212.131 105.383 213.559 105.383H291.799V108.359Z" fill="#7BD779"/>
<path d="M297.359 95.9303H294.383V99.4316H297.359V95.9303Z" fill="#7BD779"/>
<path d="M242.255 96.0742C242.076 96.0742 241.898 96.0444 241.724 95.975L239.651 95.1865C238.947 94.9187 238.55 94.1648 238.738 93.4308C238.783 93.2473 239.829 89.136 240.787 85.9421C239.453 83.7054 232.762 71.5251 236.08 57.361C238.495 47.0604 245.612 38.2822 257.242 31.2696C257.257 31.2597 257.272 31.2547 257.287 31.2448C261.348 28.9833 265.013 26.5631 265.693 26.082C266.099 25.7944 266.62 25.725 267.081 25.9035L267.181 25.9432C267.657 26.1217 268.009 26.5334 268.108 27.0343C268.282 27.8774 269.422 32.0532 270.95 36.4472C270.955 36.4621 270.96 36.477 270.965 36.4968C274.997 49.4805 274.481 60.783 269.437 70.0869C262.499 82.8772 249.411 87.5143 247.001 88.2731C245.592 91.3231 243.663 95.0972 243.574 95.2658C243.316 95.7717 242.8 96.0742 242.255 96.0742ZM243.574 87.0084C243.217 88.2036 242.85 89.5278 242.532 90.7081C243.078 89.6022 243.683 88.3524 244.219 87.2068C243.99 87.1919 243.767 87.1225 243.574 87.0084ZM257.659 49.183C257.837 49.183 258.016 49.2127 258.189 49.2822C258.933 49.5649 259.32 50.3832 259.072 51.137L247.993 84.732C252.218 83.026 261.596 78.3294 266.843 68.6288C271.475 60.0689 271.907 49.5599 268.138 37.3945C267.091 34.3841 266.233 31.5126 265.713 29.6379C264.066 30.6993 261.492 32.3012 258.76 33.8286C247.854 40.4098 241.198 48.5581 238.976 58.0405C236.517 68.5346 240.157 78.0567 242.225 82.3118L256.295 50.0757C256.538 49.5202 257.083 49.183 257.659 49.183ZM244.933 83.5567C244.962 83.631 244.992 83.7054 245.022 83.7798C245.081 83.7501 245.146 83.7154 245.205 83.6806L246.227 80.5909L244.933 83.5567Z" fill="#7BD779"/>
<path d="M106.976 14.077H104V17.5784H106.976V14.077Z" fill="#0885AC"/>
<path d="M193.359 70.0887H190.383V5.8941C190.383 4.47075 189.222 3.31024 187.799 3.31024H109.559C108.136 3.31024 106.976 4.46579 106.976 5.8941H104C104 2.82918 106.495 0.334595 109.559 0.334595H187.799C190.864 0.334595 193.359 2.82918 193.359 5.8941V70.0887Z" fill="#0885AC"/>
<path d="M187.799 89.6932H109.559C106.495 89.6932 104 87.1986 104 84.1337V24.9282H106.976V84.1337C106.976 85.557 108.131 86.7175 109.559 86.7175H187.799V89.6932Z" fill="#0885AC"/>
<path d="M193.359 77.265H190.383V80.7664H193.359V77.265Z" fill="#0885AC"/>
<path d="M117.772 11.0569C120.45 11.0569 123.729 12.8572 125.37 13.8987C126.01 14.3103 126.739 15.1733 127.468 15.4956C128.609 15.5403 129.749 15.6345 130.885 15.6791C133.027 16.18 135.031 16.5916 136.722 17.5488C144.563 22.1511 149.666 26.8477 154.363 34.5993C155.365 36.2408 155.865 38.0163 156.689 39.7967C157.829 42.4401 159.104 45.2223 160.428 47.7268C161.018 48.9121 161.475 50.2363 162.298 51.2381C162.615 51.6944 163.528 51.8283 164.073 52.106C165.576 52.8797 167.401 53.4748 168.814 54.3873C171.458 56.0289 174.012 57.9879 176.338 59.9964C177.206 60.7701 177.796 61.8661 178.619 62.6844V63.096C177.89 63.3242 177.161 63.5523 176.432 63.7358C174.835 64.1474 173.422 64.0532 171.874 64.4648C170.917 64.7376 169.732 65.1046 168.73 65.1939C168.775 65.2385 168.819 65.2831 168.819 65.2831C169.41 66.9693 172.603 68.3381 174.062 69.3399C175.842 70.6145 177.479 72.1668 178.803 73.9423C179.259 74.3985 179.715 74.8102 180.172 75.2664C180.489 75.7227 180.583 76.3129 180.901 76.7245V76.8634C180.261 76.6352 179.943 76.0451 179.443 75.6781C178.441 74.9937 177.439 74.1754 176.432 73.5356C174.701 72.4396 172.693 71.8048 170.917 70.7087C169.915 70.069 168.958 69.3399 168.001 68.6109C167.133 67.9711 166.176 66.7412 165.631 65.8287C165.313 65.3278 165.264 64.7326 164.902 64.3706C164.991 63.5027 166.087 63.5027 166.771 63.2299C168.909 62.3273 171.418 61.9405 174.567 61.9405C174.91 61.9405 175.257 61.9454 175.614 61.9554C175.475 61.0428 173.199 59.9022 172.47 59.3566C171.012 58.3102 169.459 57.2142 167.912 56.257C167.094 55.7561 165.68 55.3891 164.768 54.9824C163.538 54.4815 160.8 53.9806 160.116 53.0235C158.747 51.243 157.834 49.056 156.877 46.9135C155.92 44.7264 154.735 42.4451 153.778 40.2133C153.277 39.1173 153.049 38.1601 152.503 37.1137C149.175 30.6863 144.251 25.3053 138.279 21.5213C136.32 20.2914 134.133 19.1507 131.713 18.377C130.344 17.9654 128.703 18.1935 127.245 17.8761H126.288C125.469 17.648 124.785 16.7801 124.145 16.3238C122.732 15.3667 121.318 14.7269 119.632 14.0425C119.196 13.8441 118.174 13.4474 117.425 13.4474C117.152 13.4474 116.914 13.5019 116.756 13.6358C116.389 13.7251 116.21 13.864 116.116 14.226C115.749 14.7716 116.071 15.5948 116.299 16.0957C116.984 17.5538 117.941 18.4217 118.809 19.6516C119.582 20.7476 120.54 21.9776 121.09 23.1629C122.275 25.717 122.821 28.5438 123.917 31.093C124.329 32.0501 124.963 33.1462 125.559 34.0091C126.059 34.6935 126.972 35.1944 127.245 36.0623C127.79 36.9748 126.426 39.9802 126.104 40.9424C124.919 44.6817 125.147 49.8792 126.516 53.1128C127.061 54.3873 127.562 55.895 129.025 56.257C129.114 56.1677 129.025 56.2124 129.209 56.1677C129.526 53.6583 129.62 51.243 130.483 49.2841C130.984 48.0541 131.986 47.1863 132.67 46.1845C133.127 46.4572 133.127 47.2805 133.399 47.826C133.99 49.2394 134.629 50.7868 135.358 52.2002C136.861 55.1164 138.547 57.9432 140.462 60.4973C141.101 61.4098 142.014 62.4116 142.832 63.2349C143.199 63.5523 143.606 63.7358 143.879 64.1474H143.968V64.2863C142.599 63.7854 141.736 62.372 140.64 61.5487C138.587 59.9964 136.127 57.6754 134.714 55.4387C134.123 54.1641 133.484 52.9292 132.844 51.6547C132.844 51.6547 132.844 51.6101 132.844 51.5654C132.571 51.9324 132.66 52.2944 132.527 52.84C131.936 55.1213 132.388 57.72 130.339 58.5383C129.977 58.6871 129.635 58.7516 129.303 58.7516C127.503 58.7516 126.169 56.8125 125.554 55.8503C123.228 52.0663 122.593 45.6835 124.229 40.5357C124.596 39.395 124.641 38.0262 125.276 37.1187C125.137 36.3004 124.502 36.0722 124.135 35.5664C123.495 34.6985 122.95 33.6967 122.449 32.7395C121.492 30.8698 120.807 28.6381 120.078 26.6295C119.761 25.8112 119.667 24.9879 119.349 24.2143C118.804 23.029 117.802 21.8437 117.023 20.7972C115.977 19.2945 112.922 16.3734 114.152 13.4127C114.861 11.667 116.215 11.0569 117.772 11.0569ZM117.772 8.0813C114.811 8.0813 112.49 9.6088 111.404 12.272C109.718 16.3387 112.52 19.8599 114.028 21.7544C114.251 22.0371 114.464 22.3049 114.588 22.4834C114.603 22.5082 114.623 22.5281 114.638 22.5529C114.811 22.786 114.995 23.029 115.183 23.2769C115.744 24.0109 116.324 24.7648 116.622 25.3896C116.696 25.588 116.765 25.8509 116.84 26.1534C116.954 26.5997 117.083 27.1056 117.296 27.6611C117.465 28.1173 117.628 28.5885 117.792 29.0646C118.377 30.7408 118.982 32.4766 119.806 34.0835C119.811 34.0934 119.816 34.0984 119.82 34.1083C120.341 35.1051 120.966 36.2607 121.75 37.317C121.799 37.3815 121.849 37.446 121.898 37.5055C121.784 37.9122 121.705 38.3089 121.631 38.6709C121.556 39.028 121.487 39.3653 121.408 39.6132C119.538 45.4852 120.202 52.7953 123.029 57.3927C123.039 57.4076 123.049 57.4225 123.059 57.4374C123.733 58.4937 125.797 61.7124 129.318 61.7124C130.047 61.7124 130.771 61.5685 131.47 61.2809C132.621 60.8197 133.394 60.1055 133.92 59.3021C135.864 61.5685 138.076 63.3192 138.86 63.9094C139.083 64.078 139.37 64.3706 139.673 64.6781C140.467 65.4964 141.458 66.5131 142.961 67.0636C143.293 67.1876 143.641 67.2471 143.988 67.2471C144.588 67.2471 145.183 67.0636 145.694 66.7114C146.492 66.156 146.963 65.2435 146.963 64.2714V64.1326C146.963 63.1456 146.482 62.2728 145.748 61.7322C145.451 61.4446 145.168 61.2412 144.965 61.0974C144.93 61.0726 144.89 61.0478 144.856 61.0181C144.037 60.1948 143.353 59.4013 142.916 58.7813C142.897 58.7566 142.877 58.7268 142.857 58.702C141.176 56.4603 139.589 53.8815 138.017 50.8265C137.397 49.6213 136.831 48.2773 136.286 46.973L136.157 46.6606C136.142 46.6258 136.127 46.5911 136.112 46.5614C136.092 46.5018 136.077 46.4374 136.063 46.3729C135.894 45.7381 135.537 44.4139 134.218 43.6204C133.742 43.3328 133.211 43.1989 132.69 43.1939C131.738 43.1939 130.806 43.6502 130.23 44.4933C130.072 44.7264 129.843 44.9992 129.605 45.2868C129.209 45.7629 128.747 46.3134 128.341 46.9829C128.286 45.1826 128.49 43.3377 128.956 41.8499C129 41.7259 129.09 41.4879 129.179 41.2548C130.151 38.7255 130.83 36.6277 130.002 34.8621C129.571 33.7462 128.812 33.0321 128.296 32.5461C128.192 32.4469 128.048 32.313 127.989 32.2435C127.463 31.4649 126.962 30.5772 126.674 29.9077C126.223 28.8563 125.866 27.7106 125.484 26.4956C125.013 24.9929 124.527 23.4356 123.813 21.8933C123.247 20.6683 122.414 19.5177 121.68 18.501C121.581 18.3622 121.482 18.2283 121.388 18.0943C121.755 18.2977 122.107 18.5109 122.454 18.744C122.533 18.8035 122.692 18.9523 122.816 19.0565C123.436 19.6169 124.284 20.3806 125.514 20.7228C125.772 20.7972 126.04 20.832 126.312 20.832H126.982C127.78 20.9758 128.544 21.0055 129.228 21.0353C129.873 21.065 130.478 21.0898 130.865 21.1989C132.755 21.809 134.669 22.7314 136.722 24.0208C142.257 27.5272 146.81 32.5213 149.884 38.4577C150.108 38.8842 150.271 39.3256 150.46 39.8364C150.628 40.2976 150.822 40.8233 151.085 41.3937C151.61 42.6186 152.196 43.8387 152.761 45.024C153.267 46.0902 153.748 47.092 154.179 48.0839L154.452 48.6989C155.37 50.762 156.317 52.8945 157.76 54.7841C158.841 56.2471 160.805 56.8323 162.541 57.353C162.962 57.477 163.394 57.606 163.632 57.7002C164.083 57.8986 164.564 58.0722 165.03 58.2358C165.477 58.3945 166.146 58.6326 166.384 58.7764C166.87 59.0789 167.361 59.3914 167.842 59.7137C167.094 59.9171 166.384 60.1551 165.7 60.4428C165.631 60.4676 165.551 60.4824 165.472 60.5023C163.334 61.0577 162.154 62.248 161.966 64.0383C161.886 64.7922 162.095 65.5361 162.546 66.1362C162.551 66.1461 162.556 66.1609 162.561 66.1709C162.67 66.4635 162.833 66.8999 163.126 67.3711C163.81 68.5068 164.981 70.0342 166.246 70.9716C167.227 71.7204 168.249 72.4941 169.35 73.1984C169.365 73.2083 169.375 73.2132 169.39 73.2232C170.416 73.853 171.438 74.3241 172.43 74.7804C173.323 75.192 174.161 75.5789 174.88 76.0302C175.356 76.3327 175.872 76.7146 176.417 77.1213C176.834 77.4287 177.26 77.7461 177.702 78.0487C177.736 78.0834 177.801 78.1478 177.846 78.1974C178.232 78.5992 178.877 79.2687 179.934 79.6456C180.261 79.7597 180.598 79.8192 180.935 79.8192C181.54 79.8192 182.14 79.6357 182.651 79.2736C183.44 78.7182 183.911 77.8106 183.911 76.8435V76.7047C183.911 76.0996 183.727 75.5094 183.385 75.0135C183.365 74.9639 183.346 74.9143 183.326 74.8647C183.197 74.5374 182.998 74.0464 182.646 73.5406C182.547 73.3967 182.433 73.2678 182.314 73.1438C182.066 72.8958 181.818 72.6627 181.575 72.4247C181.411 72.271 181.253 72.1172 181.089 71.9585C179.661 70.0789 177.89 68.3778 175.837 66.8999C175.827 66.89 175.812 66.885 175.802 66.8751C176.249 66.8106 176.72 66.7214 177.216 66.5924C178.009 66.394 178.793 66.151 179.552 65.913C180.791 65.5261 181.64 64.3756 181.64 63.0712V62.6596C181.64 61.8711 181.327 61.1123 180.767 60.5568C180.534 60.3237 180.276 59.9865 180.003 59.6245C179.557 59.0343 179.051 58.3648 178.366 57.7547C178.351 57.7448 178.342 57.7299 178.327 57.72C175.649 55.4089 172.995 53.4301 170.451 51.8481C169.39 51.1687 168.264 50.6826 167.173 50.2115C166.563 49.9486 165.983 49.6957 165.482 49.4428C165.472 49.4378 165.462 49.4329 165.452 49.4279C165.09 49.2444 164.733 49.1254 164.445 49.0262C164.435 49.0212 164.425 49.0212 164.42 49.0163C164.163 48.6046 163.92 48.069 163.662 47.5037C163.498 47.1416 163.329 46.7647 163.136 46.3828C163.126 46.363 163.116 46.3431 163.106 46.3283C161.98 44.1908 160.755 41.592 159.466 38.6065C159.456 38.5817 159.446 38.5618 159.436 38.537C159.173 37.9617 158.94 37.3765 158.692 36.7516C158.216 35.5465 157.72 34.2967 156.952 33.0371C152.151 25.1119 146.914 20.0434 138.279 14.9749C138.265 14.965 138.255 14.96 138.24 14.955C136.325 13.8689 134.208 13.378 132.164 12.9068L131.614 12.7779C131.43 12.7332 131.242 12.7084 131.054 12.7035C130.513 12.6836 129.972 12.6489 129.402 12.6142C129.095 12.5944 128.787 12.5795 128.475 12.5596C128.38 12.4803 128.286 12.396 128.207 12.3266C127.865 12.024 127.478 11.6868 127.031 11.3942C125.008 10.1494 121.224 8.0813 117.772 8.0813Z" fill="#0885AC"/>
<path d="M129.109 22.3296C128.336 22.3296 127.785 22.4189 127.24 22.5577C127.24 22.5577 127.24 22.6023 127.24 22.647H127.329C127.696 23.376 128.331 23.8769 128.787 24.5167C129.154 25.2457 129.472 25.9748 129.834 26.7038C129.878 26.6592 129.923 26.6145 129.923 26.6145C130.563 26.1582 130.88 25.4292 130.88 24.3332C130.607 24.0158 130.563 23.6934 130.334 23.376C130.067 22.9198 129.471 22.6966 129.109 22.3296Z" fill="#0885AC"/>
</svg>
