<svg width="85" height="57" viewBox="0 0 85 57" fill="none" xmlns="http://www.w3.org/2000/svg">
<path d="M42.2184 22.9594L20.9174 37.5268L21.6237 38.6337L42.9247 24.0663L42.2184 22.9594Z" fill="black"/>
<path d="M43.4816 25.1603C44.291 24.6068 44.514 23.4786 43.9793 22.6407C43.4446 21.8027 42.3549 21.5719 41.5455 22.1255C40.736 22.679 40.5131 23.8071 41.0478 24.6451C41.5825 25.483 42.6722 25.7138 43.4816 25.1603Z" fill="black"/>
<path d="M31.9662 13.6739L10.6652 28.2413L11.3715 29.3482L32.6725 14.7808L31.9662 13.6739Z" fill="black"/>
<path d="M32.941 15.7031C33.7504 15.1496 33.9734 14.0215 33.4387 13.1835C32.904 12.3456 31.8143 12.1148 31.0049 12.6683C30.1955 13.2218 29.9725 14.35 30.5072 15.1879C31.0419 16.0259 32.1316 16.2566 32.941 15.7031Z" fill="black"/>
<path d="M55.0878 7.00976L33.7868 21.5771L34.4931 22.684L55.7941 8.11665L55.0878 7.00976Z" fill="black"/>
<path d="M33.113 20.6705C32.3036 21.2241 32.0807 22.3522 32.6154 23.1901C33.15 24.0281 34.2397 24.2589 35.0492 23.7054C35.8586 23.1518 36.0815 22.0237 35.5468 21.1858C35.0122 20.3478 33.9225 20.117 33.113 20.6705Z" fill="black"/>
<path d="M2.66273 40.7385C2.66273 40.7385 7.5444 46.3049 16.8649 42.1303L0 56.7429L2.66273 40.7385Z" fill="black"/>
<path d="M65.9401 21.0967L68.8649 25.1067L60.9262 56.7428L53.4054 34.4642V29.5631C53.4045 29.5622 65.1044 23.3244 65.9401 21.0967Z" fill="black"/>
<path d="M51.9658 31.2813C51.9658 31.2813 48.5382 33.8706 40.8251 37.3228L36.5405 56.7429L54.1081 42.9328L51.5374 36.4598L51.9658 31.2813Z" fill="black"/>
<path d="M72.816 18.7758L80.0623 12.2808L84.3243 1.45496H77.5051L70.2588 5.78583L58.3243 14.8788L71.5374 19.6418L72.816 18.7758Z" fill="black"/>
<path d="M11.4612 45.1033C9.56609 45.1033 7.65326 45.013 5.72003 44.8203L2.10809 44.4598L2.67565 40.7338C2.82729 39.7345 6.60949 16.1381 24.5663 5.26402C35.8429 -1.56407 49.9643 -1.75029 66.5386 4.70999C65.2456 8.29503 61.5299 10.2816 57.9827 9.24914C46.1431 5.80422 36.0921 6.51219 28.0399 11.3712C16.8441 18.1283 12.0429 31.4241 10.2862 37.9922C10.6462 37.9996 11.0089 38.0033 11.3681 38.0033C30.9752 38.0033 48.6252 26.9172 57.033 20.6514C60.0756 18.3846 64.2684 18.8594 66.7567 21.7659C65.6651 22.7753 41.185 45.1033 11.4612 45.1033Z" fill="black"/>
</svg>
