<?xml version="1.0" encoding="utf-8"?>
<!-- Generator: Adobe Illustrator 24.0.1, SVG Export Plug-In . SVG Version: 6.00 Build 0)  -->
<svg version="1.1" id="Capa_1" xmlns="http://www.w3.org/2000/svg" xmlns:xlink="http://www.w3.org/1999/xlink" x="0px" y="0px"
	 viewBox="0 0 74.41 69.85" style="enable-background:new 0 0 74.41 69.85;" xml:space="preserve">
<style type="text/css">
	.st0{stroke:#000000;stroke-width:0.5;stroke-linecap:round;stroke-linejoin:round;stroke-miterlimit:10;}
	.st1{fill:none;}
</style>
<g>
	<path d="M31.92,34.46l-1.94,5.91h-2.5l6.36-18.78h2.92l6.39,18.78h-2.58l-2-5.91H31.92z M38.05,32.57l-1.83-5.41
		c-0.42-1.23-0.69-2.34-0.97-3.43h-0.05c-0.28,1.11-0.58,2.26-0.94,3.4l-1.83,5.43H38.05z"/>
	<path d="M48.44,23.1c0.03,0.84-0.58,1.5-1.56,1.5c-0.86,0-1.47-0.67-1.47-1.5c0-0.86,0.64-1.53,1.53-1.53
		C47.86,21.56,48.44,22.23,48.44,23.1z M45.72,40.37V26.89h2.44v13.48H45.72z"/>
</g>
<g>
	<g>
		<polygon class="st1" points="33.71,27.06 33.71,27.06 33.71,27.06 		"/>
	</g>
	<g>
		<polygon class="st1" points="26.09,19.44 26.09,19.44 26.09,19.44 		"/>
	</g>
	<g>
		<path d="M57.06,13.12h-36c-1.1,0-2,0.9-2,2v36c0,1.1,0.9,2,2,2h3c0.55,0,1-0.45,1-1c0-0.55-0.45-1-1-1h-3v-36h36v36h-3
			c-0.55,0-1,0.45-1,1c0,0.55,0.45,1,1,1h3c1.1,0,2-0.9,2-2v-36C59.06,14.02,58.16,13.12,57.06,13.12z"/>
	</g>
	<g>
		<path d="M62.06,7.12h-46c-1.65,0-3,1.35-3,3v46c0,1.65,1.35,3,3,3h46c1.65,0,3-1.35,3-3v-46C65.06,8.47,63.71,7.12,62.06,7.12z
			 M63.06,56.12c0,0.55-0.45,1-1,1h-46c-0.55,0-1-0.45-1-1v-46c0-0.55,0.45-1,1-1h46c0.55,0,1,0.45,1,1V56.12z"/>
	</g>
</g>
<g>
	<path d="M41.99,48.3c0.17,0.29,0.48,0.49,0.84,0.49c0.54,0,0.97-0.43,0.97-0.97s-0.43-0.97-0.97-0.97c-0.36,0-0.67,0.2-0.84,0.49
		h-1.11v-0.97c0-0.27-0.22-0.49-0.49-0.49h-2.91c-0.27,0-0.49,0.22-0.49,0.49v0.97h-1.11c-0.17-0.29-0.48-0.49-0.84-0.49
		c-0.54,0-0.97,0.43-0.97,0.97s0.43,0.97,0.97,0.97c0.36,0,0.67-0.2,0.84-0.49H37v0.18c-1.39,0.71-1.79,2.02-1.9,2.73h-0.53
		c-0.27,0-0.49,0.22-0.49,0.49v1.94c0,0.27,0.22,0.49,0.49,0.49h1.94c0.27,0,0.49-0.22,0.49-0.49V51.7c0-0.27-0.22-0.49-0.49-0.49
		h-0.43c0.1-0.47,0.35-1.17,1.01-1.66c0.09,0.13,0.23,0.2,0.38,0.2h2.91c0.15,0,0.3-0.08,0.38-0.2c0.67,0.49,0.92,1.19,1.01,1.66
		h-0.43c-0.27,0-0.49,0.22-0.49,0.49v1.94c0,0.27,0.22,0.49,0.49,0.49h1.94c0.27,0,0.49-0.22,0.49-0.49V51.7
		c0-0.27-0.22-0.49-0.49-0.49h-0.53c-0.11-0.71-0.51-2.02-1.9-2.73V48.3H41.99z M39.91,48.79h-1.94v-1.94h1.94V48.79z"/>
</g>
</svg>
