<?xml version="1.0" encoding="utf-8"?>
<!-- Generator: Adobe Illustrator 24.0.1, SVG Export Plug-In . SVG Version: 6.00 Build 0)  -->
<svg version="1.1" id="Capa_1" xmlns="http://www.w3.org/2000/svg" xmlns:xlink="http://www.w3.org/1999/xlink" x="0px" y="0px"
	 viewBox="0 0 74.41 69.85" style="enable-background:new 0 0 74.41 69.85;" xml:space="preserve">
<style type="text/css">
	.st0{stroke:#000000;stroke-width:0.5;stroke-linecap:round;stroke-linejoin:round;stroke-miterlimit:10;}
	.st1{fill:none;}
</style>
<g>
	<path d="M14,6c-1.65,0-3,1.35-3,3v46c0,1.65,1.35,3,3,3h46c1.65,0,3-1.35,3-3V9c0-1.65-1.35-3-3-3H14z M14,8h46c0.55,0,1,0.45,1,1
		v46c0,0.55-0.45,1-1,1H14c-0.55,0-1-0.45-1-1V9C13,8.45,13.45,8,14,8z M19,12c-1.1,0-2,0.9-2,2v36c0,1.1,0.9,2,2,2h3
		c0.55,0,1-0.45,1-1s-0.45-1-1-1h-3V14h36v36h-3c-0.55,0-1,0.45-1,1s0.45,1,1,1h3c1.1,0,2-0.9,2-2V14c0-1.1-0.9-2-2-2H19z"/>
</g>
<g>
	<path d="M26.05,21.58c1.17-0.19,2.69-0.36,4.64-0.36c2.39,0,4.14,0.56,5.25,1.56c1.03,0.89,1.64,2.26,1.64,3.93
		c0,1.7-0.5,3.04-1.44,4.01c-1.28,1.37-3.36,2.06-5.72,2.06c-0.72,0-1.39-0.03-1.94-0.17v7.52h-2.42V21.58z M28.47,30.64
		c0.53,0.14,1.19,0.19,2,0.19c2.92,0,4.69-1.42,4.69-4.01c0-2.48-1.75-3.68-4.42-3.68c-1.05,0-1.86,0.08-2.28,0.19V30.64z"/>
	<path d="M39.8,37.63c0.72,0.47,2,0.98,3.22,0.98c1.78,0,2.61-0.89,2.61-2.01c0-1.17-0.69-1.81-2.5-2.48
		c-2.42-0.86-3.55-2.2-3.55-3.82c0-2.17,1.75-3.96,4.64-3.96c1.36,0,2.55,0.39,3.3,0.84l-0.61,1.78c-0.53-0.33-1.5-0.78-2.75-0.78
		c-1.44,0-2.25,0.84-2.25,1.84c0,1.11,0.81,1.62,2.55,2.29C46.8,33.2,48,34.37,48,36.38c0,2.37-1.83,4.04-5.03,4.04
		c-1.47,0-2.83-0.36-3.78-0.92L39.8,37.63z"/>
</g>
<g>
	<g>
		<path d="M44.45,45.4c-0.09,0.14-0.23,0.21-0.35,0.31c-0.5,0.39-1.01,0.78-1.51,1.16c-0.59,0.46-1.19,0.91-1.78,1.37
			c-0.59,0.46-1.19,0.91-1.78,1.37c-0.43,0.33-0.87,0.66-1.31,0.97c-0.27,0.19-0.56,0.36-0.87,0.48c-0.25,0.09-0.52,0.16-0.78,0.23
			c-0.28,0.08-0.56,0.16-0.84,0.23c-0.11,0.03-0.17-0.02-0.18-0.13c0-0.48-0.22-0.84-0.62-1.09c-0.18-0.11-0.18-0.14-0.04-0.3
			c0.34-0.36,0.68-0.71,1.03-1.06c0.08-0.08,0.18-0.14,0.27-0.2c0.63-0.38,1.3-0.71,1.98-1c0.85-0.36,1.7-0.73,2.55-1.09
			c0.85-0.36,1.7-0.72,2.55-1.08c0.39-0.16,0.77-0.33,1.16-0.49c0.09-0.04,0.19-0.04,0.29-0.06c0.03,0.01,0.06,0.02,0.09,0.02
			c0.11,0.06,0.14,0.15,0.16,0.27C44.47,45.34,44.46,45.37,44.45,45.4z"/>
	</g>
	<g>
		<path d="M29.55,52.56c0.04-0.02,0.08-0.04,0.12-0.05c0.34-0.05,0.67-0.11,0.97-0.27c0.36-0.19,0.62-0.47,0.86-0.78
			c0.11-0.15,0.22-0.3,0.34-0.44c0.16-0.19,0.35-0.34,0.57-0.43c0.38-0.15,0.77-0.16,1.16,0.01c0.5,0.21,0.79,0.6,0.83,1.14
			c0.04,0.56-0.22,1.13-0.8,1.41c-0.36,0.17-0.73,0.23-1.12,0.24c-0.46,0.01-0.9-0.06-1.34-0.17c-0.33-0.08-0.65-0.18-0.98-0.27
			c-0.16-0.05-0.32-0.11-0.49-0.16c-0.07-0.02-0.12-0.06-0.14-0.13C29.53,52.62,29.54,52.59,29.55,52.56z"/>
	</g>
</g>
</svg>
