<?xml version="1.0" encoding="utf-8"?>
<!-- Generator: Adobe Illustrator 24.0.1, SVG Export Plug-In . SVG Version: 6.00 Build 0)  -->
<svg version="1.1" id="Capa_1" xmlns="http://www.w3.org/2000/svg" xmlns:xlink="http://www.w3.org/1999/xlink" x="0px" y="0px"
	 viewBox="0 0 74.41 69.85" style="enable-background:new 0 0 74.41 69.85;" xml:space="preserve">
<style type="text/css">
	.st0{stroke:#000000;stroke-width:0.5;stroke-linecap:round;stroke-linejoin:round;stroke-miterlimit:10;}
	.st1{fill:none;}
</style>
<g>
	<path d="M29.04,21.57c1.13-0.19,2.61-0.35,4.49-0.35c2.31,0,4.01,0.54,5.08,1.51c1,0.86,1.59,2.19,1.59,3.81
		c0,1.65-0.48,2.94-1.4,3.89c-1.24,1.32-3.25,2-5.54,2c-0.7,0-1.34-0.03-1.88-0.16v7.29h-2.34V21.57z M31.38,30.34
		c0.51,0.13,1.16,0.19,1.94,0.19c2.82,0,4.55-1.38,4.55-3.89c0-2.4-1.7-3.56-4.28-3.56c-1.02,0-1.8,0.08-2.21,0.19V30.34z"/>
	<path d="M42.85,30.56c0-1.54-0.03-2.86-0.11-4.08h2.07l0.08,2.56H45c0.59-1.75,2.02-2.86,3.6-2.86c0.27,0,0.46,0.03,0.67,0.08v2.24
		c-0.24-0.05-0.48-0.08-0.81-0.08c-1.67,0-2.85,1.27-3.17,3.05c-0.05,0.32-0.11,0.7-0.11,1.11v6.96h-2.34V30.56z"/>
</g>
<g>
	<g>
		<polygon class="st1" points="32.66,25.95 32.66,25.95 32.66,25.95 		"/>
	</g>
	<g>
		<path class="st1" d="M61,8H15c-0.55,0-1,0.45-1,1v46c0,0.55,0.45,1,1,1h46c0.55,0,1-0.45,1-1V9C62,8.45,61.55,8,61,8z
			 M50.35,51.41c0,1.17-0.95,2.12-2.12,2.12H27.15c-1.17,0-2.12-0.95-2.12-2.12v-0.79c0-1.17,0.95-2.12,2.12-2.12h21.09
			c1.17,0,2.12,0.95,2.12,2.12V51.41z M58,50c0,1.1-0.9,2-2,2h-3c-0.55,0-1-0.45-1-1c0-0.55,0.45-1,1-1h3V14H20v36h3
			c0.55,0,1,0.45,1,1c0,0.55-0.45,1-1,1h-3c-1.1,0-2-0.9-2-2V14c0-1.1,0.9-2,2-2h36c1.1,0,2,0.9,2,2V50z"/>
	</g>
	<g>
		<polygon class="st1" points="25.03,18.32 25.03,18.32 25.03,18.32 		"/>
	</g>
	<g>
		<path d="M56,12H20c-1.1,0-2,0.9-2,2v36c0,1.1,0.9,2,2,2h3c0.55,0,1-0.45,1-1c0-0.55-0.45-1-1-1h-3V14h36v36h-3c-0.55,0-1,0.45-1,1
			c0,0.55,0.45,1,1,1h3c1.1,0,2-0.9,2-2V14C58,12.9,57.1,12,56,12z"/>
	</g>
	<g>
		<path d="M61,6H15c-1.65,0-3,1.35-3,3v46c0,1.65,1.35,3,3,3h46c1.65,0,3-1.35,3-3V9C64,7.35,62.65,6,61,6z M62,55
			c0,0.55-0.45,1-1,1H15c-0.55,0-1-0.45-1-1V9c0-0.55,0.45-1,1-1h46c0.55,0,1,0.45,1,1V55z"/>
	</g>
	<g>
		<path d="M48.24,48.5H27.15c-1.17,0-2.12,0.95-2.12,2.12v0.79c0,1.17,0.95,2.12,2.12,2.12h21.09c1.17,0,2.12-0.95,2.12-2.12v-0.79
			C50.35,49.45,49.4,48.5,48.24,48.5z M28.79,51.71l-1.21,0.7v-1.4v-1.4l1.21,0.7l1.21,0.7L28.79,51.71z M48.71,51.55h-13.3
			c-0.2,0.33-0.55,0.57-0.97,0.57s-0.77-0.23-0.97-0.57h-2.06v-1.07h2c0.19-0.38,0.57-0.65,1.03-0.65s0.84,0.27,1.03,0.65h13.24
			V51.55z"/>
	</g>
</g>
</svg>
