<?xml version="1.0" encoding="utf-8"?>
<!-- Generator: Adobe Illustrator 24.0.1, SVG Export Plug-In . SVG Version: 6.00 Build 0)  -->
<svg version="1.1" id="Capa_1" xmlns="http://www.w3.org/2000/svg" xmlns:xlink="http://www.w3.org/1999/xlink" x="0px" y="0px"
	 viewBox="0 0 74.41 69.85" style="enable-background:new 0 0 74.41 69.85;" xml:space="preserve">
<style type="text/css">
	.st0{stroke:#000000;stroke-width:0.5;stroke-linecap:round;stroke-linejoin:round;stroke-miterlimit:10;}
	.st1{fill:none;}
</style>
<g>
	<path d="M14,6c-1.65,0-3,1.35-3,3v46c0,1.65,1.35,3,3,3h46c1.65,0,3-1.35,3-3V9c0-1.65-1.35-3-3-3H14z M14,8h46c0.55,0,1,0.45,1,1
		v46c0,0.55-0.45,1-1,1H14c-0.55,0-1-0.45-1-1V9C13,8.45,13.45,8,14,8z M19,12c-1.1,0-2,0.9-2,2v36c0,1.1,0.9,2,2,2h3
		c0.55,0,1-0.45,1-1s-0.45-1-1-1h-3V14h36v36h-3c-0.55,0-1,0.45-1,1s0.45,1,1,1h3c1.1,0,2-0.9,2-2V14c0-1.1-0.9-2-2-2H19z"/>
</g>
<g>
	<path class="st0" d="M28.45,50.01l5.41-2.8v0.81l-4.56,2.29v0.02l4.56,2.29v0.81l-5.41-2.8V50.01z"/>
	<path class="st0" d="M34.61,53.91l3.25-8.48h0.79l-3.26,8.48H34.61z"/>
	<path class="st0" d="M44.8,50.65l-5.41,2.79v-0.81l4.59-2.29v-0.02l-4.59-2.29v-0.81L44.8,50V50.65z"/>
</g>
<g>
	<path d="M23.15,22.67c1.17-0.22,2.56-0.39,4.09-0.39c2.76,0,4.73,0.81,6.03,2.34c1.33,1.53,2.1,3.71,2.1,6.74
		c0,3.06-0.75,5.57-2.14,7.3c-1.39,1.75-3.69,2.7-6.58,2.7c-1.37,0-2.52-0.08-3.49-0.22V22.67z M25.07,39.27
		c0.49,0.11,1.19,0.14,1.94,0.14c4.11,0,6.34-2.9,6.34-7.97c0.02-4.43-1.97-7.24-6.03-7.24c-0.99,0-1.75,0.11-2.25,0.25V39.27z"/>
	<path d="M38.88,27.71l1.41,6.85c0.31,1.5,0.6,2.9,0.8,4.29h0.07c0.24-1.37,0.6-2.81,0.95-4.26l1.75-6.88h1.63l1.66,6.74
		c0.4,1.62,0.71,3.04,0.95,4.4h0.07c0.18-1.37,0.46-2.79,0.82-4.37l1.52-6.77h1.92L48.98,41.2h-1.77l-1.63-6.44
		c-0.38-1.5-0.69-2.84-0.95-4.43h-0.04c-0.27,1.62-0.6,3.01-0.97,4.46l-1.72,6.41h-1.77L36.9,27.71H38.88z"/>
</g>
</svg>
