<?xml version="1.0" encoding="utf-8"?>
<!-- Generator: Adobe Illustrator 24.0.1, SVG Export Plug-In . SVG Version: 6.00 Build 0)  -->
<svg version="1.1" id="Capa_1" xmlns="http://www.w3.org/2000/svg" xmlns:xlink="http://www.w3.org/1999/xlink" x="0px" y="0px"
	 viewBox="0 0 74.41 69.85" style="enable-background:new 0 0 74.41 69.85;" xml:space="preserve">
<style type="text/css">
	.st0{stroke:#000000;stroke-width:0.5;stroke-linecap:round;stroke-linejoin:round;stroke-miterlimit:10;}
	.st1{fill:none;}
</style>
<g>
	<path d="M28.55,34.23l-1.94,5.91h-2.5l6.36-18.78h2.92l6.39,18.78h-2.58l-2-5.91H28.55z M34.69,32.33l-1.83-5.41
		c-0.42-1.23-0.69-2.34-0.97-3.43h-0.05c-0.28,1.11-0.58,2.26-0.94,3.4l-1.83,5.43H34.69z"/>
	<path d="M43.47,33.84c0.06,3.32,2.17,4.68,4.61,4.68c1.75,0,2.8-0.31,3.72-0.7l0.42,1.75c-0.86,0.39-2.33,0.84-4.47,0.84
		c-4.14,0-6.61-2.73-6.61-6.8c0-4.07,2.39-7.27,6.3-7.27c4.39,0,5.55,3.87,5.55,6.35c0,0.5-0.05,0.89-0.08,1.14H43.47z M50.63,32.08
		c0.03-1.56-0.64-3.98-3.39-3.98c-2.47,0-3.55,2.28-3.75,3.98H50.63z"/>
</g>
<g>
	<g>
		<polygon class="st1" points="34,25.95 34,25.95 34,25.95 		"/>
	</g>
	<g>
		<path class="st1" d="M62.35,8h-46c-0.55,0-1,0.45-1,1v46c0,0.55,0.45,1,1,1h46c0.55,0,1-0.45,1-1V9C63.35,8.45,62.9,8,62.35,8z
			 M51.7,51.41c0,1.17-0.95,2.12-2.12,2.12H28.5c-1.17,0-2.12-0.95-2.12-2.12v-0.79c0-1.17,0.95-2.12,2.12-2.12h21.09
			c1.17,0,2.12,0.95,2.12,2.12V51.41z M59.35,50c0,1.1-0.9,2-2,2h-3c-0.55,0-1-0.45-1-1c0-0.55,0.45-1,1-1h3V14h-36v36h3
			c0.55,0,1,0.45,1,1c0,0.55-0.45,1-1,1h-3c-1.1,0-2-0.9-2-2V14c0-1.1,0.9-2,2-2h36c1.1,0,2,0.9,2,2V50z"/>
	</g>
	<g>
		<polygon class="st1" points="26.38,18.32 26.38,18.32 26.38,18.32 		"/>
	</g>
	<g>
		<path d="M57.35,12h-36c-1.1,0-2,0.9-2,2v36c0,1.1,0.9,2,2,2h3c0.55,0,1-0.45,1-1c0-0.55-0.45-1-1-1h-3V14h36v36h-3
			c-0.55,0-1,0.45-1,1c0,0.55,0.45,1,1,1h3c1.1,0,2-0.9,2-2V14C59.35,12.9,58.45,12,57.35,12z"/>
	</g>
	<g>
		<path d="M62.35,6h-46c-1.65,0-3,1.35-3,3v46c0,1.65,1.35,3,3,3h46c1.65,0,3-1.35,3-3V9C65.35,7.35,64,6,62.35,6z M63.35,55
			c0,0.55-0.45,1-1,1h-46c-0.55,0-1-0.45-1-1V9c0-0.55,0.45-1,1-1h46c0.55,0,1,0.45,1,1V55z"/>
	</g>
	<g>
		<path d="M49.58,48.5H28.5c-1.17,0-2.12,0.95-2.12,2.12v0.79c0,1.17,0.95,2.12,2.12,2.12h21.09c1.17,0,2.12-0.95,2.12-2.12v-0.79
			C51.7,49.45,50.75,48.5,49.58,48.5z M30.14,51.71l-1.21,0.7v-1.4v-1.4l1.21,0.7l1.21,0.7L30.14,51.71z M50.05,51.55h-13.3
			c-0.2,0.33-0.55,0.57-0.97,0.57s-0.77-0.23-0.97-0.57h-2.06v-1.07h2c0.19-0.38,0.57-0.65,1.03-0.65s0.84,0.27,1.03,0.65h13.24
			V51.55z"/>
	</g>
</g>
</svg>
