<?xml version="1.0" encoding="utf-8"?>
<!-- Generator: Adobe Illustrator 24.0.1, SVG Export Plug-In . SVG Version: 6.00 Build 0)  -->
<svg version="1.1" id="Capa_1" xmlns="http://www.w3.org/2000/svg" xmlns:xlink="http://www.w3.org/1999/xlink" x="0px" y="0px"
	 viewBox="0 0 74.41 69.85" style="enable-background:new 0 0 74.41 69.85;" xml:space="preserve">
<style type="text/css">
	.st0{stroke:#000000;stroke-width:0.5;stroke-linecap:round;stroke-linejoin:round;stroke-miterlimit:10;}
	.st1{fill:none;}
</style>
<g>
	<g>
		<polygon class="st1" points="31.66,25.95 31.66,25.95 31.66,25.95 		"/>
	</g>
	<g>
		<path class="st1" d="M60,8H14c-0.55,0-1,0.45-1,1v46c0,0.55,0.45,1,1,1h46c0.55,0,1-0.45,1-1V9C61,8.45,60.55,8,60,8z
			 M49.35,51.41c0,1.17-0.95,2.12-2.12,2.12H26.15c-1.17,0-2.12-0.95-2.12-2.12v-0.79c0-1.17,0.95-2.12,2.12-2.12h21.09
			c1.17,0,2.12,0.95,2.12,2.12V51.41z M21.48,46.29V18.32v-2.54h2.54v2.54h2.54v2.54h2.54v2.54h2.54v2.54h2.54v2.54h2.54v2.54h2.54
			v2.54h2.54v2.54h2.54v2.54h2.54v2.54h2.54v2.54H52v2.54h-2.54H21.48z M57,50c0,1.1-0.9,2-2,2h-3c-0.55,0-1-0.45-1-1
			c0-0.55,0.45-1,1-1h3V14H19v36h3c0.55,0,1,0.45,1,1c0,0.55-0.45,1-1,1h-3c-1.1,0-2-0.9-2-2V14c0-1.1,0.9-2,2-2h36c1.1,0,2,0.9,2,2
			V50z"/>
	</g>
	<g>
		<polygon class="st1" points="24.03,18.32 24.03,18.32 24.03,18.32 		"/>
	</g>
	<g>
		<path d="M55,12H19c-1.1,0-2,0.9-2,2v36c0,1.1,0.9,2,2,2h3c0.55,0,1-0.45,1-1c0-0.55-0.45-1-1-1h-3V14h36v36h-3c-0.55,0-1,0.45-1,1
			c0,0.55,0.45,1,1,1h3c1.1,0,2-0.9,2-2V14C57,12.9,56.1,12,55,12z"/>
	</g>
	<g>
		<path d="M60,6H14c-1.65,0-3,1.35-3,3v46c0,1.65,1.35,3,3,3h46c1.65,0,3-1.35,3-3V9C63,7.35,61.65,6,60,6z M61,55
			c0,0.55-0.45,1-1,1H14c-0.55,0-1-0.45-1-1V9c0-0.55,0.45-1,1-1h46c0.55,0,1,0.45,1,1V55z"/>
	</g>
	<g>
		<polygon points="52,43.75 49.46,43.75 49.46,43.75 49.46,43.75 49.46,41.2 46.91,41.2 46.91,38.66 44.37,38.66 44.37,38.66 
			44.37,38.66 44.37,36.12 41.83,36.12 41.83,33.58 39.28,33.58 39.28,31.03 36.74,31.03 36.74,31.03 36.74,31.03 36.74,28.49 
			34.2,28.49 34.2,25.95 31.66,25.95 31.66,25.95 31.66,25.95 31.66,25.95 31.66,23.4 29.11,23.4 29.11,20.86 26.57,20.86 
			26.57,18.32 24.03,18.32 24.03,18.32 24.03,18.32 24.03,18.32 24.03,15.77 21.48,15.77 21.48,18.32 21.48,46.29 49.46,46.29 
			52,46.29 		"/>
	</g>
	<g>
		<path d="M47.24,48.5H26.15c-1.17,0-2.12,0.95-2.12,2.12v0.79c0,1.17,0.95,2.12,2.12,2.12h21.09c1.17,0,2.12-0.95,2.12-2.12v-0.79
			C49.35,49.45,48.4,48.5,47.24,48.5z M27.79,51.71l-1.21,0.7v-1.4v-1.4l1.21,0.7l1.21,0.7L27.79,51.71z M47.71,51.55h-13.3
			c-0.2,0.33-0.55,0.57-0.97,0.57s-0.77-0.23-0.97-0.57h-2.06v-1.07h2c0.19-0.38,0.57-0.65,1.03-0.65s0.84,0.27,1.03,0.65h13.24
			V51.55z"/>
	</g>
</g>
</svg>
