<?xml version="1.0" encoding="utf-8"?>
<!-- Generator: Adobe Illustrator 24.0.1, SVG Export Plug-In . SVG Version: 6.00 Build 0)  -->
<svg version="1.1" id="Capa_1" xmlns="http://www.w3.org/2000/svg" xmlns:xlink="http://www.w3.org/1999/xlink" x="0px" y="0px"
	 viewBox="0 0 74.41 69.85" style="enable-background:new 0 0 74.41 69.85;" xml:space="preserve">
<style type="text/css">
	.st0{stroke:#000000;stroke-width:0.5;stroke-linecap:round;stroke-linejoin:round;stroke-miterlimit:10;}
	.st1{fill:none;}
</style>
<g>
	<path d="M30.3,20.77v18.78h-2.42V20.77H30.3z"/>
	<path d="M46.05,19.77v16.3c0,1.2,0.03,2.56,0.11,3.48h-2.19l-0.11-2.34H43.8c-0.75,1.5-2.39,2.65-4.58,2.65
		c-3.25,0-5.75-2.76-5.75-6.85c-0.03-4.49,2.75-7.24,6.03-7.24c2.05,0,3.44,0.98,4.05,2.06h0.06v-8.05H46.05z M43.61,31.55
		c0-0.31-0.03-0.72-0.11-1.03c-0.36-1.56-1.69-2.84-3.53-2.84c-2.53,0-4.03,2.23-4.03,5.21c0,2.73,1.33,4.99,3.97,4.99
		c1.64,0,3.14-1.09,3.58-2.93c0.08-0.33,0.11-0.67,0.11-1.06V31.55z"/>
</g>
<g>
	<g>
		<polygon class="st1" points="31.66,25.95 31.66,25.95 31.66,25.95 		"/>
	</g>
	<g>
		<polygon class="st1" points="24.03,18.32 24.03,18.32 24.03,18.32 		"/>
	</g>
	<g>
		<path d="M55,12H19c-1.1,0-2,0.9-2,2v36c0,1.1,0.9,2,2,2h3c0.55,0,1-0.45,1-1c0-0.55-0.45-1-1-1h-3V14h36v36h-3c-0.55,0-1,0.45-1,1
			c0,0.55,0.45,1,1,1h3c1.1,0,2-0.9,2-2V14C57,12.9,56.1,12,55,12z"/>
	</g>
	<g>
		<path d="M60,6H14c-1.65,0-3,1.35-3,3v46c0,1.65,1.35,3,3,3h46c1.65,0,3-1.35,3-3V9C63,7.35,61.65,6,60,6z M61,55
			c0,0.55-0.45,1-1,1H14c-0.55,0-1-0.45-1-1V9c0-0.55,0.45-1,1-1h46c0.55,0,1,0.45,1,1V55z"/>
	</g>
</g>
<g>
	<path d="M35.15,46.59v5.94h-9.43v-5.94H35.15 M36.15,45.59H24.72v7.94h11.43V45.59L36.15,45.59z"/>
</g>
<g>
	<rect x="37.6" y="45.59" width="11.43" height="1.32"/>
</g>
<g>
	<rect x="37.6" y="47.62" width="7.87" height="1.32"/>
</g>
<g>
	<rect x="37.6" y="49.65" width="10.07" height="1.32"/>
</g>
<g>
	<rect x="37.6" y="52" width="6.02" height="1.32"/>
</g>
<g>
	<rect x="24.22" y="49.15" transform="matrix(0.8398 -0.5429 0.5429 0.8398 -22.0727 24.4978)" width="12.51" height="1"/>
</g>
<g>
	<rect x="29.97" y="43.39" transform="matrix(0.5432 -0.8396 0.8396 0.5432 -27.7648 48.2591)" width="1" height="12.51"/>
</g>
</svg>
