<svg width="80" height="50" viewBox="0 0 80 50" fill="none" xmlns="http://www.w3.org/2000/svg">
<path d="M23.1435 0C25.4925 0 27.6063 0.203399 29.5445 0.618171C31.4708 1.02896 33.114 1.70695 34.5019 2.64417C35.8698 3.5814 36.9387 4.82572 37.7084 6.38909C38.4542 7.93252 38.8251 9.86281 38.8251 12.1441C38.8251 14.6167 38.2667 16.6826 37.146 18.3297C36.0174 19.9809 34.3543 21.3329 32.1369 22.3778C35.1559 23.2512 37.3933 24.7787 38.8769 26.9482C40.3685 29.1378 41.0984 31.758 41.0984 34.8289C41.0984 37.3215 40.6238 39.4632 39.6706 41.2619C38.7521 43.0338 37.4195 44.5579 35.7861 45.7047C34.0942 46.8829 32.2043 47.7474 30.2066 48.2572C28.112 48.807 25.9551 49.0831 23.7896 49.0787H0V0H23.1435ZM21.7436 19.8293C23.658 19.8293 25.2453 19.3747 26.4976 18.4534C27.7419 17.5441 28.3441 16.0445 28.3441 13.9906C28.3441 12.85 28.1407 11.9087 27.7419 11.1709C27.3533 10.4611 26.7783 9.8709 26.0788 9.46399C25.3467 9.02978 24.5387 8.73879 23.6979 8.60652C22.7813 8.43559 21.8504 8.35412 20.9181 8.36325H10.808V19.8293H21.7436ZM22.3459 40.7235C23.4107 40.7235 24.4237 40.6317 25.3769 40.4164C26.338 40.209 27.1915 39.874 27.9174 39.3754C28.6432 38.8969 29.2414 38.2468 29.6722 37.4172C30.1069 36.5957 30.3183 35.5229 30.3183 34.2347C30.3183 31.7061 29.6044 29.9075 28.1926 28.8187C26.7767 27.7419 24.8784 27.2075 22.5532 27.2075H10.808V40.7274L22.3459 40.7235ZM56.5047 40.5599C57.9684 41.9877 60.0782 42.7056 62.8221 42.7056C64.7882 42.7056 66.4872 42.2071 67.919 41.218C69.3308 40.2249 70.1922 39.1641 70.5233 38.0673H79.1178C77.7379 42.3427 75.6441 45.3976 72.7806 47.2362C69.9529 49.0827 66.5111 50 62.491 50C59.6913 50 57.1708 49.5493 54.9135 48.656C52.7468 47.8122 50.7888 46.5087 49.1744 44.8353C47.5867 43.1229 46.3593 41.1088 45.5651 38.9128C44.6921 36.4844 44.2599 33.9196 44.2889 31.3392C44.2889 28.6831 44.7316 26.1985 45.601 23.9052C46.4263 21.6885 47.6937 19.6627 49.326 17.9509C50.9412 16.2758 52.8556 14.9557 55.085 13.9866C57.4293 13.0006 59.952 12.5091 62.495 12.5429C65.5021 12.5429 68.1303 13.1251 70.3877 14.2977C72.5767 15.4169 74.4748 17.031 75.9312 19.0117C77.379 20.9779 78.4119 23.2312 79.054 25.7558C79.6961 28.2763 79.9194 30.9085 79.736 33.6644H54.0879C54.0919 36.472 55.0371 39.1322 56.5047 40.5599ZM67.7196 21.8912C66.559 20.607 64.5968 19.9131 62.1959 19.9131C60.6365 19.9131 59.3483 20.1723 58.3114 20.7067C57.3633 21.1856 56.5221 21.8517 55.8387 22.6649C55.2385 23.4032 54.7936 24.2551 54.5306 25.1695C54.3006 25.932 54.1522 26.7167 54.0879 27.5106H69.9689C69.7376 25.0219 68.8841 23.1834 67.7196 21.8912ZM52.0938 3.29425H71.9909V8.1399H52.0938V3.29425Z" fill="url(#paint0_linear_57_2416)"/>
<defs>
<linearGradient id="paint0_linear_57_2416" x1="39.8989" y1="0" x2="39.8989" y2="50" gradientUnits="userSpaceOnUse">
<stop stop-color="#0066FF"/>
<stop offset="1" stop-color="#00B7C2"/>
</linearGradient>
</defs>
</svg>
