<svg width="78" height="148" viewBox="0 0 78 148" fill="none" xmlns="http://www.w3.org/2000/svg">
<path d="M32.0221 98.2054C25.6622 85.1213 22.6844 70.0608 23.0054 55.5576C23.1818 47.604 24.4228 39.657 27.0746 32.1393C30.282 23.0494 35.6587 16.445 41.7408 9.17174C42.2765 8.53125 41.5129 7.72774 40.8474 8.2368C27.5004 18.4313 22.0306 37.486 21.4217 53.5447C20.8344 69.0394 24.13 84.8368 31.3533 98.5748C31.5829 99.0156 32.2367 98.6463 32.0221 98.2054Z" fill="white"/>
<path d="M41.5944 9.04188C47.1308 16.0672 52.3678 21.8549 55.2791 30.5687C57.7096 37.8403 58.6296 45.5643 58.4948 53.2119C58.2037 69.6531 52.3828 83.1565 46.3772 98.0573C46.1343 98.6595 47.0194 98.939 47.3554 98.4882C57.0425 85.4739 60.7823 65.7504 60.3381 49.8564C59.9388 35.5978 55.0445 16.5813 42.165 8.33319C41.7025 8.03707 41.2883 8.65426 41.5944 9.04188Z" fill="white"/>
<path d="M29.0509 25.0324C33.0286 32.1991 50.7641 34.2586 54.6619 25.8974C54.9697 25.2387 54.246 24.5815 53.6521 25.0823C47.0743 30.637 36.0663 31.1444 29.7164 24.5416C29.3903 24.2022 28.818 24.6148 29.0509 25.0324Z" fill="white"/>
<path d="M39.6081 70.124C38.4219 78.803 38.4685 87.6632 38.2888 96.4071C38.1508 103.055 36.7284 111.221 38.1857 117.744C38.3071 118.285 39.109 118.282 39.257 117.761C41.0587 111.359 39.8144 103.035 39.9474 96.4254C40.1238 87.6599 40.5214 78.8994 40.6345 70.1357C40.6428 69.4569 39.6962 69.4885 39.6081 70.124Z" fill="white"/>
<path d="M32.1202 98.134C34.0184 99.5397 36.4905 99.7577 38.7862 99.7643C41.2184 99.771 44.2827 99.6861 46.487 98.5898C46.8996 98.3852 46.7199 97.7248 46.2691 97.7297C43.9101 97.7547 41.5861 98.4933 39.1988 98.5399C36.8781 98.5848 34.6007 98.2821 32.453 97.3771C31.9905 97.1824 31.7709 97.8745 32.1202 98.134Z" fill="white"/>
<path d="M39.6979 44.43C28.076 40.7468 25.584 62.8476 38.3903 63.2302C43.0101 63.3683 46.482 59.6402 47.1425 55.255C48.0025 49.5472 43.9866 44.7494 38.5034 43.5716C37.813 43.4235 37.5236 44.4017 38.199 44.6296C42.5493 46.1019 46.2591 48.8701 46.1859 53.9008C46.131 57.599 43.7321 61.3337 39.9308 62.0208C27.9679 64.1818 27.8215 42.8596 39.4999 45.1121C39.9441 45.2002 40.1404 44.5714 39.6979 44.43Z" fill="white"/>
<path d="M34.8169 48.1879C32.7208 50.6999 32.1901 54.6808 33.6757 57.6304C35.1347 60.5267 38.8728 61.3469 41.5378 59.5169C43.8935 57.8999 44.2828 54.6559 43.3179 52.1389C42.0619 48.8583 38.936 47.4176 35.5705 47.9915C34.96 48.0964 35.1996 49.0313 35.8084 48.9265C38.5417 48.4557 41.1086 49.527 42.2865 52.1222C43.2464 54.2367 43.1199 57.1297 41.1752 58.6518C38.7996 60.5101 35.3726 59.6433 34.1964 56.9117C33.0801 54.3165 33.5027 50.8795 35.2977 48.6919C35.5772 48.3492 35.1047 47.8418 34.8169 48.1879Z" fill="white"/>
<path d="M35.4058 50.4537C35.1313 50.3306 34.8585 50.2059 34.584 50.0828C34.8851 50.1693 35.1879 50.2558 35.489 50.3423C35.5123 49.9197 35.5356 49.4972 35.5589 49.0746C35.5938 48.4524 34.7404 48.4092 34.5391 48.9249C34.2031 49.7866 33.8903 50.6567 33.7722 51.5783C33.6923 52.2005 34.7421 52.3552 34.8702 51.7397C35.0465 50.8863 35.6654 50.0911 36.1628 49.389C35.835 49.1877 35.5057 48.9865 35.1779 48.7868C33.7522 50.9195 33.0469 53.3667 32.3465 55.8088C32.1469 56.5059 33.0602 56.8319 33.4578 56.2979C35.0016 54.2218 36.8132 52.3719 38.1824 50.1643C38.6266 49.4489 37.6517 48.6704 37.0411 49.2443C35.6005 50.5951 35.1164 52.6414 34.2263 54.3732C33.8554 55.0952 34.7604 55.9586 35.3909 55.3114C36.8398 53.8225 37.6816 51.8994 38.8445 50.1975C38.407 49.9297 37.9694 49.6619 37.5319 49.394C36.6984 50.7698 35.5323 51.8412 34.3694 52.9342C34.772 53.2586 35.1746 53.5846 35.5772 53.909C36.3042 52.3036 36.2809 50.4837 37.0062 48.89C36.5471 48.88 36.0862 48.87 35.6271 48.86C35.9665 49.4672 34.8635 51.4436 34.767 52.2438C34.6772 52.9841 35.6637 53.2586 36.1411 52.841C37.0162 52.0707 38.9659 51.1375 39.104 49.8399C39.1439 49.4589 38.8245 49.1611 38.5068 49.038C38.4768 49.0264 38.4469 49.0147 38.4169 49.0031C38.1142 48.885 37.6234 49.0613 37.4837 49.3657C36.8332 50.7765 36.7151 52.3436 36.0713 53.7493C35.702 54.5578 36.6402 55.5294 37.3722 54.799C38.5317 53.6445 39.3868 52.3469 40.1654 50.9129C39.6347 50.7598 39.1023 50.6068 38.5716 50.4554C38.4352 51.7414 37.9511 52.9441 37.8147 54.2334C37.9644 53.9822 38.1142 53.731 38.2656 53.4798C38.4319 53.4732 38.5966 53.4648 38.763 53.4582C38.9742 53.741 39.1839 54.0238 39.3951 54.3066C39.3619 53.9157 39.6713 53.3634 39.811 53.0057C39.8809 52.8244 40.0722 52.5216 40.0822 52.3369C40.1121 51.7963 40.5763 52.307 39.8193 52.3269C39.5399 52.1073 39.2587 51.8861 38.9792 51.6665C38.8761 51.2656 38.8162 51.753 38.6665 52.1073C38.5683 52.3386 38.4186 52.5682 38.3787 52.8194C38.3055 53.2752 38.4752 53.7809 38.9809 53.9074C40.0839 54.1835 41.26 52.4151 41.9221 51.7913C41.468 51.4253 41.0138 51.0593 40.5596 50.6916C39.4151 52.46 38.9959 54.5462 37.853 56.3112C37.3123 57.148 38.5267 58.1578 39.2271 57.4192C40.024 56.5774 40.6129 55.6874 41.6526 55.1001C42.012 54.8972 42.1667 54.4913 42.0868 54.097C42.0818 54.0704 42.0752 54.0438 42.0702 54.0171C41.9438 53.395 41.2717 53.2536 40.7709 53.4549C39.7229 53.8774 39.099 56.4427 38.9643 57.4375C38.8827 58.0314 39.5798 58.439 40.0839 58.3175C40.8824 58.1262 41.3049 57.6554 41.4131 56.8403C41.5328 55.9403 40.1587 55.6308 39.7461 56.3611C39.5798 56.6539 39.3452 57.1048 38.9875 57.1863C39.3619 57.4807 39.7378 57.7752 40.1121 58.0697C40.1254 57.6471 40.1371 57.2246 40.1504 56.802C40.162 56.3844 39.8676 56.0584 39.4966 55.9236C38.9227 55.7157 38.3887 55.7007 37.8247 55.9669C37.3522 56.1898 36.918 56.9933 36.4556 57.1048C36.8232 57.3227 37.1909 57.5423 37.5585 57.7602C37.2491 56.7038 37.9877 55.7273 37.655 54.5944C37.462 53.9373 36.6569 53.6828 36.1428 54.1602C35.9931 54.4131 35.7785 54.5279 35.4973 54.5029C35.7535 54.9654 36.0097 55.4295 36.2659 55.892C36.2792 55.8704 36.2925 55.8488 36.3058 55.8271C36.0114 55.8987 35.7169 55.9719 35.4225 56.0434C35.2644 55.8454 35.0532 55.6275 34.8419 55.4112C35.0232 56.0318 34.6522 57.0599 34.5275 57.6953C34.4276 58.2027 34.6522 58.6536 35.1546 58.8299C37.685 59.7116 37.9378 55.1717 34.5857 55.7706C33.7988 55.9103 33.674 57.0665 34.3328 57.4475C35.4008 58.068 36.3724 58.8249 37.4404 59.4438C37.8912 59.705 38.4219 59.5569 38.7131 59.1377C40.1088 57.1197 41.3665 54.8989 41.5711 52.4085C40.9523 52.4018 40.3334 52.3951 39.7145 52.3885C39.6763 53.5464 39.5997 54.6177 39.109 55.694C38.7064 56.5774 39.7378 57.6604 40.5397 56.8486C41.8689 55.5011 42.14 54.295 42.1999 52.4268C41.5927 52.5 40.9839 52.5715 40.3766 52.6447C40.7676 54.0654 40.894 55.3929 40.8541 56.8552C40.8225 58.0497 42.6208 58.0563 42.7023 56.8752C42.8055 55.3713 43.3345 53.9606 43.4626 52.4634C42.8471 52.4567 42.2332 52.45 41.6177 52.4434C41.5861 53.5064 41.5827 54.5462 41.6393 55.6092C41.6959 56.6589 43.1382 56.6523 43.253 55.6258C43.3728 54.5678 43.4293 53.5247 43.4609 52.4617C43.4959 51.2639 41.7175 51.2706 41.616 52.4417C41.4863 53.934 40.9572 55.3464 40.8524 56.8536C41.468 56.8602 42.0852 56.8669 42.7007 56.8735C42.7439 55.2565 42.5975 53.7493 42.1683 52.1872C41.8905 51.1757 40.38 51.3471 40.345 52.4051C40.3018 53.6994 40.2003 54.5478 39.257 55.5044C39.7345 55.8887 40.212 56.2746 40.6877 56.6589C41.3249 55.2598 41.5162 53.9356 41.5678 52.4051C41.6077 51.2007 39.8077 51.204 39.7112 52.3852C39.5349 54.5146 38.3155 56.4493 37.131 58.1695C37.5552 58.068 37.9794 57.9648 38.4036 57.8634C37.3339 57.2462 36.3607 56.4926 35.2911 55.8754C35.2062 56.4343 35.123 56.9933 35.0382 57.5523C35.2445 57.3892 35.4524 57.2279 35.6587 57.0648C35.8683 57.4425 36.0779 57.8201 36.2859 58.1994C36.4888 57.1547 37.3007 54.8024 35.9232 54.2867C35.6238 54.1752 35.2661 54.2983 35.0398 54.5029C34.9001 54.631 34.8019 54.7757 34.7021 54.9371C34.3361 55.5294 34.777 56.3196 35.4707 56.3262C36.3225 56.3345 36.78 56.0484 37.3938 55.4761C36.8898 55.3314 36.3857 55.1866 35.8816 55.0419C36.1944 56.0966 35.4574 57.0748 35.7918 58.2061C35.9315 58.6785 36.4023 58.983 36.8947 58.8615C37.5402 58.7035 38.3587 57.4325 38.9892 57.6571C38.7713 57.3643 38.5534 57.0715 38.3354 56.7787C38.3238 57.2013 38.3121 57.6238 38.3005 58.0464C38.2838 58.6403 38.8678 59.0595 39.4251 58.9297C40.2818 58.7318 40.8574 58.0364 41.275 57.2944C40.7193 57.1347 40.1637 56.975 39.6081 56.8153C39.6164 56.7338 39.6264 56.6523 39.6347 56.5708C40.0073 56.8635 40.3816 57.158 40.7543 57.4508C40.8192 56.97 41.0803 56.436 41.265 55.9918C41.3632 55.7556 41.5278 55.5027 41.5944 55.2549C41.7025 54.8589 42.0153 54.8573 41.631 55.0136C41.1985 54.8257 40.7643 54.6393 40.3317 54.4513C40.3367 54.478 40.3434 54.5046 40.3484 54.5312C40.4931 54.1968 40.6378 53.8624 40.7826 53.5281C39.6114 54.1935 38.901 55.1634 37.9944 56.1249C38.4519 56.4942 38.911 56.8636 39.3685 57.2329C40.5097 55.4611 40.924 53.3733 42.0619 51.6049C42.6075 50.7582 41.4214 49.8216 40.6994 50.5053C40.0273 51.1425 39.3785 51.8528 38.6498 52.4268C38.9327 52.3569 39.2171 52.287 39.4999 52.2188C39.6646 52.5715 39.8643 52.9341 40.0655 53.2968C40.1787 52.5781 40.8807 52.0075 40.6761 51.2256C40.5813 50.863 40.2219 50.5536 39.836 50.5652C38.5068 50.6035 37.5502 53.1837 37.645 54.28C37.6816 54.7042 37.8879 54.972 38.2772 55.1284C38.7946 55.3364 39.2138 54.9754 39.4766 54.5828C39.7994 54.1003 39.7594 53.172 39.8909 52.5848C40.0522 51.8628 40.2153 51.2007 40.2885 50.4654C40.3717 49.6219 39.0824 49.2792 38.6948 50.0079C37.9911 51.3255 37.2657 52.4983 36.2044 53.5713C36.6386 53.9207 37.0728 54.2717 37.5053 54.621C38.1424 53.202 38.2506 51.6299 38.8877 50.2192C38.5766 50.3406 38.2656 50.4604 37.9545 50.5818C37.9844 50.5935 38.0143 50.6051 38.046 50.6168C37.8463 50.3489 37.6467 50.0811 37.4487 49.8149C37.477 49.5205 36.5288 50.4171 36.3291 50.5802C35.8883 50.9362 35.4391 51.2805 35.0149 51.6582C35.4724 51.8578 35.9299 52.0558 36.3874 52.2554C36.5404 50.8946 37.7848 49.4323 37.0195 48.0815C36.7533 47.6123 35.8966 47.4792 35.6404 48.0515C34.9201 49.6635 34.9517 51.4852 34.2363 53.0855C33.8986 53.8441 34.7487 54.7208 35.4441 54.0604C36.6951 52.8709 37.9478 51.6831 38.8395 50.1909C39.3502 49.3358 38.0776 48.5706 37.5269 49.3874C36.4539 50.9761 35.6853 52.821 34.3461 54.2118C34.7337 54.5245 35.1214 54.8373 35.5106 55.1501C36.3142 53.5663 36.76 51.5351 38.0593 50.304C37.6783 49.9979 37.299 49.6901 36.918 49.384C35.7136 51.7064 33.9402 53.553 32.4097 55.6491C32.7807 55.8122 33.15 55.9752 33.521 56.1382C34.1731 53.7909 34.8203 51.4419 36.1611 49.3791C36.5687 48.7519 35.5955 48.168 35.1763 48.7768C34.6289 49.5704 33.9785 50.4587 33.7922 51.4203C34.1581 51.4735 34.5241 51.5268 34.8901 51.5817C34.9833 50.7781 35.2827 49.9696 35.5373 49.2027C35.1979 49.1528 34.8568 49.1029 34.5175 49.053C34.5158 49.4755 34.5125 49.8981 34.5108 50.3207C34.5075 50.8297 35.1413 50.9545 35.4158 50.5802C35.6687 50.2358 35.8334 49.9347 35.7003 49.5072C35.6454 49.3308 35.4657 49.1412 35.2611 49.1628C35.2295 49.1661 35.1962 49.1694 35.1646 49.1728C34.9417 49.1961 34.8103 49.2959 34.7238 49.5005C34.5857 49.8299 34.609 49.9097 34.5774 50.3207C34.5441 50.7998 35.326 50.9262 35.4058 50.4537Z" fill="white"/>
<path d="M30.4633 31.8848C30.4167 31.8782 30.3685 31.8715 30.3219 31.8649C30.465 31.9264 30.6064 31.9896 30.7495 32.0512C30.7245 32.0246 30.6979 31.9963 30.6729 31.9697C29.8877 31.1329 28.5901 32.3723 29.3853 33.1991C29.7447 33.5717 30.2704 33.7181 30.7461 33.4952C30.5515 33.5168 30.3552 33.5401 30.1606 33.5617C30.4933 33.6599 30.8593 33.7164 31.202 33.6183C31.4981 33.5334 31.7177 33.1558 31.5264 32.868C31.3301 32.5719 31.0639 32.3656 30.7761 32.1626C30.8909 32.319 31.0057 32.4737 31.1204 32.6301C31.0872 32.4455 31.0007 32.3041 30.8709 32.1693C30.4583 31.7401 30.9108 32.2708 30.9158 32.4721C30.7644 32.6634 30.6147 32.8564 30.4633 33.0477C30.5082 33.0427 30.5548 33.036 30.6014 33.031C31.3134 32.9412 31.0489 31.9663 30.4633 31.8848Z" fill="white"/>
<path d="M37.3722 34.0259C37.3689 34.3936 37.3639 34.7612 37.3606 35.1272C37.9245 35.0706 38.199 34.1407 37.5203 34.0326C37.294 33.996 37.0678 33.9594 36.8415 33.9228C35.6936 33.7381 35.8866 35.4682 36.8215 35.1771C37.0012 35.1555 37.1809 35.1339 37.3589 35.1106C38.0692 35.0573 38.0593 34.1207 37.3722 34.0259Z" fill="white"/>
<path d="M44.4724 34.8458C44.3277 34.7943 44.1813 34.7444 44.0366 34.6928C42.9868 34.3251 42.7323 36.3214 44.0149 36.0952C44.1663 36.0686 44.316 36.042 44.4674 36.0153C45.083 35.9072 45.0813 34.9357 44.4857 34.7976C44.336 34.7627 44.1863 34.7277 44.0366 34.6928C42.8105 34.4067 42.9053 36.4179 44.0149 36.0952C44.1613 36.0519 44.3077 36.0104 44.4541 35.9671C45.0231 35.8041 45.0148 35.0372 44.4724 34.8458Z" fill="white"/>
<path d="M50.0171 35.8374C50.1369 35.8491 50.7391 35.9572 50.3981 35.8657C51.8687 36.2583 51.9852 33.738 50.4264 34.0491C50.7574 33.9825 50.1502 34.0424 50.0354 34.0457C48.8759 34.079 48.8776 35.7343 50.0171 35.8374Z" fill="white"/>
<path d="M28.6151 91.7192C31.7775 93.0817 34.8569 93.8453 38.3138 93.3895C38.9742 93.3029 38.723 92.2682 38.0559 92.373C34.8984 92.8721 31.7576 92.1551 28.8363 90.954C28.3589 90.7593 28.1526 91.5196 28.6151 91.7192Z" fill="white"/>
<path d="M30.2287 92.8554C30.4633 93.2879 30.1189 93.8652 30.1406 94.3244C30.1489 94.5074 30.2687 94.7303 30.47 94.7652C31.4631 94.9432 32.2916 93.6689 32.8389 93.0817C32.5761 92.8687 32.3132 92.6574 32.0504 92.4445C31.5596 93.4676 31.1121 94.5107 30.6513 95.5488C30.4084 96.0944 31.014 96.7116 31.5147 96.2458C32.3897 95.4356 33.2498 94.6038 34.1482 93.8186C33.8387 93.5691 33.531 93.3196 33.2215 93.07C32.4995 94.4025 31.7509 95.5804 30.6679 96.6617C30.1106 97.219 30.9374 98.0874 31.513 97.5467C32.8173 96.3223 34.0949 95.0563 35.4557 93.8935C35.0848 93.7321 34.7138 93.5708 34.3428 93.411C34.2397 94.4358 33.882 95.3125 33.18 96.0628C32.596 96.6883 33.4994 97.6482 34.1016 97.0294C34.8502 96.2624 35.8118 94.2828 36.8914 94.1563C36.7367 93.7654 36.5837 93.3744 36.4289 92.9835C35.2794 94.1297 34.4376 95.419 33.6624 96.838C33.2365 97.6183 34.3811 98.3303 34.8469 97.5617C35.6837 96.1793 36.8532 95.1029 38.0227 94.0083C37.6583 93.7138 37.2923 93.4194 36.928 93.1249C36.2526 94.3693 35.5772 95.6136 34.9034 96.858C34.614 97.3937 35.0631 98.1173 35.702 97.9393C36.9064 97.6033 37.2541 96.1393 38.006 95.2909C37.6001 95.0447 37.1942 94.8001 36.7883 94.5539C36.5221 95.6952 35.4774 96.4138 36.1395 97.6332C36.2942 97.9161 36.6585 98.0807 36.9729 97.9942C38.1824 97.6565 38.5234 96.1926 39.2803 95.3392C38.8578 95.1545 38.4336 94.9715 38.011 94.7868C37.9179 95.5737 37.5968 96.3606 37.3256 97.1009C37.8214 97.1741 38.3155 97.2456 38.8112 97.3188C38.8528 96.0262 38.8911 94.7336 38.9326 93.441C38.4219 93.436 37.9129 93.4293 37.4021 93.4244C37.3805 94.5057 37.3389 95.5854 37.3073 96.6667C37.5652 96.4138 37.823 96.1626 38.0809 95.9098C36.6369 95.7634 35.5772 94.7086 34.1032 95.1911C33.5127 95.3841 33.3912 95.9896 33.7389 96.4604C35.138 98.3636 36.8532 97.6765 38.8395 97.2173C39.3319 97.1026 39.3968 96.2708 38.8561 96.1759C37.4437 95.9281 35.8134 96.7183 34.8469 95.404C34.7254 95.8266 34.604 96.2508 34.4825 96.6733C35.4757 96.3473 36.9912 97.3305 38.0659 97.4403C38.4835 97.4835 38.8278 97.066 38.8395 96.6833C38.8711 95.602 38.911 94.5223 38.9343 93.441C38.9543 92.4561 37.4354 92.4378 37.4038 93.4244C37.3622 94.717 37.3339 96.0096 37.299 97.3022C37.2757 98.1889 38.5034 98.3003 38.7846 97.5201C39.1023 96.6384 39.4118 95.7401 39.5166 94.8051C39.5881 94.178 38.6598 93.7837 38.2472 94.2528C37.813 94.7452 37.1809 96.3905 36.6103 96.5536C36.8881 96.6734 37.1659 96.7931 37.4437 96.9146C37.2325 96.5303 38.1075 95.4007 38.2073 94.9632C38.357 94.3111 37.5069 93.6373 36.9912 94.2262C36.5537 94.7253 35.9265 96.3689 35.3476 96.5353C35.6138 96.8963 35.88 97.2573 36.1461 97.6166C36.8099 96.3656 37.477 95.1146 38.1424 93.8652C38.5118 93.1748 37.6517 92.4079 37.0478 92.9818C35.8018 94.168 34.5541 95.3508 33.6674 96.8364C34.0617 97.0776 34.4559 97.3188 34.8519 97.56C35.5672 96.2308 36.3008 95.048 37.3739 93.9667C37.8912 93.4443 37.3822 92.734 36.7367 92.8138C35.0648 93.0218 34.233 94.9748 33.1866 96.0611C33.4944 96.3839 33.8021 96.705 34.1082 97.0277C35.0598 95.9979 35.5339 94.8118 35.6637 93.4227C35.7169 92.8587 34.9284 92.5476 34.5508 92.9402C33.3114 94.2295 31.9705 95.429 30.6729 96.66C30.9541 96.9545 31.2369 97.2506 31.518 97.5451C32.6559 96.3972 33.491 95.1129 34.2513 93.6939C34.5607 93.1166 33.8221 92.4395 33.3247 92.9452C32.4879 93.7953 31.6079 94.6055 30.7478 95.4306C31.0556 95.617 31.3633 95.8033 31.6727 95.9896C32.1153 94.9449 32.5711 93.9035 32.9837 92.8471C33.1633 92.3863 32.4629 91.9554 32.1402 92.3364C31.9323 92.5809 30.9907 93.9201 30.608 93.8685C30.7578 94.0216 30.9075 94.1746 31.0572 94.3277C30.994 93.6273 31.3583 93.1166 30.9524 92.4528C30.6713 92.012 29.9775 92.3896 30.2287 92.8554Z" fill="white"/>
<path d="M37.9195 93.3127C41.097 94.8832 44.6438 94.3858 47.8661 93.1946C48.683 92.8919 48.3735 91.5693 47.5268 91.8604C44.4159 92.9284 41.5212 93.4092 38.3221 92.3978C37.7914 92.2281 37.4005 93.0565 37.9195 93.3127Z" fill="white"/>
<path d="M38.1957 97.1641C40.2386 96.6783 42.333 96.7781 44.4142 96.8879C44.3626 96.4587 44.3111 96.0295 44.2595 95.6003C42.8138 96.1559 41.2667 96.2824 39.7678 96.6467C38.936 96.848 39.1024 98.0874 39.9441 98.1173C41.2101 98.1622 42.4745 98.2055 43.7404 98.2504C43.7454 97.738 43.7521 97.2273 43.7571 96.7149C42.4911 96.67 41.2268 96.6251 39.9608 96.5768C40.024 97.0975 40.0855 97.6182 40.1471 98.1389C42.3647 97.6232 43.6889 96.3672 45.5022 95.063C46.2591 94.5173 45.8449 93.4426 44.91 93.5691C43.827 93.7155 41.9654 94.0831 41.2467 94.0582C41.2401 94.6022 41.2351 95.1461 41.2284 95.6901C42.2332 95.6951 44.7053 96.0611 45.3425 95.0247C46.7382 92.7472 41.7458 94.0216 41.3016 94.0498C40.2536 94.1164 40.2086 95.7317 41.2833 95.7018C42.7855 95.6619 44.2229 95.2193 45.7318 95.2044C45.5438 94.7253 45.3541 94.2478 45.1661 93.7687C44.2711 94.7436 43.6606 95.8864 43.0334 97.0443C42.5909 97.8611 43.6157 98.7611 44.326 98.0874C45.8216 96.67 47.041 95.2859 47.8495 93.3728C48.2172 92.5044 46.7732 91.8789 46.329 92.704C45.6602 93.9517 44.9881 95.1994 44.3177 96.4471C43.9434 97.1425 44.6837 98.0791 45.439 97.6166C46.7715 96.8031 47.254 95.5304 48.2371 94.3992C47.8063 94.0515 47.3754 93.7038 46.9445 93.3561C46.2741 94.6038 45.6037 95.8532 44.9316 97.0992C45.2477 96.9761 45.5621 96.8547 45.8782 96.7315C41.9038 95.9547 37.6051 95.1777 33.8404 97.1192C33.2432 97.4269 33.3097 98.475 34.0101 98.6164C37.4388 99.3101 41.2101 98.8776 44.0965 96.7748C44.6238 96.3905 44.3793 95.3108 43.6273 95.5903C40.5164 96.7448 37.833 97.753 34.4609 97.0493C34.5175 97.5484 34.5741 98.0474 34.6306 98.5465C37.9661 96.8497 41.9138 97.6565 45.4157 98.3419C45.765 98.4101 46.1776 98.3153 46.3623 97.9742C47.0344 96.7266 47.7048 95.4789 48.3752 94.2312C48.7978 93.4426 47.7381 92.4328 47.0826 93.1881C46.2392 94.1596 45.7617 95.4606 44.6305 96.1526C45.0031 96.5419 45.3774 96.9328 45.7517 97.3221C46.4222 96.0744 47.0926 94.8267 47.763 93.579C47.2556 93.3561 46.7499 93.1332 46.2425 92.9103C45.5604 94.5223 44.4209 95.6918 43.1732 96.8746C43.604 97.2223 44.0349 97.57 44.4658 97.9177C45.0148 96.9012 45.5338 95.8315 46.319 94.9731C46.7865 94.4624 46.522 93.5275 45.7534 93.5375C44.2428 93.5558 42.8038 94.0033 41.3049 94.0482C41.2983 94.5988 41.2933 95.1495 41.2866 95.7001C41.8989 95.6602 42.4894 95.5271 43.09 95.4023C43.8103 95.2509 43.965 95.4123 44.0881 94.5622C44.2528 93.4277 44.2046 94.128 43.604 93.9983C42.9186 93.8502 41.9704 94.0565 41.2501 94.0565C40.2003 94.0548 40.1804 95.6552 41.2317 95.6885C42.556 95.7317 43.9983 95.3192 45.3109 95.1378C45.1129 94.6404 44.9166 94.1413 44.7186 93.6439C43.08 94.8317 41.7674 96.1027 39.7578 96.6001C38.8811 96.8164 39.0458 98.1423 39.9441 98.1622C41.2101 98.1922 42.4745 98.2188 43.7404 98.2487C44.727 98.272 44.7469 96.7365 43.7571 96.7132C42.4911 96.6833 41.2268 96.6534 39.9608 96.6217C40.019 97.1125 40.0789 97.6016 40.1371 98.0924C41.6626 97.6182 43.2663 97.4336 44.7386 96.8047C45.3591 96.5386 45.0447 95.582 44.4292 95.5787C42.2199 95.567 40.0822 95.5537 37.9495 96.1925C37.3323 96.3772 37.5635 97.3138 38.1957 97.1641Z" fill="white"/>
<path d="M27.2043 88.1009C33.7173 92.5627 42.2881 91.7159 49.3051 88.9643C50.448 88.5168 49.8391 86.9231 48.6796 87.3839C42.0485 90.019 34.243 90.7793 27.9396 86.8998C27.1627 86.4223 26.4623 87.5919 27.2043 88.1009Z" fill="white"/>
<path d="M48.6015 88.6615C49.5447 88.347 50.4198 88.56 51.3464 88.1624C52.0201 87.8729 51.6541 86.8931 51.0186 86.8631C47.7497 86.7117 44.8018 91.4979 43.2946 93.9816C42.9253 94.5905 43.7671 95.3075 44.2828 94.7785C45.4373 93.5957 46.4604 92.3097 47.6216 91.1352C48.2155 90.5347 47.5085 89.6247 46.7682 89.974C45.1046 90.7593 43.5342 91.626 41.789 92.2399C41.9787 92.7173 42.1667 93.1931 42.3563 93.6705C43.4876 92.9569 44.2428 92.0968 45.1412 91.1136C45.6635 90.5413 45.2044 89.5581 44.3926 89.7611C40.1171 90.8225 35.9082 92.3713 31.4814 91.2018C31.3983 91.774 31.3134 92.3447 31.2302 92.9169C33.5509 92.9951 35.8717 93.0733 38.1924 93.1515C39.2155 93.1864 39.4267 91.6642 38.4519 91.3798C36.0596 90.6844 33.7755 90.0389 31.2868 89.8576C30.109 89.7727 30.094 91.5994 31.2668 91.6909C32.8789 91.8173 34.4792 92.1367 36.0663 92.4495C36.1545 91.8439 36.2443 91.2384 36.3325 90.6328C33.8454 90.5463 31.4315 90.3866 29.0043 89.7927C27.8299 89.5049 27.3225 91.24 28.4836 91.6027C30.1506 92.1234 31.8923 92.363 33.5077 93.0317C33.684 92.4195 33.8587 91.8073 34.035 91.1968C32.957 91.0021 31.9672 90.6594 30.8892 90.4631C29.8977 90.2835 29.0909 91.6526 30.1206 92.2116C35.2029 94.9648 40.721 93.9001 45.6935 91.4014C45.3791 90.8341 45.0663 90.2685 44.7519 89.7012C43.6639 90.2851 42.6175 90.9256 41.5295 91.5112C40.5347 92.0452 41.1785 93.5192 42.2382 93.2996C45.2709 92.6757 47.9726 91.4846 50.1669 89.2637C50.7159 88.708 50.0637 87.8929 49.385 88.199C46.7715 89.3801 44.6338 90.8291 41.7591 91.418C41.9953 92.0153 42.2316 92.6108 42.4678 93.2081C43.5558 92.6241 44.6022 91.9837 45.6918 91.4014C46.7998 90.8092 45.8665 89.1422 44.7502 89.7012C40.4565 91.8556 35.5705 92.9485 31.1238 90.5679C30.8676 91.1502 30.6114 91.7325 30.3552 92.3164C31.4349 92.5077 32.4247 92.8437 33.506 93.0334C34.7204 93.2463 35.1763 91.6642 34.0334 91.1984C32.418 90.538 30.6679 90.3068 29.001 89.7944C28.828 90.3983 28.655 91.0005 28.4803 91.6044C31.0822 92.2282 33.6358 92.4062 36.3092 92.4877C37.3273 92.5193 37.6217 90.8724 36.5753 90.6711C34.8269 90.3334 33.0618 89.9923 31.2851 89.8593C31.2785 90.4698 31.2718 91.082 31.2652 91.6925C33.5875 91.8522 35.7302 92.4794 37.9511 93.1149C38.0376 92.5243 38.1242 91.9338 38.2107 91.3448C35.89 91.285 33.5692 91.2267 31.2469 91.1668C30.272 91.1419 30.0308 92.6341 30.9957 92.882C35.7619 94.0997 40.1903 92.5959 44.7835 91.3099C44.534 90.8591 44.2844 90.4082 44.0349 89.9574C43.2447 90.8524 42.6574 91.631 41.6027 92.3147C40.914 92.7605 41.29 94.0665 42.17 93.7454C44.0232 93.0683 45.7251 92.165 47.4719 91.2467C47.1874 90.8591 46.9029 90.4731 46.6184 90.0855C45.5022 91.3082 44.5257 92.6374 43.3994 93.8535C43.7288 94.1197 44.0582 94.3842 44.3876 94.6504C45.7085 92.4212 48.2521 88.214 51.0037 88.2489C50.8939 87.8164 50.7857 87.3838 50.6759 86.9496C49.8375 87.3439 49.0124 87.1526 48.1905 87.625C47.6565 87.9311 47.9759 88.8711 48.6015 88.6615Z" fill="white"/>
<path d="M28.6001 89.1289C34.3644 91.7208 42.7756 92.2897 48.683 89.8492C49.1687 89.648 48.9508 88.7945 48.4301 88.8444C45.231 89.1505 42.155 89.8759 38.9077 89.8393C35.504 89.801 32.2051 89.2271 28.9062 88.4335C28.5103 88.3404 28.1875 88.9443 28.6001 89.1289Z" fill="white"/>
<path d="M48.648 89.7944C47.7181 91.3116 46.522 92.5726 45.8183 94.2312C45.5854 94.7785 46.3939 95.1927 46.7782 94.8118C47.4353 94.1596 47.966 93.3778 48.5266 92.6458C48.9026 92.155 49.7161 91.4513 49.8159 90.8025C49.8991 90.2618 49.5281 89.7844 48.9442 89.9042C48.3386 90.0289 47.8595 91.0587 47.5584 91.4929C47.1142 92.135 46.2591 93.0167 46.1976 93.8369C46.1626 94.311 46.6767 94.6704 47.1109 94.5556C47.2839 94.509 47.402 94.4208 47.5368 94.3094C47.9826 93.9384 47.7297 93.2347 47.234 93.075C44.6571 92.2482 41.8473 93.2463 39.3369 93.8768C38.9959 93.9633 39.0408 94.5439 39.4134 94.509C41.7907 94.2877 44.4974 93.7421 46.8297 94.4824C46.7283 94.0715 46.6268 93.6589 46.527 93.248C46.6018 93.2097 46.6767 93.1715 46.7515 93.1349C47.056 93.3744 47.3604 93.614 47.6649 93.8535C47.6416 94.1779 47.941 93.5408 48.0358 93.3927C48.2604 93.0467 48.4933 92.7073 48.7262 92.3679C48.9159 92.0918 49.1355 91.8206 49.3052 91.5312C49.5796 91.0637 49.8175 91.1452 49.3018 91.3033C49.0024 91.067 48.7013 90.8325 48.4018 90.5962C48.4185 90.3167 48.1822 90.889 48.1074 91.0121C47.8728 91.3914 47.6449 91.7724 47.392 92.14C46.9595 92.7689 46.5087 93.4227 45.9796 93.9733C46.2991 94.1663 46.6185 94.3609 46.9395 94.5539C47.5634 92.9835 48.6231 91.7358 49.4366 90.2752C49.7177 89.7578 48.9575 89.2886 48.648 89.7944Z" fill="white"/>
<path d="M34.0434 94.1497C33.2465 94.4791 32.5627 95.1412 32.7474 96.0811C32.9304 97.0144 33.9369 97.788 34.8851 97.7015C35.2927 97.6649 35.5323 97.2141 35.2395 96.8863C34.7371 96.3257 33.496 95.8532 34.6189 95.1861C35.2894 94.7885 34.7337 93.8636 34.0434 94.1497Z" fill="white"/>
<path d="M30.089 97.6214C28.5186 105.445 27.7583 113.366 29.3204 121.253C29.3953 121.634 29.9343 121.685 30.1256 121.374C30.7761 120.318 31.4698 119.321 32.077 118.24C32.3265 117.797 31.686 117.408 31.4049 117.829C30.2104 119.612 30.3751 120.389 29.6864 118.313C28.9811 116.187 29.2422 113.02 29.2888 110.799C29.382 106.432 30.0075 102.115 30.786 97.8227C30.8692 97.3685 30.1822 97.1606 30.089 97.6214Z" fill="white"/>
<path d="M31.3783 118.031C30.7877 128.04 33.6907 138.069 38.0376 146.999C38.3354 147.611 39.2587 147.097 38.9609 146.488C34.5325 137.425 32.4164 128.099 32.1053 118.039C32.0903 117.571 31.4066 117.563 31.3783 118.031Z" fill="white"/>
<path d="M38.8462 145.022C41.275 140.12 42.4096 134.631 43.268 129.26C43.3611 128.674 42.4661 128.41 42.3713 129.002C41.5029 134.382 40.2286 139.672 38.229 144.749C38.0892 145.104 38.6748 145.367 38.8462 145.022Z" fill="white"/>
<path d="M42.5842 129.516C43.9833 130.419 44.6687 131.966 45.6236 133.261C45.8382 133.55 46.284 133.247 46.2058 132.938C45.8033 131.347 44.5239 129.531 43.0533 128.746C42.5443 128.474 42.0918 129.2 42.5842 129.516Z" fill="white"/>
<path d="M46.2608 132.497C48.302 121.57 50.3266 109.847 48.5532 98.7726C48.4783 98.3068 47.6898 98.395 47.7247 98.8725C48.5748 110.351 46.6717 121.026 45.5105 132.389C45.4672 132.811 46.1809 132.921 46.2608 132.497Z" fill="white"/>
<path d="M0.907975 101.28C2.33201 87.8845 8.61206 73.0736 21.0541 66.4608C22.0123 65.9518 21.1955 64.4778 20.2389 64.9885C8.18285 71.4333 0.230889 87.8762 0.195953 101.273C0.195953 101.737 0.861395 101.729 0.907975 101.28Z" fill="white"/>
<path d="M0.690029 101.814C3.227 101.158 5.87211 100.183 8.27267 99.1303C8.94476 98.8342 8.49892 97.7296 7.80021 97.9375C5.28986 98.6845 2.64807 99.6576 0.284112 100.791C-0.289827 101.065 0.087809 101.97 0.690029 101.814Z" fill="white"/>
<path d="M7.79522 99.3916C10.3339 96.8497 12.8342 94.3277 15.6756 92.1101C19.1525 89.3968 22.3633 88.0493 26.4823 86.74C26.9864 86.5803 27.0696 85.8001 26.499 85.6554C23.2882 84.8385 19.2623 87.7315 16.8219 89.4783C13.2285 92.0485 9.62184 95.1711 7.03828 98.7811C6.71388 99.2369 7.4076 99.7809 7.79522 99.3916Z" fill="white"/>
<path d="M77.3034 102.261C78.0054 88.6031 70.9934 71.5945 59.117 64.2548C58.1937 63.6842 57.3153 65.1248 58.2386 65.6905C70.4594 73.1883 75.9509 88.5515 76.5914 102.253C76.613 102.709 77.2801 102.722 77.3034 102.261Z" fill="white"/>
<path d="M77.2368 101.784C74.8779 100.506 72.281 99.3916 69.7723 98.44C69.0969 98.1838 68.6011 99.2901 69.2566 99.6128C71.6654 100.797 74.2507 101.937 76.7943 102.789C77.3816 102.988 77.7891 102.083 77.2368 101.784Z" fill="white"/>
<path d="M70.5043 99.3351C67.3717 94.4309 60.0553 85.7702 53.4159 86.6253C52.8286 86.7002 52.9135 87.5552 53.3992 87.71C60.4712 89.9641 64.9146 94.4092 69.7207 99.9091C70.0834 100.323 70.8054 99.8059 70.5043 99.3351Z" fill="white"/>
<path d="M33.2215 97.7514C32.6593 94.559 31.2435 91.468 29.5916 88.6998C29.2123 88.9094 28.8347 89.119 28.4554 89.3287C29.4485 90.8908 29.3238 93.0135 30.2787 94.6871C31.1753 96.2625 32.3182 97.5401 33.8155 98.5516C33.9668 98.0242 34.1182 97.4969 34.2696 96.9695C33.4345 96.903 32.5977 96.8398 31.7626 96.7782C30.9291 96.715 30.5665 97.9777 31.3051 98.3686C33.2964 99.4217 35.9182 99.8326 37.6783 98.1374C37.9728 97.8529 37.7981 97.1841 37.324 97.2407C35.4541 97.4619 33.9868 97.8462 32.2001 96.9046C32.047 97.4353 31.8957 97.9643 31.7426 98.495C32.5777 98.5566 33.4145 98.6181 34.2496 98.678C35.123 98.7396 35.3759 97.5302 34.7038 97.096C32.8539 95.9032 31.3966 94.3976 30.6946 92.2715C30.297 91.0654 30.3419 89.7628 29.5899 88.7015C29.1158 88.0344 27.9929 88.6166 28.4537 89.3303C30.2154 92.0586 31.3567 94.9 32.4397 97.951C32.6143 98.4351 33.3114 98.2671 33.2215 97.7514Z" fill="white"/>
<path d="M40.4681 95.5553C40.2036 95.349 40.0223 95.0862 39.9824 94.7485C39.5964 94.9631 39.2088 95.176 38.8228 95.3906C39.2803 95.6152 39.5265 95.8764 39.7162 96.3505C40.0472 97.1773 41.1103 96.645 41.1985 95.9762C41.3315 94.9631 40.9156 93.95 40.162 93.2646C39.5631 92.7206 38.387 93.1864 38.6764 94.0864C39.1539 95.5686 40.0572 96.7714 41.3515 97.6398C41.4347 97.0908 41.5179 96.5435 41.5994 95.9945C40.8574 96.1576 40.1155 96.3206 39.3735 96.482C38.5816 96.655 38.4984 97.7197 39.124 98.1339C39.7777 98.5681 40.4981 98.7827 41.2816 98.8076C42.4861 98.8459 42.4229 97.149 41.3016 96.9877C41.1602 96.9677 40.9872 96.8363 40.9739 96.6832C40.9339 96.2008 40.3151 95.9612 40.0306 96.4121C39.3552 97.4868 40.1188 98.6446 41.2816 98.8076C41.2883 98.2004 41.2949 97.5949 41.3016 96.9877C40.8308 96.9744 40.4648 96.8446 40.0705 96.5868C39.9874 97.1374 39.9042 97.6881 39.821 98.2387C40.563 98.074 41.3033 97.9076 42.0452 97.7429C42.8338 97.5666 42.9169 96.5119 42.2931 96.0977C41.4081 95.5088 40.7293 94.6587 40.375 93.6522C39.9391 93.9733 39.5032 94.296 39.0674 94.6171C39.5032 94.9298 39.6463 95.4389 39.6164 95.9579C40.1105 95.8331 40.6045 95.7084 41.0986 95.5836C40.7676 94.8233 40.182 94.3243 39.4301 94.0065C38.926 93.7936 38.2805 94.4141 38.4818 94.9265C38.758 95.6319 39.1739 96.2025 39.8243 96.6051C40.5164 97.0343 41.077 96.0295 40.4681 95.5553Z" fill="white"/>
<path d="M27.4888 88.4701C28.0644 90.0122 29.8894 91.4745 31.4881 91.8521C32.1202 92.0019 32.6077 91.373 32.3299 90.7941C31.8474 89.7876 31.182 89.2237 30.1173 88.9043C29.2456 88.6431 28.7548 89.8508 29.4868 90.3383C31.0921 91.4063 33.501 92.649 35.4591 92.0401C35.8733 91.9104 36.0313 91.2982 35.6071 91.0636C34.8585 90.6527 34.0899 90.5545 33.2764 90.32C32.2234 90.0189 31.2535 89.5414 30.3119 88.9891C30.1023 89.4666 29.891 89.944 29.6814 90.4231C30.3302 90.5146 30.7861 90.874 31.0506 91.5028C31.3317 91.1501 31.6129 90.7974 31.8923 90.4447C30.2637 90.0804 29.5666 88.4385 28.0594 87.9161C27.7533 87.808 27.369 88.1457 27.4888 88.4701Z" fill="white"/>
<path d="M47.1591 91.8873C47.6099 91.5745 48.0807 91.3383 48.6114 91.1952C49.0938 91.0654 49.5929 91.0222 50.0537 90.8209C50.3598 90.6878 50.3881 90.1438 50.072 90.0007C48.9242 89.4834 47.5034 90.1105 46.5602 90.8026C45.9297 91.2651 46.497 92.3464 47.1591 91.8873Z" fill="white"/>
<path d="M55.0911 87.1175C56.2689 84.8584 57.6281 82.4229 58.3085 79.9558C58.4 79.6214 57.9175 79.3902 57.7395 79.7046C56.4835 81.9371 55.6234 84.4575 54.5687 86.7981C54.4107 87.1475 54.9064 87.4736 55.0911 87.1175Z" fill="white"/>
<path d="M58.7626 78.2274C60.1185 74.526 61.1482 70.6564 61.4044 66.7054C61.436 66.2197 60.6209 66.0849 60.541 66.579C59.9255 70.4618 59.27 74.2731 58.1305 78.0461C58.0074 78.4554 58.6179 78.6217 58.7626 78.2274Z" fill="white"/>
<path d="M56.7281 87.9046C58.9007 84.1366 60.7307 79.7979 61.8186 75.5907C61.9284 75.1648 61.3279 75.0068 61.1715 75.4044C59.5645 79.5001 57.9392 83.5277 56.1525 87.5519C55.9828 87.9362 56.5051 88.2922 56.7281 87.9046Z" fill="white"/>
<path d="M62.203 73.7241C62.8252 72.0971 63.3575 70.3953 63.5804 68.6601C63.6403 68.1877 62.8701 68.0862 62.7553 68.5387C62.3327 70.199 62.0017 71.8808 61.5425 73.5328C61.4211 73.9653 62.0466 74.1317 62.203 73.7241Z" fill="white"/>
<path d="M58.8675 88.49C59.6361 87.7547 60.1302 86.8963 60.2649 85.8366C60.3082 85.4922 59.8191 85.4157 59.6544 85.6619C59.1486 86.4155 58.7178 87.214 58.247 87.9893C58.0124 88.3769 58.5364 88.8061 58.8675 88.49Z" fill="white"/>
<path d="M60.521 84.8469C62.8634 80.5764 64.685 75.8402 65.6915 71.074C65.7813 70.6498 65.1441 70.4568 65.0377 70.886C63.8316 75.6838 62.2279 80.0907 59.9404 84.4925C59.7391 84.8785 60.3081 85.2345 60.521 84.8469Z" fill="white"/>
<path d="M60.8821 88.7529C61.5625 87.6833 62.4126 86.577 62.8484 85.3825C62.9499 85.1014 62.5357 84.8402 62.336 85.0731C61.5076 86.0396 60.9586 87.3173 60.3597 88.4352C60.175 88.7796 60.6691 89.0873 60.8821 88.7529Z" fill="white"/>
<path d="M64.4554 81.5711C65.2224 79.8343 66.0741 78.0892 66.6614 76.2825C66.7579 75.9881 66.302 75.7768 66.154 76.0596C65.2773 77.7465 64.6285 79.5748 63.9264 81.3382C63.8083 81.641 64.324 81.8705 64.4554 81.5711Z" fill="white"/>
<path d="M62.3577 90.8656C63.9747 89.0823 65.6283 86.8065 66.174 84.4225C66.2505 84.0898 65.778 83.8386 65.5983 84.1697C64.3956 86.3823 63.4706 88.485 61.8669 90.4714C61.6423 90.7492 62.1164 91.1318 62.3577 90.8656Z" fill="white"/>
<path d="M63.6952 92.1084C64.3207 92.1217 64.7882 91.7407 64.8996 91.1252C64.9695 90.7392 64.5286 90.5596 64.2891 90.8574C64.1194 91.067 63.8499 91.225 63.602 91.3182C63.1961 91.4695 63.2078 92.0984 63.6952 92.1084Z" fill="white"/>
<path d="M66.2904 89.6147C66.6664 88.8312 67.1022 88.056 67.3618 87.2258C67.4682 86.8865 66.9875 86.6901 66.7995 86.9779C66.342 87.68 66.0342 88.4835 65.6832 89.2438C65.4935 89.653 66.0908 90.0306 66.2904 89.6147Z" fill="white"/>
<path d="M65.6067 93.7637C66.1307 93.2496 66.7512 92.7406 67.0573 92.0602C67.2004 91.7424 66.9092 91.3082 66.5449 91.5262C65.8695 91.9304 65.422 92.6225 64.9512 93.2347C64.6551 93.6206 65.2706 94.0931 65.6067 93.7637Z" fill="white"/>
<path d="M25.3195 86.0395C25.0467 85.3791 24.9868 84.6238 24.6773 83.9883C24.526 83.6756 24.0834 83.7754 23.982 84.0665C23.7075 84.8534 24.1217 85.8133 24.5825 86.4471C24.9019 86.8863 25.5274 86.5453 25.3195 86.0395Z" fill="white"/>
<path d="M24.0235 82.4147C23.2649 79.8412 22.686 77.2493 22.1354 74.6258C21.5897 72.0306 21.4051 69.2907 20.6697 66.7537C20.5566 66.3611 19.9494 66.4143 19.9461 66.8402C19.8995 72.0606 21.8808 77.6303 23.3631 82.5828C23.4895 83.002 24.1483 82.8373 24.0235 82.4147Z" fill="white"/>
<path d="M22.4248 86.5154C22.0955 85.3143 21.7711 84.1032 21.5016 82.8871C21.2321 81.6743 21.1389 80.405 20.7929 79.2156C20.6864 78.8512 20.1424 78.9078 20.1308 79.2954C20.0509 81.7209 20.9309 84.4409 21.796 86.6768C21.9407 87.0544 22.538 86.9296 22.4248 86.5154Z" fill="white"/>
<path d="M20.0675 77.1811C19.64 74.2565 19.259 71.0324 18.3457 68.221C18.2459 67.9148 17.7285 67.9298 17.7501 68.2925C17.9298 71.2786 18.75 74.4311 19.4287 77.3441C19.5268 77.765 20.1274 77.592 20.0675 77.1811Z" fill="white"/>
<path d="M20.5034 87.5501C20.2755 86.2258 19.9827 84.7469 19.3206 83.5641C19.1659 83.2863 18.6934 83.3844 18.7034 83.7205C18.7483 85.0763 19.2574 86.4887 19.7465 87.743C19.9278 88.2039 20.5899 88.0558 20.5034 87.5501Z" fill="white"/>
<path d="M18.9928 82.3547C18.6119 79.9524 18.3341 77.3922 17.6087 75.0681C17.5072 74.7437 16.9583 74.7654 16.9832 75.143C17.1462 77.6051 17.8084 80.1138 18.3257 82.5244C18.4189 82.9635 19.061 82.7855 18.9928 82.3547Z" fill="white"/>
<path d="M18.0479 88.2706C17.82 87.4088 17.5655 86.5504 17.3908 85.6754C17.2161 84.8086 17.2261 83.8854 16.9965 83.0369C16.9233 82.7641 16.4625 82.7142 16.406 83.0286C16.0932 84.7421 16.737 86.9613 17.4823 88.4935C17.637 88.8096 18.1361 88.6033 18.0479 88.2706Z" fill="white"/>
<path d="M30.8526 24.6315C37.6766 28.3164 45.597 28.5443 52.5208 25.0075C53.2195 24.6515 52.6256 23.5801 51.9319 23.9428C45.3008 27.4197 37.8097 27.6127 31.1121 24.2073C30.8309 24.0642 30.5698 24.4785 30.8526 24.6315Z" fill="white"/>
<path d="M31.924 22.2974C37.8181 25.6163 45.8915 24.856 51.8621 22.1643C52.4926 21.8798 51.9686 20.9499 51.343 21.2277C45.0347 24.0226 38.6132 23.976 32.1801 21.7135C31.8374 21.5937 31.6095 22.1194 31.924 22.2974Z" fill="white"/>
<path d="M33.1483 20.0949C37.8829 22.9363 45.1778 22.4123 49.8707 19.7406C50.3116 19.4894 50.0388 18.6809 49.5297 18.8805C46.8913 19.9119 44.4092 20.7487 41.5395 20.8402C38.6898 20.9317 36.1361 20.1565 33.4029 19.5193C33.0618 19.4411 32.8306 19.9053 33.1483 20.0949Z" fill="white"/>
<path d="M34.3761 17.8741C38.8162 20.1699 45.3575 20.6856 49.4615 17.3135C49.8009 17.034 49.385 16.6081 49.044 16.7445C44.1347 18.7159 39.7478 19.7373 34.6872 17.365C34.3478 17.2037 34.0317 17.6944 34.3761 17.8741Z" fill="white"/>
<path d="M35.1863 15.9975C39.0092 17.6311 44.5506 17.9555 48.1789 15.5949C48.5266 15.3687 48.3386 14.7831 47.9027 14.8962C45.7767 15.4518 43.9318 16.2088 41.6826 16.3019C39.5282 16.3918 37.4155 16.0191 35.3576 15.4019C34.965 15.2838 34.8303 15.8461 35.1863 15.9975Z" fill="white"/>
<path d="M37.665 13.8364C39.8992 15.2039 43.7022 15.1141 45.8781 13.6501C46.2658 13.3906 46.0661 12.6786 45.5571 12.8383C44.2761 13.2409 43.1548 13.71 41.7857 13.7832C40.4449 13.8531 39.2155 13.522 37.9162 13.2675C37.5818 13.2009 37.3472 13.6418 37.665 13.8364Z" fill="white"/>
<path d="M39.0192 11.7521C40.3467 12.9299 43.1665 12.5689 44.524 11.6223C44.8251 11.4127 44.677 10.8554 44.2695 10.9802C43.4144 11.243 42.5975 11.5108 41.6926 11.5375C40.8491 11.5624 40.0772 11.2247 39.2537 11.2147C38.9959 11.2131 38.8095 11.5657 39.0192 11.7521Z" fill="white"/>
<path d="M40.1554 10.135C41.0537 10.5342 42.3463 10.5442 43.0084 9.7124C43.1848 9.48948 42.907 9.21499 42.6757 9.26157C42.3164 9.33477 41.9887 9.50445 41.6243 9.56268C41.2284 9.62589 40.8241 9.58431 40.4349 9.49613C40.0755 9.41462 39.7728 9.9636 40.1554 10.135Z" fill="white"/>
<path d="M41.8073 8.91233C41.7191 7.51824 41.6143 6.16075 41.7025 4.76167C41.7591 3.85335 40.3384 3.83671 40.2868 4.74669C40.2053 6.17738 40.2053 7.65964 40.4665 9.07369C40.6045 9.82231 41.8556 9.6859 41.8073 8.91233Z" fill="white"/>
<path d="M42.7939 0.672467C43.8952 1.65066 43.9966 3.33754 43.0168 4.43884C42.0386 5.54013 40.3517 5.64161 39.2504 4.66176C38.1491 3.68357 38.0476 1.99668 39.0258 0.895388C40.0057 -0.204246 41.6926 -0.305724 42.7939 0.672467Z" fill="white"/>
</svg>
