<svg width="57" height="45" viewBox="0 0 57 45" fill="none" xmlns="http://www.w3.org/2000/svg">
<path d="M51.3 0H5.7C4.18827 0 2.73845 0.592632 1.66949 1.64752C0.600534 2.70242 0 4.13316 0 5.625V39.375C0 40.8668 0.600534 42.2976 1.66949 43.3525C2.73845 44.4074 4.18827 45 5.7 45H51.3C52.8117 45 54.2615 44.4074 55.3305 43.3525C56.3995 42.2976 57 40.8668 57 39.375V5.625C57 4.13316 56.3995 2.70242 55.3305 1.64752C54.2615 0.592632 52.8117 0 51.3 0ZM51.3 13.2187L28.5 28.2206L5.7 13.2187V6.46031L28.5 21.4594L51.3 6.46031V13.2187Z" fill="url(#paint0_linear_57_2422)"/>
<defs>
<linearGradient id="paint0_linear_57_2422" x1="28.5" y1="0" x2="28.5" y2="45" gradientUnits="userSpaceOnUse">
<stop stop-color="#D25D5D"/>
<stop offset="1" stop-color="white"/>
</linearGradient>
</defs>
</svg>
