<svg width="49" height="48" viewBox="0 0 49 48" fill="none" xmlns="http://www.w3.org/2000/svg">
<path fill-rule="evenodd" clip-rule="evenodd" d="M24.5 0C10.9678 0 0 11.0159 0 24.6075C0 35.4778 7.0179 44.7026 16.755 47.9592C17.9807 48.1813 18.4229 47.4239 18.4229 46.7725C18.4229 46.1878 18.4032 44.6384 18.3959 42.5882C11.5794 44.0734 10.14 39.2871 10.14 39.2871C9.02968 36.445 7.42074 35.6875 7.42074 35.6875C5.19771 34.1604 7.59023 34.1949 7.59023 34.1949C10.0515 34.3676 11.3411 36.7312 11.3411 36.7312C13.5273 40.4911 17.0793 39.4056 18.4696 38.7764C18.6931 37.1851 19.3318 36.0996 20.0294 35.4852C14.5909 34.866 8.87247 32.7541 8.87247 23.3221C8.87247 20.6403 9.828 18.4396 11.3878 16.7224C11.1397 16.0983 10.2923 13.5941 11.631 10.2091C11.631 10.2091 13.687 9.54546 18.3664 12.7281C20.3649 12.182 22.4264 11.9033 24.4975 11.8991C26.5687 11.9025 28.6303 12.1813 30.6287 12.7281C35.3106 9.54299 37.3641 10.2091 37.3641 10.2091C38.7028 13.5941 37.8627 16.0983 37.6073 16.7224C39.1794 18.4396 40.1226 20.6378 40.1226 23.3221C40.1226 32.7788 34.3992 34.8561 28.9411 35.4655C29.8132 36.2254 30.5992 37.7254 30.5992 40.0199C30.5992 43.3111 30.5697 45.9658 30.5697 46.7725C30.5697 47.4313 31.007 48.1961 32.2573 47.9543C41.9895 44.6927 49 35.4754 49 24.6075C49 11.0159 38.0322 0 24.5 0Z" fill="white"/>
</svg>
