<svg width="49" height="50" viewBox="0 0 49 50" fill="none" xmlns="http://www.w3.org/2000/svg">
<path d="M48.8422 14.4867C48.8147 12.4258 48.4289 10.3855 47.7021 8.45691C47.0718 6.83016 46.109 5.35277 44.8754 4.11915C43.6418 2.88553 42.1644 1.92281 40.5377 1.29248C38.6339 0.577826 36.6226 0.1914 34.5895 0.149656C31.9719 0.0326523 31.142 0 24.4973 0C17.8526 0 17.0009 1.82458e-07 14.4023 0.149656C12.3702 0.191706 10.3598 0.578128 8.45691 1.29248C6.8299 1.92237 5.35229 2.88494 4.11862 4.11861C2.88494 5.35229 1.92237 6.8299 1.29248 8.45691C0.576395 10.3593 0.190806 12.37 0.152377 14.4023C0.0353732 17.0227 0 17.8526 0 24.4973C0 31.142 -2.02731e-08 31.9909 0.152377 34.5922C0.193192 36.6276 0.576854 38.6357 1.29248 40.5431C1.92342 42.1696 2.88671 43.6466 4.1208 44.8798C5.35489 46.1129 6.83264 47.0751 8.45963 47.7048C10.3574 48.4482 12.368 48.8623 14.405 48.9292C17.0254 49.0463 17.8553 49.0816 24.5 49.0816C31.1447 49.0816 31.9964 49.0816 34.595 48.9292C36.628 48.8892 38.6394 48.5037 40.5431 47.7891C42.1694 47.1581 43.6464 46.1951 44.88 44.9616C46.1135 43.7281 47.0765 42.251 47.7075 40.6247C48.4232 38.72 48.8068 36.7119 48.8476 34.6739C48.9646 32.0563 49 31.2263 49 24.5789C48.9946 17.9342 48.9946 17.0907 48.8422 14.4867ZM24.481 37.0629C17.5315 37.0629 11.9017 31.4331 11.9017 24.4837C11.9017 17.5342 17.5315 11.9044 24.481 11.9044C27.8172 11.9044 31.0168 13.2297 33.3758 15.5888C35.7349 17.9479 37.0602 21.1475 37.0602 24.4837C37.0602 27.8199 35.7349 31.0195 33.3758 33.3785C31.0168 35.7376 27.8172 37.0629 24.481 37.0629ZM37.5609 14.3724C37.1756 14.3727 36.794 14.2971 36.4379 14.1498C36.0819 14.0026 35.7584 13.7865 35.4859 13.5141C35.2135 13.2416 34.9974 12.9181 34.8502 12.5621C34.7029 12.206 34.6273 11.8244 34.6276 11.4391C34.6276 11.0541 34.7034 10.6729 34.8508 10.3172C34.9981 9.96144 35.2141 9.63823 35.4863 9.36598C35.7586 9.09373 36.0818 8.87777 36.4375 8.73042C36.7932 8.58308 37.1745 8.50725 37.5595 8.50725C37.9445 8.50725 38.3258 8.58308 38.6815 8.73042C39.0372 8.87777 39.3604 9.09373 39.6327 9.36598C39.9049 9.63823 40.1209 9.96144 40.2682 10.3172C40.4156 10.6729 40.4914 11.0541 40.4914 11.4391C40.4914 13.0609 39.1799 14.3724 37.5609 14.3724Z" fill="url(#paint0_linear_57_2418)"/>
<path d="M24.4809 32.6549C28.9938 32.6549 32.6521 28.9965 32.6521 24.4837C32.6521 19.9709 28.9938 16.3125 24.4809 16.3125C19.9681 16.3125 16.3097 19.9709 16.3097 24.4837C16.3097 28.9965 19.9681 32.6549 24.4809 32.6549Z" fill="url(#paint1_linear_57_2418)"/>
<defs>
<linearGradient id="paint0_linear_57_2418" x1="4.25279" y1="6.19921" x2="44.2999" y2="43.4111" gradientUnits="userSpaceOnUse">
<stop stop-color="#515BD4"/>
<stop offset="0.494792" stop-color="#DD2A7B"/>
<stop offset="1" stop-color="#F58529"/>
</linearGradient>
<linearGradient id="paint1_linear_57_2418" x1="17.7281" y1="18.3766" x2="31.064" y2="30.789" gradientUnits="userSpaceOnUse">
<stop stop-color="#515BD4"/>
<stop offset="0.494792" stop-color="#DD2A7B"/>
<stop offset="1" stop-color="#F58529"/>
</linearGradient>
</defs>
</svg>
