<svg width="50" height="50" viewBox="0 0 50 50" fill="none" xmlns="http://www.w3.org/2000/svg">
<path d="M6.12745 12.2549C9.51155 12.2549 12.2549 9.51155 12.2549 6.12745C12.2549 2.74335 9.51155 0 6.12745 0C2.74335 0 0 2.74335 0 6.12745C0 9.51155 2.74335 12.2549 6.12745 12.2549Z" fill="url(#paint0_linear_57_2423)"/>
<path d="M17.4737 16.5138V49.9972H27.8955V33.4389C27.8955 29.0697 28.7195 24.8384 34.1502 24.8384C39.5063 24.8384 39.5727 29.8338 39.5727 33.7148V50H50V31.6377C50 22.618 48.0533 15.6863 37.485 15.6863C32.411 15.6863 29.0098 18.4639 27.619 21.0926H27.4779V16.5138H17.4737ZM0.490196 16.5138H10.9286V49.9972H0.490196V16.5138Z" fill="url(#paint1_linear_57_2423)"/>
<defs>
<linearGradient id="paint0_linear_57_2423" x1="6.12745" y1="0" x2="6.12745" y2="12.2549" gradientUnits="userSpaceOnUse">
<stop stop-color="#00A3FF"/>
<stop offset="1" stop-color="#015382"/>
</linearGradient>
<linearGradient id="paint1_linear_57_2423" x1="25.2451" y1="15.6863" x2="25.2451" y2="50" gradientUnits="userSpaceOnUse">
<stop stop-color="#00A3FF"/>
<stop offset="1" stop-color="#015382"/>
</linearGradient>
</defs>
</svg>
