<?xml version="1.0" encoding="utf-8"?>
<!-- Generator: Adobe Illustrator 24.0.1, SVG Export Plug-In . SVG Version: 6.00 Build 0)  -->
<svg version="1.1" id="Capa_1" xmlns="http://www.w3.org/2000/svg" xmlns:xlink="http://www.w3.org/1999/xlink" x="0px" y="0px"
	 viewBox="0 0 2363.3 641.6" style="enable-background:new 0 0 2363.3 641.6;" xml:space="preserve">
<style type="text/css">
	.st0{fill:#E5E5E5;}
</style>
<g>
	<g>
		<g>
			<rect x="223.3" y="341.3" transform="matrix(0.8344 -0.5512 0.5512 0.8344 -131.3142 260.0438)" width="287.5" height="14.4"/>
		</g>
		<g>
			<g>
				<path d="M496.6,285.7c8.8-5.8,11.2-17.6,5.4-26.3c-5.8-8.8-17.6-11.2-26.3-5.4c-8.7,5.8-11.2,17.6-5.4,26.3
					S487.9,291.5,496.6,285.7z"/>
			</g>
		</g>
	</g>
	<g>
		<g>
			<rect x="108" y="240.3" transform="matrix(0.8344 -0.5512 0.5512 0.8344 -94.714 179.749)" width="287.5" height="14.4"/>
		</g>
		<g>
			<g>
				<path d="M381.2,184.7c8.8-5.8,11.2-17.6,5.4-26.3s-17.6-11.2-26.3-5.4s-11.2,17.6-5.4,26.3S372.4,190.5,381.2,184.7z"/>
			</g>
		</g>
	</g>
	<g>
		<g>
			<rect x="368.2" y="167.8" transform="matrix(0.8344 -0.5512 0.5512 0.8344 -11.6806 311.1754)" width="287.5" height="14.4"/>
		</g>
		<g>
			<g>
				<path d="M382.3,237.9c-8.8,5.8-11.2,17.6-5.4,26.3c5.8,8.7,17.6,11.2,26.3,5.4s11.2-17.6,5.4-26.3S391.1,232.1,382.3,237.9z"/>
			</g>
		</g>
	</g>
	<g>
		<path d="M40.2,456.6c0,0,52.9,60.2,153.9,15.1L11.4,629.8L40.2,456.6z"/>
	</g>
	<g>
		<path d="M752.2,245l33.7,43.3l-91.4,341.5l-86.6-240.5v-52.9C607.9,336.3,742.5,269,752.2,245z"/>
	</g>
	<g>
		<path d="M593.4,350.8c0,0-38.5,28.9-125.1,67.3l-48.1,216.5l197.3-153.9l-28.9-72.2L593.4,350.8z"/>
	</g>
	<g>
		<polygon points="824.3,220.9 906.1,148.7 954.2,28.5 877.2,28.5 795.4,76.6 660.8,177.6 809.9,230.5 		"/>
	</g>
</g>
<g>
	<g>
		<g>
			<path d="M135,502.8c-21.4,0-42.9-1-64.7-3.1l-40.7-3.9l6.4-40.4c1.7-10.8,44.4-266.8,246.9-384.8c127.2-74.1,286.4-76.1,473.3-6
				l0,0c-14.6,38.9-56.5,60.4-96.5,49.2c-133.5-37.4-246.9-29.7-337.6,23c-126.4,73.4-180.6,217.6-200.4,288.9
				c4.1,0.1,8.1,0.1,12.2,0.1c221.1,0,420.1-120.3,514.9-188.2c34.3-24.6,81.6-19.4,109.7,12.1l0,0
				C746.2,260.6,470.2,502.8,135,502.8z"/>
		</g>
	</g>
</g>
<g>
	<g>
		<g>
			<path class="st0" d="M2266.2,578.4c0-6.3,0-12.3,0.1-18.3c0-0.5,0.6-1.3,1.2-1.6c8.9-4.6,17.7-9.2,26.6-13.8
				c10.9-5.6,21.8-11.3,32.7-16.9c0.5-0.3,1-0.5,1.8-1c-0.7-0.4-1.2-0.7-1.8-1c-19.7-10.2-39.4-20.3-59.1-30.5
				c-1.1-0.6-1.6-1.2-1.6-2.5c0.1-5.8,0-11.6,0-17.6c0.6,0.3,1.1,0.5,1.5,0.7c27.4,14.6,54.9,29.2,82.3,43.8c1,0.5,1.4,1.2,1.4,2.3
				c-0.1,3.2-0.1,6.5,0,9.7c0,1-0.3,1.5-1.1,2c-27.6,14.7-55.2,29.3-82.7,44C2267.2,578,2266.8,578.1,2266.2,578.4z"/>
			<path class="st0" d="M2166.3,475.1c0,6.5,0,12.6-0.1,18.7c0,0.5-0.7,1.1-1.2,1.4c-12.4,6.4-24.7,12.8-37.1,19.2
				c-7.4,3.8-14.8,7.7-22.2,11.5c-0.5,0.2-0.9,0.5-1.7,0.9c0.7,0.4,1.2,0.7,1.8,1c19.6,10.1,39.3,20.3,58.9,30.4
				c1.3,0.7,1.7,1.4,1.7,2.8c-0.1,5.2,0,10.3,0,15.5c0,0.6,0,1.1,0,1.9c-0.8-0.3-1.3-0.6-1.8-0.8c-27.3-14.5-54.6-29.1-81.9-43.6
				c-1.2-0.6-1.6-1.3-1.5-2.6c0.1-3.1,0.1-6.2,0-9.3c0-1.2,0.4-1.9,1.5-2.5c23.6-12.5,47.1-25,70.6-37.6
				C2157.5,479.8,2161.7,477.6,2166.3,475.1z"/>
			<path class="st0" d="M2178.8,626.4c1-3.1,1.9-5.9,2.8-8.8c19.2-60.5,38.5-121,57.7-181.4c0.4-1.3,1-1.8,2.4-1.8
				c3.3,0.1,6.6,0,9.9,0c0.6,0,1.1,0,1.9,0c-0.2,0.7-0.3,1.3-0.5,1.8c-20,63-40,125.9-60.1,188.9c-0.3,1-0.7,1.4-1.9,1.4
				C2187.1,626.4,2183.1,626.4,2178.8,626.4z"/>
		</g>
	</g>
	<g>
		<path class="st0" d="M1813.6,521.9c-14.6-10.3-21.4-23.7-20.9-40.8c0.5-16.9,6.7-30.6,22.3-39.2c-0.9-0.8-1.4-1.3-2-1.7
			c-24.1-15.9-34.9-38.8-34.8-67.3c0.1-35.4,19.4-63.2,53-75.1c34.3-12.2,68.9-12.3,103.5-0.8c5.3,1.8,10.3,4.4,14.5,6.3
			c-2.7-5.3-6.4-10.9-8.4-17.2c-4.6-14.6,1.1-27.2,14.7-34.3c9.4-4.9,19.5-6.4,29.8-6.3c7.4,0.1,14.7,1.1,22,1.9
			c0.9,0.1,2.4,1.5,2.4,2.4c0.2,11,0.1,22.1,0.1,33.1c0,0.9-0.1,1.7-0.1,2c-6.1-0.5-12-1.4-18-1.3c-15.9,0.3-23.7,9.9-20.8,25.4
			c1.6,8.5,3.9,16.6,8.4,24.2c17.3,29.3,15.5,81.1-24.3,106.6c-16.3,10.4-34.4,15.4-53.4,17.3c-19.2,1.9-38.3,1-57.1-3.8
			c-2.3-0.6-3.5,0.1-4.5,2c-3.7,7-5.1,14.4-3.1,22.2c2.2,8.8,10.9,14.8,22,15c25.9,0.3,51.9,0.1,77.8,0.3c7.5,0.1,15,0.5,22.5,1.3
			c12.4,1.4,24.4,4.6,35.1,11.3c20.8,12.8,28,32.2,25.5,55.7c-2.9,26.7-18.9,44-42,55.5c-18.9,9.4-39.3,13.4-60.1,15
			c-27,2.1-53.8,1-80.4-4.4c-18.3-3.8-35.8-9.6-50.6-21.5c-11.8-9.5-18.9-21.7-19.8-37c-1.3-23.3,13.3-41.1,36.7-45.3
			C1806.9,522.8,1809.8,522.5,1813.6,521.9z M1886.7,419.6c2.8-0.3,8.3-0.7,13.7-1.7c22.7-4.1,36.6-19.7,38-42.4
			c1.2-18.9-8.1-34.9-25.4-42.6c-16.1-7.1-32.8-7.5-49.6-3c-19.6,5.2-31.2,18.3-33.4,38.3c-2.2,20.4,6.9,38.9,28.2,47
			C1866.5,418.3,1875.2,419.5,1886.7,419.6z M1896.7,535.4c0-0.2,0-0.5,0-0.7c-11,0-22.1,0-33.1,0c-0.9,0-1.8,0-2.6,0
			c-10.3,0.5-20.6,1.5-29.6,7.1c-12.3,7.6-14.4,24.1-4.7,34.8c5.8,6.3,13.2,10,21.3,12.1c28.9,7.6,58,7.7,87.1,1.5
			c9.2-2,17.9-5.8,24.6-12.8c13.4-14.1,7.9-34.8-10.6-40.2c-2.8-0.8-5.6-1.6-8.4-1.6C1926,535.3,1911.3,535.4,1896.7,535.4z"/>
		<path class="st0" d="M1206.3,367.5c4.6,1.4,9.3,2.5,13.9,4.2c20.7,7.8,32,24.5,36.2,47.4c1.5,8.3,2.2,16.9,2.3,25.3
			c0.3,27.5,0.1,54.9,0.1,82.4c0,0.9,0,1.9,0,3.1c-19.3,0-38.4,0-58.1,0c0-1.5,0-3.1,0-4.7c0-25.5,0.1-51.1-0.1-76.6
			c-0.1-7.2-0.7-14.5-2-21.6c-3.1-16.8-12.9-27-27.8-31c-7-1.9-14.3-3.1-21.5-3.2c-30.2-0.4-60.4-0.2-90.6-0.2
			c-0.6,0-1.2,0.1-2.3,0.1c0,45.7,0,91.3,0,137.2c-19.4,0-38.4,0-57.7,0c0-115.3,0-230.7,0-346.3c0.9-0.1,1.9-0.3,2.8-0.3
			c47.2,0,94.5-0.2,141.7,0.1c23.2,0.2,45.9,3.9,67.3,14.5c33.6,16.6,51.7,49,50.1,89.4c-0.6,14.9-2.6,29.5-8.7,43
			c-8.6,18.8-22.5,30-40.9,35c-1.6,0.4-3.3,0.9-4.9,1.4C1206.2,367,1206.3,367.3,1206.3,367.5z M1056.6,350.5
			c0.7,0.1,1.1,0.3,1.6,0.3c30.4-0.1,60.9,0,91.3-0.5c10.7-0.2,21.1-3,30.7-8.4c15.7-8.8,23.3-23.5,24.9-42.2
			c2.2-25.6-6.1-46.8-30.2-57c-12.2-5.2-25-6.6-38-6.6c-25.7,0-51.4,0-77.1,0c-1.1,0-2.2,0.1-3.3,0.2
			C1056.6,274.5,1056.6,312.5,1056.6,350.5z"/>
		<path class="st0" d="M1549.8,378.5c-1.1,0.1-2.1,0.2-3.1,0.2c-14.2,0-28.3-0.1-42.5,0.1c-2.7,0-3.7-0.7-4-3.4
			c-3.7-35.1,12.9-62.6,45.8-75.7c24.5-9.7,50-11.9,76-10.5c18.5,1,36.5,4.6,53.3,12.9c28.8,14.3,43.9,38.1,47.3,69.7
			c0.7,6.2,0.8,12.5,0.8,18.8c0.1,44.9,0,89.7,0,134.6c0,1.5,0,3,0,4.8c-17.9,0-35.6,0-53.5,0c0.8-16.7,1.5-33.3,2.2-50
			c-0.3-0.1-0.7-0.1-1-0.2c-0.5,1.7-1.1,3.3-1.6,5c-7.4,22.9-23.4,37-45.9,43.6c-28,8.2-56.2,8.2-83.9-1.3
			c-24.6-8.5-41.3-24.8-46-51.3c-3.6-20-0.6-38.8,13.8-54.3c10.7-11.5,24.5-17.8,39.7-20.4c12.2-2.1,24.6-3.2,36.9-3.4
			c26.6-0.5,53.1-0.2,79.7-0.2c1.6,0,3.3,0,4.7,0c0.4-0.4,0.7-0.6,0.7-0.8c-0.3-9.9,0.3-19.9-1.1-29.6c-2.7-17.7-13.6-29-30.7-33.8
			c-19.7-5.6-39.6-5.8-59.3-0.1c-19.4,5.6-28.8,18.8-28.4,39C1549.9,374.1,1549.8,376.1,1549.8,378.5z M1669.5,430.3
			c-0.8-0.1-1.3-0.2-1.8-0.2c-28.8,0-57.6-0.2-86.4,0.2c-7.1,0.1-14.5,1.6-21.3,3.8c-13.8,4.6-20.1,16.7-17.4,30.9
			c2.4,12.4,10.5,19.9,21.8,23.6c25.5,8.2,50.8,6.7,74.9-4.9C1661.1,473.2,1670.4,454.6,1669.5,430.3z"/>
		<path class="st0" d="M1290.1,292.5c3.6,0,7.1,0,10.6,0c5.9,0,11.8,0,17.7,0c9.5,0,13.5-2.8,14.8-12.3c1.6-12.2,2.2-24.4,3.1-36.7
			c0.4-5,0.2-5,5.4-5c11.8,0,23.6,0,35.3,0c1.3,0,2.7,0,4.4,0c0,18.1,0,35.9,0,54c27.4,0,54.4,0,81.6,0c0,14.6,0,28.8,0,43.6
			c-27.1,0-54.2,0-81.4,0c-0.1,1.6-0.2,2.7-0.2,3.8c0,34.5-0.1,68.9,0.1,103.4c0,5.2,0.5,10.5,1.4,15.7
			c3.2,17.3,13.7,26.9,31.2,29.1c14.7,1.8,29.3,0.2,43.7-2.7c1-0.2,1.9-0.3,3.4-0.6c0,5.1,0,10,0,14.8c0,8.3,0,16.5,0,24.8
			c0,1.7,0.1,3.1-2.2,3.6c-29.7,6.9-59.4,8.5-88.2-3.6c-24.3-10.2-36.8-30-41.2-55.3c-1.5-8.7-2.1-17.7-2.2-26.5
			c-0.2-34.1-0.1-68.2-0.1-102.3c0-1.2,0-2.5,0-4.1c-12.6,0-24.8,0-37.3,0C1290.1,321.6,1290.1,307.2,1290.1,292.5z"/>
	</g>
</g>
</svg>
