<?xml version="1.0" encoding="utf-8"?>
<!-- Generator: Adobe Illustrator 24.0.1, SVG Export Plug-In . SVG Version: 6.00 Build 0)  -->
<svg version="1.1" id="Capa_1" xmlns="http://www.w3.org/2000/svg" xmlns:xlink="http://www.w3.org/1999/xlink" x="0px" y="0px"
	 viewBox="0 0 1920 1080" style="enable-background:new 0 0 1920 1080;" xml:space="preserve">
<style type="text/css">
	.st0{fill:#CCCCCC;}
</style>
<path class="st0" d="M1568.63,154.07h-80.18c-0.27,0-0.54,0.07-0.77,0.21l-109.04,64.14l-0.48,0.36l-52.23-16.38
	c-250.03-93.76-463.06-91.05-633.18,8.04C421.86,368.24,364.81,710.69,362.52,725.18l-32.56,229.07l0.45,0.04l0,0
	c-0.23,1.41,1.42,2.34,2.5,1.4l0.72-0.62c0.32-0.27,0.73-0.4,1.14-0.36l49.69,4.77c29.16,2.8,58.02,4.11,86.61,4.11
	c150.15,0,298.25-50.12,429.45-117.34c1.15-0.59,2.46,0.42,2.18,1.68l-25.25,113.62c-0.29,1.29,1.09,2.31,2.24,1.66l302.05-171.07
	c0.82-0.47,1.87-0.08,2.19,0.81l40.34,112.06c5.9,16.4,29.42,15.41,33.93-1.43l107.35-401.16c0.18-0.17,0.33-0.31,0.46-0.42
	l31.87-77.68l0.08,0.03l19.22-12.81c0.06-0.04,0.11-0.08,0.16-0.13l109.05-96.22c0.18-0.16,0.32-0.36,0.41-0.58l55.91-139.78
	C1586.67,164.89,1579.35,154.07,1568.63,154.07z"/>
</svg>
