<svg width="208" height="57" viewBox="0 0 208 57" fill="none" xmlns="http://www.w3.org/2000/svg">
<path d="M42.2184 22.9595L20.9174 37.5269L21.6237 38.6337L42.9247 24.0664L42.2184 22.9595Z" fill="#CCCCCC"/>
<path d="M43.4816 25.1603C44.291 24.6068 44.514 23.4787 43.9793 22.6407C43.4446 21.8028 42.3549 21.572 41.5455 22.1255C40.736 22.679 40.5131 23.8071 41.0478 24.6451C41.5825 25.483 42.6722 25.7138 43.4816 25.1603Z" fill="#CCCCCC"/>
<path d="M31.9662 13.6739L10.6652 28.2412L11.3715 29.3481L32.6725 14.7808L31.9662 13.6739Z" fill="#CCCCCC"/>
<path d="M32.941 15.703C33.7504 15.1495 33.9734 14.0214 33.4387 13.1834C32.904 12.3455 31.8143 12.1147 31.0049 12.6682C30.1955 13.2217 29.9725 14.3499 30.5072 15.1878C31.0419 16.0258 32.1316 16.2566 32.941 15.703Z" fill="#CCCCCC"/>
<path d="M55.0878 7.00982L33.7868 21.5771L34.4931 22.684L55.7941 8.11671L55.0878 7.00982Z" fill="#CCCCCC"/>
<path d="M33.113 20.6707C32.3036 21.2242 32.0807 22.3523 32.6154 23.1903C33.15 24.0282 34.2397 24.259 35.0492 23.7055C35.8586 23.1519 36.0815 22.0238 35.5468 21.1859C35.0122 20.3479 33.9225 20.1171 33.113 20.6707Z" fill="#CCCCCC"/>
<path d="M2.66273 40.7385C2.66273 40.7385 7.5444 46.305 16.8649 42.1304L0 56.7429L2.66273 40.7385Z" fill="#CCCCCC"/>
<path d="M65.9401 21.0967L68.8649 25.1067L60.9262 56.7428L53.4054 34.4642V29.5631C53.4045 29.5622 65.1044 23.3244 65.9401 21.0967Z" fill="#CCCCCC"/>
<path d="M51.9658 31.2812C51.9658 31.2812 48.5382 33.8705 40.8251 37.3228L36.5405 56.7428L54.1081 42.9327L51.5374 36.4597L51.9658 31.2812Z" fill="#CCCCCC"/>
<path d="M72.816 18.7757L80.0623 12.2807L84.3243 1.45483H77.5051L70.2588 5.78571L58.3243 14.8787L71.5374 19.6416L72.816 18.7757Z" fill="#CCCCCC"/>
<path d="M200.273 51.6505C200.273 51.073 200.27 50.522 200.278 49.9719C200.278 49.9224 200.336 49.8546 200.385 49.8289C201.187 49.4045 201.992 48.9864 202.796 48.5657C203.784 48.0495 204.772 47.5334 205.761 47.0164C205.807 46.9925 205.852 46.9659 205.926 46.9265C205.86 46.888 205.813 46.8587 205.765 46.8339C203.981 45.9016 202.198 44.9683 200.413 44.0397C200.309 43.9865 200.269 43.9297 200.27 43.8096C200.278 43.2788 200.274 42.7471 200.274 42.1934C200.33 42.2209 200.373 42.2392 200.414 42.2612C202.9 43.5996 205.386 44.9399 207.875 46.2756C207.969 46.326 208.003 46.381 208 46.4883C207.992 46.7853 207.993 47.0833 207.999 47.3803C208.001 47.4692 207.975 47.5187 207.896 47.5618C205.395 48.9049 202.895 50.2516 200.395 51.5964C200.363 51.6138 200.328 51.6267 200.273 51.6505Z" fill="#CCCCCC"/>
<path d="M191.835 42.1934C191.835 42.7851 191.838 43.3448 191.83 43.9045C191.829 43.9476 191.764 44.0044 191.717 44.03C190.597 44.6181 189.475 45.2016 188.353 45.787C187.68 46.1378 187.008 46.4886 186.336 46.8395C186.294 46.8615 186.253 46.8853 186.181 46.9256C186.248 46.9641 186.294 46.9916 186.341 47.0163C188.122 47.9451 189.902 48.8749 191.686 49.7992C191.803 49.8597 191.84 49.9274 191.838 50.0566C191.83 50.5293 191.835 51.002 191.835 51.4746C191.835 51.5268 191.835 51.5781 191.835 51.6505C191.767 51.6184 191.72 51.5974 191.674 51.5736C189.199 50.2426 186.723 48.9097 184.246 47.5824C184.14 47.5256 184.105 47.4633 184.108 47.3461C184.117 47.0639 184.117 46.7809 184.108 46.4987C184.105 46.3861 184.14 46.3283 184.241 46.2743C186.378 45.1302 188.513 43.9805 190.648 42.8327C191.036 42.6239 191.421 42.416 191.835 42.1934Z" fill="#CCCCCC"/>
<path d="M192.541 56.0118C192.631 55.7327 192.716 55.4719 192.801 55.2101C194.612 49.7129 196.424 44.2165 198.232 38.7193C198.271 38.5993 198.323 38.5511 198.46 38.5566C198.769 38.5675 199.081 38.5602 199.391 38.5602C199.444 38.5602 199.498 38.5602 199.568 38.5602C199.55 38.6275 199.539 38.6738 199.524 38.7193C197.64 44.4419 195.755 50.1637 193.872 55.8864C193.841 55.9773 193.806 56.0173 193.697 56.0154C193.319 56.0073 192.94 56.0118 192.541 56.0118Z" fill="#CCCCCC"/>
<path d="M11.4612 45.1033C9.56609 45.1033 7.65326 45.013 5.72003 44.8203L2.10809 44.4598L2.67565 40.7338C2.82729 39.7345 6.60949 16.1381 24.5663 5.26402C35.8429 -1.56407 49.9643 -1.75029 66.5386 4.70999C65.2456 8.29503 61.5299 10.2816 57.9827 9.24914C46.1431 5.80422 36.0921 6.51219 28.0399 11.3712C16.8441 18.1283 12.0429 31.4241 10.2862 37.9922C10.6462 37.9996 11.0089 38.0033 11.3681 38.0033C30.9752 38.0033 48.6252 26.9172 57.033 20.6514C60.0756 18.3846 64.2684 18.8594 66.7567 21.7659C65.6651 22.7753 41.185 45.1033 11.4612 45.1033Z" fill="#CCCCCC"/>
<path d="M160.119 46.5555C158.824 45.6113 158.22 44.3685 158.265 42.797C158.308 41.2419 158.862 39.978 160.246 39.1839C160.167 39.1121 160.123 39.0614 160.071 39.0246C157.93 37.5562 156.975 35.4466 156.986 32.8275C156.998 29.5655 158.709 27.0091 161.691 25.9064C164.732 24.7816 167.807 24.7724 170.873 25.8337C171.341 25.9958 171.783 26.239 172.159 26.4104C171.924 25.923 171.588 25.4035 171.414 24.8295C171.004 23.4809 171.514 22.3229 172.722 21.6735C173.552 21.2267 174.452 21.083 175.369 21.0977C176.022 21.1087 176.674 21.1963 177.324 21.27C177.406 21.2792 177.539 21.4109 177.539 21.4874C177.555 22.5035 177.55 23.5196 177.549 24.5348C177.549 24.614 177.539 24.6932 177.538 24.7236C176.998 24.6794 176.47 24.5919 175.942 24.6011C174.532 24.625 173.839 25.5112 174.1 26.9437C174.242 27.7222 174.447 28.4702 174.85 29.1768C176.385 31.8713 176.226 36.6451 172.694 38.9969C171.249 39.9587 169.646 40.4184 167.955 40.5897C166.25 40.762 164.559 40.6782 162.893 40.2415C162.689 40.1881 162.584 40.2479 162.494 40.4248C162.167 41.0715 162.041 41.7514 162.217 42.4662C162.415 43.2723 163.18 43.8333 164.168 43.8435C166.469 43.8674 168.771 43.8527 171.072 43.872C171.737 43.8775 172.406 43.9162 173.068 43.9918C174.17 44.1171 175.23 44.4192 176.182 45.0291C178.029 46.2128 178.668 47.9972 178.443 50.1556C178.187 52.618 176.769 54.2053 174.719 55.2693C173.043 56.1389 171.236 56.5047 169.387 56.652C166.994 56.8427 164.61 56.7451 162.253 56.2439C160.63 55.8985 159.076 55.3614 157.761 54.2587C156.716 53.3826 156.082 52.2634 156.007 50.8548C155.893 48.7047 157.183 47.0659 159.263 46.6863C159.522 46.6412 159.783 46.6071 160.119 46.5555ZM166.599 37.1361C166.846 37.1057 167.334 37.0707 167.813 36.9813C169.831 36.6027 171.06 35.1702 171.187 33.0772C171.293 31.3389 170.468 29.8621 168.935 29.1537C167.51 28.4951 166.027 28.4674 164.536 28.8764C162.796 29.3536 161.764 30.5632 161.574 32.4019C161.378 34.2794 162.184 35.9846 164.074 36.7271C164.811 37.0163 165.576 37.1204 166.599 37.1361ZM167.483 47.7964C167.483 47.7743 167.483 47.7531 167.483 47.731C166.505 47.731 165.526 47.731 164.548 47.731C164.47 47.731 164.392 47.7301 164.315 47.7337C163.4 47.7817 162.492 47.8738 161.689 48.3897C160.597 49.0916 160.407 50.6061 161.276 51.5918C161.791 52.1749 162.451 52.5084 163.165 52.7037C165.726 53.4048 168.307 53.4158 170.888 52.84C171.708 52.6567 172.475 52.3094 173.073 51.6563C174.26 50.3583 173.778 48.4551 172.132 47.9539C171.888 47.8793 171.633 47.8056 171.382 47.8028C170.083 47.789 168.783 47.7964 167.483 47.7964Z" fill="#CCCCCC"/>
<path d="M106.198 32.2889C106.607 32.4173 107.025 32.5198 107.425 32.6777C109.255 33.4026 110.261 34.9449 110.631 37.0542C110.766 37.8188 110.83 38.6112 110.838 39.3925C110.863 41.9275 110.847 44.4634 110.848 46.9984C110.848 47.0852 110.848 47.1721 110.848 47.2847C109.138 47.2847 107.446 47.2847 105.704 47.2847C105.704 47.1425 105.704 46.9975 105.704 46.8516C105.704 44.4939 105.716 42.1353 105.696 39.7785C105.691 39.1117 105.637 38.4348 105.522 37.781C105.252 36.2313 104.381 35.2912 103.065 34.9209C102.446 34.7473 101.798 34.6327 101.162 34.6254C98.4895 34.5912 95.8168 34.6078 93.1442 34.606C93.0893 34.606 93.0353 34.6115 92.9406 34.618C92.9406 38.8375 92.9406 43.0486 92.9406 47.2856C91.2202 47.2856 89.5405 47.2856 87.8378 47.2856C87.8378 36.6358 87.8378 25.9832 87.8378 15.3057C87.9192 15.2983 88.0042 15.2826 88.0892 15.2826C92.2698 15.2826 96.4505 15.2632 100.631 15.2956C102.683 15.3113 104.694 15.6594 106.588 16.6374C109.562 18.1732 111.162 21.1653 111.018 24.8972C110.965 26.276 110.792 27.6197 110.246 28.8701C109.487 30.6035 108.252 31.6397 106.624 32.1014C106.48 32.1421 106.336 32.1864 106.191 32.2289C106.193 32.2473 106.195 32.2677 106.198 32.2889ZM92.9459 30.7226C93.0035 30.7347 93.0451 30.7522 93.0866 30.7522C95.7814 30.742 98.4762 30.7522 101.17 30.706C102.115 30.6894 103.037 30.4299 103.89 29.9303C105.277 29.1167 105.951 27.7619 106.092 26.0313C106.286 23.6625 105.553 21.713 103.422 20.7645C102.342 20.2834 101.209 20.1541 100.061 20.1522C97.7877 20.1486 95.515 20.1504 93.2415 20.1513C93.1451 20.1513 93.0486 20.1643 92.9459 20.1716C92.9459 23.7003 92.9459 27.206 92.9459 30.7226Z" fill="#CCCCCC"/>
<path d="M137.167 33.7077C137.068 33.7133 136.982 33.7215 136.896 33.7215C135.647 33.7224 134.398 33.716 133.149 33.727C132.916 33.7289 132.82 33.6664 132.795 33.412C132.466 30.1831 133.934 27.6634 136.836 26.4609C138.998 25.5662 141.248 25.3651 143.541 25.4992C145.174 25.5947 146.76 25.9199 148.239 26.686C150.78 28.0033 152.113 30.1858 152.414 33.0859C152.473 33.6563 152.482 34.2341 152.483 34.8091C152.488 38.93 152.486 43.0517 152.486 47.1725C152.486 47.3094 152.486 47.4472 152.486 47.6088C150.907 47.6088 149.344 47.6088 147.765 47.6088C147.831 46.0794 147.897 44.5481 147.963 43.0159C147.933 43.0104 147.903 43.0048 147.874 42.9993C147.827 43.1518 147.779 43.3034 147.731 43.4559C147.082 45.5595 145.669 46.8574 143.682 47.4619C141.214 48.2124 138.723 48.2188 136.282 47.3434C134.116 46.5662 132.642 45.0607 132.229 42.6356C131.915 40.7975 132.176 39.0723 133.448 37.6467C134.395 36.5866 135.612 36.007 136.952 35.77C138.024 35.5798 139.121 35.477 140.209 35.4558C142.551 35.4099 144.894 35.4421 147.238 35.4421C147.38 35.4421 147.524 35.4421 147.649 35.4421C147.681 35.4044 147.709 35.3869 147.709 35.3713C147.683 34.4647 147.739 33.5452 147.609 32.6541C147.373 31.031 146.411 29.9911 144.906 29.5456C143.169 29.0312 141.412 29.01 139.674 29.5355C137.961 30.0527 137.138 31.2624 137.165 33.1171C137.17 33.2981 137.167 33.4809 137.167 33.7077ZM147.722 38.467C147.649 38.4578 147.607 38.4468 147.565 38.4468C145.024 38.4477 142.483 38.4275 139.943 38.4679C139.315 38.478 138.665 38.613 138.066 38.8197C136.851 39.2386 136.29 40.3519 136.534 41.6609C136.747 42.8 137.458 43.4917 138.459 43.8261C140.707 44.5766 142.943 44.4452 145.063 43.3732C146.98 42.4041 147.8 40.6983 147.722 38.467Z" fill="#CCCCCC"/>
<path d="M113.838 25.427C114.161 25.427 114.471 25.427 114.782 25.427C115.309 25.427 115.836 25.428 116.362 25.427C117.216 25.4252 117.571 25.1655 117.682 24.273C117.823 23.1329 117.879 21.9817 117.961 20.8351C117.994 20.371 117.982 20.3691 118.441 20.3691C119.494 20.3691 120.548 20.3691 121.602 20.3691C121.723 20.3691 121.843 20.3691 121.997 20.3691C121.997 22.0698 121.997 23.732 121.997 25.427C124.447 25.427 126.862 25.427 129.297 25.427C129.297 26.7949 129.297 28.129 129.297 29.5146C126.876 29.5146 124.454 29.5146 122.016 29.5146C122.008 29.6674 121.998 29.7705 121.998 29.8737C121.997 33.1053 121.993 36.3369 122.004 39.5676C122.006 40.0579 122.049 40.5557 122.134 41.0376C122.42 42.6586 123.357 43.5595 124.925 43.7639C126.242 43.9364 127.541 43.7789 128.832 43.5127C128.919 43.4948 129.007 43.4808 129.135 43.4573C129.135 43.9355 129.135 44.3902 129.135 44.8449C129.135 45.6202 129.134 46.3955 129.135 47.1718C129.135 47.3274 129.148 47.4624 128.943 47.513C126.284 48.1599 123.631 48.3062 121.056 47.1783C118.879 46.2249 117.762 44.3649 117.373 41.9967C117.239 41.1792 117.186 40.3392 117.18 39.5085C117.158 36.3125 117.171 33.1165 117.171 29.9196C117.171 29.8043 117.171 29.689 117.171 29.5362C116.048 29.5362 114.954 29.5362 113.839 29.5362C113.838 28.1543 113.838 26.8099 113.838 25.427Z" fill="#CCCCCC"/>
</svg>
