<?xml version="1.0" encoding="utf-8"?>
<!-- Generator: Adobe Illustrator 24.0.1, SVG Export Plug-In . SVG Version: 6.00 Build 0)  -->
<svg version="1.1" id="Capa_1" xmlns="http://www.w3.org/2000/svg" xmlns:xlink="http://www.w3.org/1999/xlink" x="0px" y="0px"
	 viewBox="0 0 678.71 447.88" style="enable-background:new 0 0 678.71 447.88;" xml:space="preserve">
<style type="text/css">
	.st0{fill:none;}
	.st1{fill:none;stroke:#000000;stroke-width:6;stroke-linecap:round;stroke-linejoin:round;stroke-miterlimit:10;}
	.st2{fill:none;stroke:#000000;stroke-width:6;stroke-miterlimit:10;}
</style>
<g>
	<g>
		<path d="M124.71,200.31c-0.28,0-0.55-0.04-0.82-0.11L70.17,184.9c-1.2-0.34-2.06-1.38-2.17-2.62L56,47.02
			c-0.07-0.84,0.21-1.67,0.78-2.29s1.37-0.97,2.21-0.97h131.74c0.84,0,1.64,0.35,2.21,0.97c0.57,0.62,0.85,1.45,0.78,2.29
			l-11.98,135.26c-0.11,1.24-0.97,2.28-2.17,2.62l-54.03,15.29C125.26,200.27,124.98,200.31,124.71,200.31z M73.79,179.69
			l50.92,14.5l51.22-14.5l11.51-129.94H62.26L73.79,179.69z M124.85,171.14c-0.26,0-0.52-0.03-0.77-0.1l-34.02-9.1
			c-1.23-0.33-2.12-1.4-2.22-2.66l-2.07-26.16c-0.07-0.83,0.22-1.66,0.79-2.27c0.57-0.61,1.37-0.96,2.2-0.96h16.37
			c1.55,0,2.85,1.19,2.99,2.73l1,11.16l15.74,4.3l15.46-4.27l1.53-16.15H87.89c-1.56,0-2.85-1.19-2.99-2.74l-4.37-50.24
			c-0.07-0.84,0.21-1.67,0.78-2.29c0.57-0.62,1.37-0.97,2.21-0.97h0l82.66,0.02c0.84,0,1.64,0.35,2.21,0.97
			c0.57,0.62,0.85,1.45,0.78,2.29l-1.45,16.44c-0.14,1.55-1.43,2.74-2.99,2.74c0,0,0,0,0,0l-59.82-0.02l0.94,11.05h57.41
			c0.84,0,1.65,0.35,2.22,0.98s0.85,1.46,0.77,2.3l-4.67,51.18c-0.11,1.25-1,2.3-2.21,2.62l-33.74,9.05
			C125.37,171.11,125.11,171.14,124.85,171.14z M93.65,156.7l31.2,8.34l30.94-8.3l4.18-45.83h-56.88c-1.6,0-2.9-1.25-2.99-2.82
			l-1.44-16.98c-0.07-0.84,0.21-1.67,0.78-2.28c0.57-0.62,1.37-0.97,2.21-0.97c0,0,0,0,0,0l60.34,0.02l0.92-10.44l-76.12-0.02
			l3.85,44.23h54.5c0.84,0,1.65,0.36,2.22,0.98c0.57,0.63,0.85,1.46,0.77,2.3l-2.04,21.49c-0.12,1.24-0.99,2.28-2.19,2.61
			l-18.25,5.04c-0.52,0.14-1.07,0.15-1.59,0l-18.54-5.07c-1.21-0.33-2.09-1.38-2.2-2.63l-0.94-10.5H92.01L93.65,156.7z"/>
	</g>
	<g>
		<path d="M214.94,172.59h-6V43.15c0-2.87-2.34-5.21-5.21-5.21H45.97c-2.87,0-5.21,2.34-5.21,5.21h-6c0-6.18,5.03-11.21,11.21-11.21
			h157.76c6.18,0,11.21,5.03,11.21,11.21V172.59z"/>
	</g>
	<g>
		<rect x="34.76" y="59.65" width="6" height="7.06"/>
	</g>
	<g>
		<path d="M203.74,212.12H45.97c-6.18,0-11.21-5.03-11.21-11.21V81.53h6v119.38c0,2.87,2.34,5.21,5.21,5.21h157.76V212.12z"/>
	</g>
	<g>
		<rect x="208.94" y="187.06" width="6" height="7.06"/>
	</g>
	<g>
		<path d="M214.94,384.99h-6V255.55c0-2.87-2.34-5.21-5.21-5.21H45.97c-2.87,0-5.21,2.33-5.21,5.21h-6
			c0-6.18,5.03-11.21,11.21-11.21h157.76c6.18,0,11.21,5.03,11.21,11.21V384.99z"/>
	</g>
	<g>
		<rect x="34.76" y="272.05" width="6" height="7.06"/>
	</g>
	<g>
		<rect x="249.17" y="59.65" width="6" height="7.06"/>
	</g>
	<g>
		<rect x="249.17" y="272.05" width="6" height="7.06"/>
	</g>
	<g>
		<rect x="465.54" y="59.65" width="6" height="7.06"/>
	</g>
	<g>
		<rect x="465.54" y="272.05" width="6" height="7.06"/>
	</g>
	<g>
		<path d="M203.74,424.52H45.97c-6.18,0-11.21-5.03-11.21-11.21V293.93h6v119.38c0,2.87,2.34,5.21,5.21,5.21h157.76V424.52z"/>
	</g>
	<g>
		<rect x="208.94" y="399.46" width="6" height="7.06"/>
	</g>
	<g>
		<path d="M124.71,413.51c-0.28,0-0.55-0.04-0.82-0.11l-54.31-15.46c-1.2-0.34-2.06-1.38-2.17-2.62L55.29,258.61
			c-0.07-0.84,0.21-1.67,0.78-2.29c0.57-0.62,1.37-0.97,2.21-0.97h133.15c0.84,0,1.64,0.35,2.21,0.97c0.57,0.62,0.85,1.45,0.78,2.29
			l-12.11,136.72c-0.11,1.24-0.97,2.28-2.17,2.62l-54.61,15.45C125.26,413.48,124.99,413.51,124.71,413.51z M73.21,392.73
			l51.5,14.66l51.8-14.66l11.64-131.39H61.56L73.21,392.73z M124.86,383.63c-0.3,0-0.6-0.04-0.89-0.14L89.33,372.7
			c-1.17-0.37-2.01-1.41-2.1-2.64l-1.84-24.45c-0.06-0.83,0.22-1.65,0.79-2.27c0.57-0.61,1.36-0.96,2.2-0.96h16.54
			c1.55,0,2.85,1.18,2.99,2.73l1.02,11.31l15.93,4.37l15.68-4.33l1.76-16.99h-35.87c-1.55,0-2.84-1.18-2.99-2.72l-1.53-16.31
			c-0.08-0.84,0.2-1.67,0.77-2.3c0.57-0.62,1.37-0.98,2.22-0.98h39.37l1.05-11.23l-60.91-0.02c-1.56,0-2.86-1.2-2.99-2.76
			l-1.35-16.62c-0.07-0.83,0.22-1.66,0.79-2.28c0.57-0.62,1.37-0.97,2.21-0.97h0l83.56,0.02c0.84,0,1.65,0.35,2.22,0.98
			s0.85,1.46,0.77,2.29l-7.72,84.61c-0.11,1.24-0.97,2.27-2.17,2.61l-34.06,9.69C125.41,383.59,125.13,383.63,124.86,383.63z
			 M93.06,367.58l31.84,9.91l31.23-8.89l7.23-79.29l-77.02-0.02l0.86,10.62l61.43,0.02c0.84,0,1.65,0.36,2.22,0.98
			s0.85,1.46,0.77,2.3L150,320.44c-0.14,1.54-1.44,2.72-2.99,2.72H108.2l0.96,10.31h36.46c0.85,0,1.66,0.36,2.23,0.99
			s0.84,1.47,0.76,2.32l-2.32,22.34c-0.13,1.23-0.99,2.25-2.18,2.58l-18.45,5.1c-0.52,0.14-1.07,0.14-1.59,0l-18.73-5.14
			c-1.21-0.33-2.08-1.38-2.19-2.62l-0.96-10.65H91.61L93.06,367.58z"/>
	</g>
	<g>
		<path d="M429.35,170.58h-6V41.14c0-2.87-2.34-5.21-5.21-5.21H260.38c-2.87,0-5.21,2.34-5.21,5.21h-6
			c0-6.18,5.03-11.21,11.21-11.21h157.76c6.18,0,11.21,5.03,11.21,11.21V170.58z"/>
	</g>
	<g>
		<path d="M418.14,210.11H260.38c-6.18,0-11.21-5.03-11.21-11.21V79.52h6V198.9c0,2.87,2.34,5.21,5.21,5.21h157.76V210.11z"/>
	</g>
	<g>
		<rect x="423.35" y="185.05" width="6" height="7.06"/>
	</g>
	<g>
		<path d="M407.88,192.5h-138.8c-1.66,0-3-1.34-3-3V50.7c0-1.66,1.34-3,3-3h138.8c1.66,0,3,1.34,3,3v138.8
			C410.88,191.16,409.54,192.5,407.88,192.5z M272.09,186.5h132.8V53.7h-132.8V186.5z M325.17,181.82c-4.95,0-9.58-1.19-13.48-3.53
			c-3.65-2.19-6.71-5.66-8.83-10.04c-0.67-1.38-0.18-3.05,1.13-3.86l10.55-6.51c0.47-0.29,1.02-0.45,1.58-0.45
			c1.8,0,2.59,1.36,3.06,2.17l0.24,0.41c1.15,1.92,1.93,2.93,3.34,3.69c0.85,0.22,4.19,0.95,5.25-1.26
			c0.03-0.07,0.07-0.14,0.11-0.21c0.52-1.11,0.47-6.24,0.43-9.98c-0.01-1.35-0.03-2.76-0.03-4.19c0-5.62,0.01-11.22,0.03-16.81
			c0.01-5.58,0.03-11.17,0.03-16.76c0-1.66,1.34-3,3-3h13c0.83,0,1.63,0.35,2.2,0.96c0.57,0.61,0.86,1.43,0.8,2.26l-0.02,0.22
			c0,3.96,0.01,7.91,0.01,11.85c0.01,7.8,0.03,15.87-0.01,23.8c0,1.05,0.02,2.12,0.04,3.16c0.1,6.32,0.19,12.29-2.68,17.55
			c-2.26,4.59-6.63,8.03-12.3,9.67c-0.06,0.02-0.12,0.03-0.18,0.05C329.96,181.55,327.53,181.82,325.17,181.82z M309.58,168
			c1.44,2.21,3.2,3.96,5.18,5.15c4.36,2.6,10.27,3.34,16.25,2.02c2.85-0.84,6.62-2.66,8.52-6.57c0.02-0.05,0.05-0.09,0.07-0.13
			c2.14-3.88,2.06-8.86,1.97-14.63c-0.02-1.07-0.03-2.15-0.04-3.26c0.04-7.93,0.03-15.99,0.01-23.78c-0.01-3.09-0.01-6.19-0.01-9.29
			h-6.98c0,4.6-0.01,9.19-0.03,13.78c-0.01,5.59-0.03,11.18-0.03,16.8c0,1.41,0.01,2.8,0.03,4.13c0.07,6.93,0.05,10.7-1.17,12.94
			c-2.41,4.91-8.22,5.64-12.63,4.24c-0.14-0.04-0.28-0.1-0.41-0.17c-2.49-1.22-3.96-2.87-5.15-4.66L309.58,168z M375.01,181.21
			c-8.11,0-16.2-2.82-21.06-7.72c-0.05-0.05-0.1-0.1-0.15-0.16c-0.4-0.46-0.77-0.88-1.12-1.27c-1.54-1.73-2.87-3.23-4.03-5.89
			c-0.61-1.4-0.07-3.04,1.25-3.8l10.58-6.08c1.37-0.79,3.13-0.37,4,0.95c2.65,4.02,4.65,5.6,8.15,6.42
			c3.29,0.38,6.18-0.22,7.39-1.52c0.23-0.25,0.93-1.01,0.55-2.97c-0.56-1.77-4.5-3.43-8.31-5.03c-3.67-1.55-7.83-3.3-11.43-5.97
			c-4.55-3.1-7.6-8.32-8.36-14.34c-0.76-5.97,0.89-11.76,4.52-15.91c2.6-3.17,6.77-5.64,11.47-6.79c0.11-0.03,0.22-0.05,0.34-0.06
			l4.07-0.52c0.1-0.01,0.21-0.02,0.31-0.02c8.28-0.19,14.22,2.01,18.64,6.91c1.28,1.29,2.23,2.63,3.72,4.95
			c0.44,0.68,0.58,1.5,0.41,2.28c-0.18,0.79-0.66,1.47-1.34,1.89c-4.14,2.58-4.14,2.58-10.09,6.47c-0.73,0.48-1.63,0.61-2.46,0.38
			c-0.84-0.24-1.53-0.83-1.9-1.61c-0.86-1.84-2.22-3.13-3.81-3.62c-1.34-0.4-2.94-0.28-3.95,0.31c-0.74,0.43-0.93,0.96-1.02,1.32
			c-0.01,0.06-0.03,0.12-0.05,0.18c-0.09,0.3-0.19,0.63,0.21,2.17c0.78,1.41,3.52,2.59,6.17,3.73c0.87,0.37,1.75,0.75,2.61,1.16
			c11.92,4.85,17.82,10.68,19.13,18.89c0.06,0.39,0.05,0.78-0.04,1.15c0.38,3.34,0.13,6.6-0.74,9.33c-2,6.86-7.56,11.77-15.64,13.82
			C380.45,180.89,377.73,181.21,375.01,181.21z M358.28,169.33c5.03,5,15.02,7.18,23.29,5.08c3.44-0.87,9.49-3.29,11.36-9.7
			c0.01-0.02,0.03-0.11,0.04-0.13c0.42-1.3,1.01-4.08,0.32-8.05c-0.06-0.33-0.06-0.66-0.01-0.97c-0.99-3.94-4.04-8.45-15.27-13
			c-0.05-0.02-0.1-0.04-0.15-0.06c-0.83-0.39-1.67-0.75-2.51-1.11c-3.81-1.64-7.75-3.34-9.36-6.98c-0.06-0.14-0.11-0.28-0.15-0.42
			c-0.57-2.08-0.81-3.75-0.27-5.64c0.53-2.16,1.85-3.91,3.83-5.06c2.46-1.43,5.71-1.75,8.7-0.86c2.23,0.69,4.18,2.04,5.7,3.91
			c2.43-1.59,3.48-2.27,5.01-3.23c-0.47-0.63-0.85-1.07-1.28-1.5c-0.04-0.04-0.08-0.08-0.11-0.12c-3.23-3.61-7.4-5.12-13.94-4.98
			l-3.74,0.47c-3.36,0.85-6.39,2.62-8.12,4.75c-0.03,0.03-0.05,0.06-0.08,0.09c-2.52,2.85-3.65,6.94-3.11,11.22
			c0.54,4.27,2.72,8.07,5.83,10.17c0.04,0.03,0.08,0.05,0.12,0.08c3.02,2.26,6.68,3.8,10.22,5.29c5.43,2.29,10.56,4.45,11.8,9.09
			c0.01,0.06,0.03,0.11,0.04,0.17c0.86,4.18-0.62,6.85-2,8.35c-2.61,2.82-7.23,4.06-12.67,3.39c-0.1-0.01-0.19-0.03-0.29-0.05
			c-4.83-1.08-7.82-3.44-10.36-6.7l-5.63,3.23c0.47,0.63,1.01,1.24,1.68,2C357.52,168.46,357.89,168.87,358.28,169.33z"/>
	</g>
	<g>
		<path d="M429.35,384.99h-6V255.55c0-2.87-2.34-5.21-5.21-5.21H260.38c-2.87,0-5.21,2.33-5.21,5.21h-6
			c0-6.18,5.03-11.21,11.21-11.21h157.76c6.18,0,11.21,5.03,11.21,11.21V384.99z"/>
	</g>
	<g>
		<path d="M418.14,424.52H260.38c-6.18,0-11.21-5.03-11.21-11.21V293.93h6v119.38c0,2.87,2.34,5.21,5.21,5.21h157.76V424.52z"/>
	</g>
	<g>
		<rect x="423.35" y="399.46" width="6" height="7.06"/>
	</g>
	<g>
		<g>
			<path d="M339.25,327.83c3.89,0,7.05,3.16,7.05,7.05c0,3.89-3.16,7.05-7.05,7.05s-7.05-3.16-7.05-7.05
				C332.21,330.99,335.37,327.83,339.25,327.83 M339.25,321.83c-7.21,0-13.05,5.84-13.05,13.05s5.84,13.05,13.05,13.05
				c7.21,0,13.05-5.84,13.05-13.05S346.46,321.83,339.25,321.83L339.25,321.83z"/>
		</g>
		<g>
			<path d="M309.85,269.78c8.14,0,18.53,5.64,29.4,16.2c10.87-10.55,21.26-16.19,29.4-16.19c2.65,0,5.06,0.6,7.17,1.82
				c8.79,5.06,10.86,19.12,5.83,38.81c19.6,5.5,30.76,14.32,30.76,24.44c0,10.11-11.17,18.94-30.76,24.43
				c5.01,19.68,2.95,33.75-5.83,38.81c-2.18,1.23-4.63,1.88-7.13,1.88c-0.07,0-0.14,0-0.22,0c-8.14,0-18.44-5.75-29.24-16.26
				c-10.79,10.51-21.09,16.26-29.22,16.26c-0.07,0-0.14,0-0.21,0c-2.5,0-4.96-0.65-7.14-1.88c-8.79-5.05-10.86-19.12-5.83-38.81
				c-19.59-5.5-30.76-14.33-30.76-24.43c0-10.11,11.18-18.94,30.77-24.43c-5.04-19.7-2.97-33.76,5.82-38.81
				C304.79,270.38,307.2,269.78,309.85,269.78 M375.73,308.9c4.17-16.39,3.11-28.53-2.95-32.02c-1.23-0.71-2.67-1.05-4.3-1.05
				c-6.36,0-15.48,5.27-24.97,14.51c4.5,4.9,8.68,10.07,12.5,15.52C362.99,306.47,369.59,307.52,375.73,308.9 M302.76,308.9
				c6.51-1.44,13.08-2.47,19.71-3.05c3.83-5.44,8.02-10.62,12.52-15.52c-9.52-9.26-18.51-14.51-24.97-14.51
				c-1.64,0-3.08,0.36-4.31,1.06C299.66,280.37,298.6,292.51,302.76,308.9 M330.45,305.3c2.93-0.14,5.86-0.21,8.8-0.21
				c2.94,0,5.89,0.07,8.83,0.21c-2.76-3.65-5.71-7.15-8.82-10.52C336.16,298.15,333.21,301.65,330.45,305.3 M339.25,358.52
				c4.45,0,8.89-0.17,13.4-0.51c5.04-7.37,9.51-15.11,13.39-23.16v0v0c-3.87-8.05-8.34-15.79-13.39-23.16
				c-4.46-0.34-8.93-0.52-13.4-0.52c-4.47,0-8.94,0.17-13.4,0.52c-5.05,7.36-9.53,15.1-13.39,23.16
				c3.89,8.04,8.36,15.78,13.39,23.16C330.36,358.35,334.81,358.52,339.25,358.52 M369.29,327.71c1.79-4.23,3.38-8.54,4.76-12.92
				c-4.49-1-9.03-1.78-13.6-2.35C363.64,317.39,366.59,322.48,369.29,327.71 M309.21,327.7c1.34-2.61,2.74-5.2,4.21-7.74
				c1.46-2.51,3.01-5.02,4.61-7.51c-4.56,0.56-9.09,1.34-13.57,2.34C305.83,319.17,307.42,323.48,309.21,327.7 M379.99,353.42
				c16.3-4.58,26.31-11.59,26.31-18.57c0-6.99-10-13.98-26.31-18.58c-1.99,6.34-4.4,12.55-7.21,18.58l0.01,0.01l0,0
				C375.71,341.19,378.14,347.41,379.99,353.42 M298.5,353.42c2-6.34,4.41-12.55,7.2-18.57c-2.81-6.03-5.22-12.23-7.2-18.58
				c-16.29,4.59-26.3,11.59-26.3,18.58C272.2,341.82,282.2,348.83,298.5,353.42 M318.01,357.22c-1.59-2.46-3.12-4.96-4.59-7.49
				c-1.46-2.55-2.86-5.13-4.21-7.74c-1.79,4.23-3.38,8.54-4.75,12.92C308.75,355.87,313.28,356.64,318.01,357.22 M360.47,357.23
				c4.56-0.56,9.09-1.34,13.57-2.34c-1.38-4.37-2.96-8.68-4.75-12.9C366.6,347.21,363.66,352.3,360.47,357.23 M368.48,393.87
				c1.64,0,3.09-0.37,4.31-1.06c6.06-3.49,7.13-15.66,2.95-32.04c-6.5,1.45-13.08,2.48-19.71,3.06l-0.02,0.02l-0.01,0
				c-3.81,5.44-7.98,10.62-12.48,15.5C353.03,388.62,362.03,393.87,368.48,393.87 M309.99,393.85c6.36,0,15.48-5.24,25-14.5
				c-4.5-4.9-8.68-10.08-12.52-15.51l-0.01,0l-0.01-0.01c-6.63-0.59-13.21-1.61-19.7-3.06c-4.17,16.39-3.1,28.55,2.95,32.04
				C306.94,393.52,308.37,393.85,309.99,393.85 M339.25,364.61c-2.91,0-5.86-0.08-8.83-0.22c2.76,3.65,5.71,7.16,8.82,10.54
				c3.1-3.38,6.05-6.88,8.82-10.54C345.09,364.53,342.15,364.61,339.25,364.61 M309.85,263.78
				C309.85,263.78,309.85,263.78,309.85,263.78c-3.74,0-7.17,0.88-10.18,2.63c-10.44,6-13.89,20.07-9.9,39.91
				c-19.2,6.48-29.68,16.5-29.68,28.53c0,12.03,10.48,22.04,29.67,28.52c-3.98,19.84-0.52,33.91,9.93,39.92
				c3.11,1.76,6.6,2.68,10.13,2.68l0.21,0l0,0c8.66,0,18.68-4.85,29.22-14.08c10.55,9.23,20.58,14.08,29.23,14.08l0.22,0
				c3.53,0,7.02-0.92,10.09-2.66c10.46-6.02,13.92-20.09,9.95-39.93c19.2-6.48,29.68-16.5,29.68-28.53
				c0-12.03-10.48-22.05-29.67-28.53c3.97-19.83,0.52-33.9-9.92-39.91c-3.01-1.74-6.43-2.62-10.17-2.62
				c-8.76,0-18.85,4.83-29.4,14.03C328.7,268.62,318.61,263.78,309.85,263.78L309.85,263.78L309.85,263.78z M351.92,290.78
				c7.66-6.53,13.57-8.95,16.56-8.95c0.57,0,1.01,0.09,1.29,0.25c1.66,0.96,3.8,6.98,1.39,19.78c-3.87-0.71-7.83-1.28-11.85-1.7
				C356.99,296.96,354.51,293.83,351.92,290.78L351.92,290.78z M307.34,301.86c-2.41-12.8-0.28-18.82,1.37-19.77
				c0.37-0.21,0.92-0.26,1.31-0.26c3.13,0,8.93,2.43,16.56,8.95c-2.58,3.03-5.06,6.16-7.4,9.37
				C315.26,300.56,311.3,301.13,307.34,301.86L307.34,301.86z M329.18,317.48c3.35-0.2,6.72-0.3,10.06-0.3
				c3.34,0,6.71,0.1,10.06,0.3c3.68,5.57,7.05,11.39,10.04,17.37c-3,5.97-6.37,11.79-10.05,17.37c-3.38,0.2-6.7,0.3-10.06,0.3
				c-3.36,0-6.67-0.1-10.06-0.3c-3.67-5.59-7.04-11.41-10.05-17.38C322.14,328.87,325.5,323.05,329.18,317.48L329.18,317.48z
				 M379.37,334.86c1.62-3.64,3.1-7.35,4.44-11.1c12.33,4.33,16.49,9.19,16.49,11.09c0,1.9-4.16,6.76-16.48,11.08
				C382.52,342.32,381.04,338.62,379.37,334.86L379.37,334.86z M294.69,345.93c-12.32-4.32-16.48-9.18-16.48-11.08
				c0-1.9,4.16-6.77,16.48-11.09c1.33,3.75,2.82,7.46,4.43,11.1C297.5,338.49,296.02,342.2,294.69,345.93L294.69,345.93z
				 M359.31,369.54c3.92-0.42,7.89-0.99,11.86-1.72c2.42,12.81,0.28,18.84-1.38,19.8c-0.29,0.17-0.75,0.26-1.31,0.26
				c-3.12,0-8.93-2.43-16.56-8.96C354.5,375.89,356.97,372.75,359.31,369.54L359.31,369.54z M309.99,387.85
				c-0.57,0-1.02-0.09-1.3-0.25c-1.62-0.94-3.76-6.97-1.35-19.78c3.92,0.72,7.88,1.3,11.84,1.72c2.34,3.2,4.82,6.33,7.4,9.36
				C318.9,385.43,312.98,387.85,309.99,387.85L309.99,387.85z"/>
		</g>
	</g>
	<g>
		<path d="M645.72,170.58h-6V41.14c0-2.87-2.34-5.21-5.21-5.21H476.75c-2.87,0-5.21,2.34-5.21,5.21h-6
			c0-6.18,5.03-11.21,11.21-11.21h157.76c6.18,0,11.21,5.03,11.21,11.21V170.58z"/>
	</g>
	<g>
		<path d="M634.51,210.11H476.75c-6.18,0-11.21-5.03-11.21-11.21V79.52h6V198.9c0,2.87,2.33,5.21,5.21,5.21h157.76V210.11z"/>
	</g>
	<g>
		<rect x="639.72" y="185.05" width="6" height="7.06"/>
	</g>
	<g>
		<path d="M645.72,384.99h-6V255.55c0-2.87-2.34-5.21-5.21-5.21H476.75c-2.87,0-5.21,2.33-5.21,5.21h-6
			c0-6.18,5.03-11.21,11.21-11.21h157.76c6.18,0,11.21,5.03,11.21,11.21V384.99z"/>
	</g>
	<g>
		<path d="M634.51,424.52H476.75c-6.18,0-11.21-5.03-11.21-11.21V293.93h6v119.38c0,2.87,2.33,5.21,5.21,5.21h157.76V424.52z"/>
	</g>
	<g>
		<rect x="639.72" y="399.46" width="6" height="7.06"/>
	</g>
	<g>
		<path d="M534.61,185.34c-0.36,0-0.72-0.06-1.07-0.2l-4.18-1.59c-1.42-0.54-2.22-2.06-1.84-3.54c0.09-0.37,2.2-8.66,4.13-15.1
			c-2.69-4.51-16.18-29.07-9.49-57.63c4.87-20.77,19.22-38.47,42.67-52.61c0.03-0.02,0.06-0.03,0.09-0.05
			c8.19-4.56,15.58-9.44,16.95-10.41c0.82-0.58,1.87-0.72,2.8-0.36l0.2,0.08c0.96,0.36,1.67,1.19,1.87,2.2
			c0.35,1.7,2.65,10.12,5.73,18.98c0.01,0.03,0.02,0.06,0.03,0.1c8.13,26.18,7.09,48.97-3.08,67.73
			c-13.99,25.79-40.38,35.14-45.24,36.67c-2.84,6.15-6.73,13.76-6.91,14.1C536.75,184.73,535.71,185.34,534.61,185.34z
			 M537.27,167.06c-0.72,2.41-1.46,5.08-2.1,7.46c1.1-2.23,2.32-4.75,3.4-7.06C538.11,167.43,537.66,167.29,537.27,167.06z
			 M565.67,90.79c0.36,0,0.72,0.06,1.07,0.2c1.5,0.57,2.28,2.22,1.78,3.74l-22.34,67.74c8.52-3.44,27.43-12.91,38.01-32.47
			c9.34-17.26,10.21-38.45,2.61-62.98c-2.11-6.07-3.84-11.86-4.89-15.64c-3.32,2.14-8.51,5.37-14.02,8.45
			C545.9,73.1,532.48,89.53,528,108.65c-4.96,21.16,2.38,40.36,6.55,48.94l28.37-65C563.41,91.47,564.51,90.79,565.67,90.79z
			 M540.01,160.1c0.06,0.15,0.12,0.3,0.18,0.45c0.12-0.06,0.25-0.13,0.37-0.2l2.06-6.23L540.01,160.1z"/>
	</g>
	<g>
		<path d="M493.31,265.96c5.4,0,12.01,3.63,15.32,5.73c1.29,0.83,2.76,2.57,4.23,3.22c2.3,0.09,4.6,0.28,6.89,0.37
			c4.32,1.01,8.36,1.84,11.77,3.77c15.81,9.28,26.1,18.75,35.57,34.38c2.02,3.31,3.03,6.89,4.69,10.48
			c2.3,5.33,4.87,10.94,7.54,15.99c1.19,2.39,2.11,5.06,3.77,7.08c0.64,0.92,2.48,1.19,3.58,1.75c3.03,1.56,6.71,2.76,9.56,4.6
			c5.33,3.31,10.48,7.26,15.17,11.31c1.75,1.56,2.94,3.77,4.6,5.42v0.83c-1.47,0.46-2.94,0.92-4.41,1.29
			c-3.22,0.83-6.07,0.64-9.19,1.47c-1.93,0.55-4.32,1.29-6.34,1.47c0.09,0.09,0.18,0.18,0.18,0.18c1.19,3.4,7.63,6.16,10.57,8.18
			c3.59,2.57,6.89,5.7,9.56,9.28c0.92,0.92,1.84,1.75,2.76,2.67c0.64,0.92,0.83,2.11,1.47,2.94v0.28c-1.29-0.46-1.93-1.65-2.94-2.39
			c-2.02-1.38-4.04-3.03-6.07-4.32c-3.49-2.21-7.54-3.49-11.12-5.7c-2.02-1.29-3.95-2.76-5.88-4.23c-1.75-1.29-3.68-3.77-4.78-5.61
			c-0.64-1.01-0.74-2.21-1.47-2.94c0.18-1.75,2.39-1.75,3.77-2.3c4.31-1.82,9.37-2.6,15.72-2.6c0.69,0,1.39,0.01,2.11,0.03l0,0
			c0,0,0,0,0,0c-0.28-1.84-4.87-4.14-6.34-5.24c-2.94-2.11-6.07-4.32-9.19-6.25c-1.65-1.01-4.5-1.75-6.34-2.57
			c-2.48-1.01-8-2.02-9.38-3.95c-2.76-3.59-4.6-8-6.53-12.32c-1.93-4.41-4.32-9.01-6.25-13.51c-1.01-2.21-1.47-4.14-2.57-6.25
			c-6.71-12.96-16.64-23.81-28.68-31.44c-3.95-2.48-8.36-4.78-13.24-6.34c-2.76-0.83-6.07-0.37-9.01-1.01h-1.93
			c-1.65-0.46-3.03-2.21-4.32-3.13c-2.85-1.93-5.7-3.22-9.1-4.6c-0.88-0.4-2.94-1.2-4.45-1.2c-0.55,0-1.03,0.11-1.35,0.38
			c-0.74,0.18-1.1,0.46-1.29,1.19c-0.74,1.1-0.09,2.76,0.37,3.77c1.38,2.94,3.31,4.69,5.06,7.17c1.56,2.21,3.49,4.69,4.6,7.08
			c2.39,5.15,3.49,10.85,5.7,15.99c0.83,1.93,2.11,4.14,3.31,5.88c1.01,1.38,2.85,2.39,3.4,4.14c1.1,1.84-1.65,7.9-2.3,9.84
			c-2.39,7.54-1.93,18.02,0.83,24.54c1.1,2.57,2.11,5.61,5.06,6.34c0.18-0.18,0-0.09,0.37-0.18c0.64-5.06,0.83-9.93,2.57-13.88
			c1.01-2.48,3.03-4.23,4.41-6.25c0.92,0.55,0.92,2.21,1.47,3.31c1.19,2.85,2.48,5.97,3.95,8.82c3.03,5.88,6.43,11.58,10.29,16.73
			c1.29,1.84,3.13,3.86,4.78,5.52c0.74,0.64,1.56,1.01,2.11,1.84h0.18v0.28c-2.76-1.01-4.5-3.86-6.71-5.52
			c-4.14-3.13-9.1-7.81-11.95-12.32c-1.19-2.57-2.48-5.06-3.77-7.63c0,0,0-0.09,0-0.18c-0.55,0.74-0.37,1.47-0.64,2.57
			c-1.19,4.6-0.28,9.84-4.41,11.49c-0.73,0.3-1.42,0.43-2.09,0.43c-3.63,0-6.32-3.91-7.56-5.85c-4.69-7.63-5.97-20.5-2.67-30.88
			c0.74-2.3,0.83-5.06,2.11-6.89c-0.28-1.65-1.56-2.11-2.3-3.13c-1.29-1.75-2.39-3.77-3.4-5.7c-1.93-3.77-3.31-8.27-4.78-12.32
			c-0.64-1.65-0.83-3.31-1.47-4.87c-1.1-2.39-3.12-4.78-4.69-6.89c-2.11-3.03-8.27-8.92-5.79-14.89
			C487.44,267.19,490.17,265.96,493.31,265.96 M493.31,259.96L493.31,259.96c-5.97,0-10.65,3.08-12.84,8.45
			c-3.4,8.2,2.25,15.3,5.29,19.12c0.45,0.57,0.88,1.11,1.13,1.47c0.03,0.05,0.07,0.09,0.1,0.14c0.35,0.47,0.72,0.96,1.1,1.46
			c1.13,1.48,2.3,3,2.9,4.26c0.15,0.4,0.29,0.93,0.44,1.54c0.23,0.9,0.49,1.92,0.92,3.04c0.34,0.92,0.67,1.87,1,2.83
			c1.18,3.38,2.4,6.88,4.06,10.12c0.01,0.02,0.02,0.03,0.03,0.05c1.05,2.01,2.31,4.34,3.89,6.47c0.1,0.13,0.2,0.26,0.3,0.38
			c-0.23,0.82-0.39,1.62-0.54,2.35c-0.15,0.72-0.29,1.4-0.45,1.9c-3.77,11.84-2.43,26.58,3.27,35.85c0.02,0.03,0.04,0.06,0.06,0.09
			c1.36,2.13,5.52,8.62,12.62,8.62c1.47,0,2.93-0.29,4.34-0.87c2.32-0.93,3.88-2.37,4.94-3.99c3.92,4.57,8.38,8.1,9.96,9.29
			c0.45,0.34,1.03,0.93,1.64,1.55c1.6,1.65,3.6,3.7,6.63,4.81c0.67,0.25,1.37,0.37,2.07,0.37c1.21,0,2.41-0.37,3.44-1.08
			c1.61-1.12,2.56-2.96,2.56-4.92v-0.28c0-1.99-0.97-3.75-2.45-4.84c-0.6-0.58-1.17-0.99-1.58-1.28c-0.07-0.05-0.15-0.1-0.22-0.16
			c-1.65-1.66-3.03-3.26-3.91-4.51c-0.04-0.05-0.08-0.11-0.12-0.16c-3.39-4.52-6.59-9.72-9.76-15.88c-1.25-2.43-2.39-5.14-3.49-7.77
			l-0.26-0.63c-0.03-0.07-0.06-0.14-0.09-0.2c-0.04-0.12-0.07-0.25-0.1-0.38c-0.34-1.28-1.06-3.95-3.72-5.55
			c-0.96-0.58-2.03-0.85-3.08-0.86c-1.92,0-3.8,0.92-4.96,2.62c-0.32,0.47-0.78,1.02-1.26,1.6c-0.8,0.96-1.73,2.07-2.55,3.42
			c-0.11-3.63,0.3-7.35,1.24-10.35c0.09-0.25,0.27-0.73,0.45-1.2c1.96-5.1,3.33-9.33,1.66-12.89c-0.87-2.25-2.4-3.69-3.44-4.67
			c-0.21-0.2-0.5-0.47-0.62-0.61c-1.06-1.57-2.07-3.36-2.65-4.71c-0.91-2.12-1.63-4.43-2.4-6.88c-0.95-3.03-1.93-6.17-3.37-9.28
			c-1.14-2.47-2.82-4.79-4.3-6.84c-0.2-0.28-0.4-0.55-0.59-0.82c0.74,0.41,1.45,0.84,2.15,1.31c0.16,0.12,0.48,0.42,0.73,0.63
			c1.25,1.13,2.96,2.67,5.44,3.36c0.52,0.15,1.06,0.22,1.61,0.22h1.35c1.61,0.29,3.15,0.35,4.53,0.41c1.3,0.06,2.52,0.11,3.3,0.33
			c3.81,1.23,7.67,3.09,11.81,5.69c11.16,7.07,20.34,17.14,26.54,29.11c0.45,0.86,0.78,1.75,1.16,2.78
			c0.34,0.93,0.73,1.99,1.26,3.14c1.06,2.47,2.24,4.93,3.38,7.32c1.02,2.15,1.99,4.17,2.86,6.17l0.55,1.24
			c1.85,4.16,3.76,8.46,6.67,12.27c2.18,2.95,6.14,4.13,9.64,5.18c0.85,0.25,1.72,0.51,2.2,0.7c0.91,0.4,1.88,0.75,2.82,1.08
			c0.9,0.32,2.25,0.8,2.73,1.09c0.98,0.61,1.97,1.24,2.94,1.89c-1.51,0.41-2.94,0.89-4.32,1.47c-0.14,0.05-0.3,0.08-0.46,0.12
			c-4.31,1.12-6.69,3.52-7.07,7.13c-0.16,1.52,0.26,3.02,1.17,4.23c0.01,0.02,0.02,0.05,0.03,0.07c0.22,0.59,0.55,1.47,1.14,2.42
			c1.38,2.29,3.74,5.37,6.29,7.26c1.98,1.51,4.04,3.07,6.26,4.49c0.03,0.02,0.05,0.03,0.08,0.05c2.07,1.27,4.13,2.22,6.13,3.14
			c1.8,0.83,3.49,1.61,4.94,2.52c0.96,0.61,2,1.38,3.1,2.2c0.84,0.62,1.7,1.26,2.59,1.87c0.07,0.07,0.2,0.2,0.29,0.3
			c0.78,0.81,2.08,2.16,4.21,2.92c0.66,0.23,1.34,0.35,2.02,0.35c1.22,0,2.43-0.37,3.46-1.1c1.59-1.12,2.54-2.95,2.54-4.9v-0.28
			c0-1.22-0.37-2.41-1.06-3.41c-0.04-0.1-0.08-0.2-0.12-0.3c-0.26-0.66-0.66-1.65-1.37-2.67c-0.2-0.29-0.43-0.55-0.67-0.8
			c-0.5-0.5-1-0.97-1.49-1.45c-0.33-0.31-0.65-0.62-0.98-0.94c-2.88-3.79-6.45-7.22-10.59-10.2c-0.02-0.02-0.05-0.03-0.07-0.05
			c0.9-0.13,1.85-0.31,2.85-0.57c1.6-0.4,3.18-0.89,4.71-1.37c2.5-0.78,4.21-3.1,4.21-5.73v-0.83c0-1.59-0.63-3.12-1.76-4.24
			c-0.47-0.47-0.99-1.15-1.54-1.88c-0.9-1.19-1.92-2.54-3.3-3.77c-0.03-0.02-0.05-0.05-0.08-0.07c-5.4-4.66-10.75-8.65-15.88-11.84
			c-2.14-1.37-4.41-2.35-6.61-3.3c-1.23-0.53-2.4-1.04-3.41-1.55c-0.02-0.01-0.04-0.02-0.06-0.03c-0.73-0.37-1.45-0.61-2.03-0.81
			c-0.02-0.01-0.04-0.01-0.05-0.02c-0.52-0.83-1.01-1.91-1.53-3.05c-0.33-0.73-0.67-1.49-1.06-2.26c-0.02-0.04-0.04-0.08-0.06-0.11
			c-2.27-4.31-4.74-9.55-7.34-15.57c-0.02-0.05-0.04-0.09-0.06-0.14c-0.53-1.16-1-2.34-1.5-3.6c-0.96-2.43-1.96-4.95-3.51-7.49
			c-9.68-15.98-20.24-26.2-37.65-36.42c-0.03-0.02-0.05-0.03-0.08-0.04c-3.86-2.19-8.13-3.18-12.25-4.13l-1.11-0.26
			c-0.37-0.09-0.75-0.14-1.13-0.15c-1.09-0.04-2.18-0.11-3.33-0.18c-0.62-0.04-1.24-0.07-1.87-0.11c-0.19-0.16-0.38-0.33-0.54-0.47
			c-0.69-0.61-1.47-1.29-2.37-1.88C507.9,264.13,500.27,259.96,493.31,259.96L493.31,259.96z"/>
	</g>
	<g>
		<path d="M516.17,288.69c-1.56,0-2.67,0.18-3.77,0.46c0,0,0,0.09,0,0.18h0.18c0.74,1.47,2.02,2.48,2.94,3.77
			c0.74,1.47,1.38,2.94,2.11,4.41c0.09-0.09,0.18-0.18,0.18-0.18c1.29-0.92,1.93-2.39,1.93-4.6c-0.55-0.64-0.64-1.29-1.1-1.93
			C518.1,289.88,516.9,289.43,516.17,288.69L516.17,288.69L516.17,288.69z"/>
	</g>
</g>
</svg>
