<?xml version="1.0" encoding="utf-8"?>
<!-- Generator: Adobe Illustrator 24.0.1, SVG Export Plug-In . SVG Version: 6.00 Build 0)  -->
<svg version="1.1" id="Capa_1" xmlns="http://www.w3.org/2000/svg" xmlns:xlink="http://www.w3.org/1999/xlink" x="0px" y="0px"
	 viewBox="0 0 74.41 69.85" style="enable-background:new 0 0 74.41 69.85;" xml:space="preserve">
<style type="text/css">
	.st0{font-family:'MyriadPro-Regular';}
	.st1{font-size:27.87px;}
	.st2{fill:none;}
</style>
<g>
	<path d="M14,7.12c-1.65,0-3,1.35-3,3v46c0,1.65,1.35,3,3,3h46c1.65,0,3-1.35,3-3v-46c0-1.65-1.35-3-3-3H14z M14,9.12h46
		c0.55,0,1,0.45,1,1v46c0,0.55-0.45,1-1,1H14c-0.55,0-1-0.45-1-1v-46C13,9.57,13.45,9.12,14,9.12z M19,13.12c-1.1,0-2,0.9-2,2v36
		c0,1.1,0.9,2,2,2h3c0.55,0,1-0.45,1-1s-0.45-1-1-1h-3v-36h36v36h-3c-0.55,0-1,0.45-1,1s0.45,1,1,1h3c1.1,0,2-0.9,2-2v-36
		c0-1.1-0.9-2-2-2H19z"/>
</g>
<text transform="matrix(0.9966 0 0 1 21.6018 41.2343)" class="st0 st1">Xd</text>
<g>
	<path d="M36.4,48.11l-5.41,2.8c-0.08,0.04-0.13,0.13-0.13,0.22v0.63c0,0.09,0.05,0.18,0.13,0.22l5.41,2.8
		c0.04,0.02,0.08,0.03,0.12,0.03c0.04,0,0.09-0.01,0.13-0.04c0.07-0.05,0.12-0.13,0.12-0.21v-0.81c0-0.09-0.05-0.18-0.14-0.22
		l-4.14-2.08l4.14-2.08c0.08-0.04,0.14-0.13,0.14-0.22v-0.81c0-0.09-0.05-0.17-0.12-0.21C36.57,48.07,36.48,48.06,36.4,48.11z"/>
	<path d="M41.32,46.29h-0.79c-0.1,0-0.2,0.06-0.23,0.16l-3.25,8.48c-0.03,0.08-0.02,0.16,0.03,0.23s0.12,0.11,0.21,0.11h0.78
		c0.1,0,0.2-0.06,0.23-0.16l3.26-8.48c0.03-0.08,0.02-0.16-0.03-0.23C41.48,46.33,41.4,46.29,41.32,46.29z"/>
	<path d="M41.94,53.52c-0.08,0.04-0.14,0.13-0.14,0.22v0.81c0,0.09,0.04,0.17,0.12,0.21c0.04,0.02,0.08,0.04,0.13,0.04
		c0.04,0,0.08-0.01,0.11-0.03l3.53-1.82l-0.46-1.08L41.94,53.52z"/>
	<path d="M41.94,49.36l2.82,1.41c-0.07-0.18-0.03-0.39,0.11-0.53c0.15-0.15,0.37-0.18,0.56-0.1l2.28,1.05v-0.09
		c0-0.09-0.05-0.18-0.14-0.22l-5.41-2.79c-0.08-0.04-0.17-0.04-0.24,0.01c-0.07,0.05-0.12,0.13-0.12,0.21v0.81
		C41.8,49.23,41.86,49.32,41.94,49.36z"/>
	<polygon points="47.71,51.75 45.23,50.6 45.45,51.11 45.68,51.66 46.14,52.73 46.31,53.12 47.39,55.64 47.72,53.33 50.2,52.9 	"/>
	<path d="M31.65,54.77h-5.21v-1.75h1.53v-3.88h-1.53V47.5h5.68c0.28,0,0.5-0.22,0.5-0.5s-0.22-0.5-0.5-0.5h-6.18
		c-0.28,0-0.5,0.22-0.5,0.5v2.14h-1.35v3.88h1.35v2.25c0,0.28,0.22,0.5,0.5,0.5h5.71c0.28,0,0.5-0.22,0.5-0.5
		S31.92,54.77,31.65,54.77z M25.09,50.14h0.35h1h0.53v1.88h-0.53h-1h-0.35V50.14z"/>
</g>
</svg>
