<svg width="141" height="62" viewBox="0 0 141 62" fill="none" xmlns="http://www.w3.org/2000/svg">
<path d="M91.954 58.6681L76.154 29.1963C75.719 28.3842 75.5522 27.4524 75.6791 26.5388C75.9691 24.4686 76.0163 21.6371 74.5987 19.8896C73.9751 19.121 73.163 18.675 72.5031 18.4176C71.8324 18.1566 71.1073 18.0877 70.3931 18.1784C68.4752 18.4176 67.7718 19.1826 67.5144 19.4654C66.2237 20.8721 66.1114 23.3592 66.1802 24.2293L66.2092 24.4686L66.202 24.6463L66.2926 57.6385C66.2999 60.0422 64.3566 61.9964 61.9529 62C59.5492 62.0072 57.5986 60.064 57.5914 57.6602L57.5008 24.9762C57.5008 24.8856 57.4971 24.7949 57.4899 24.7043C57.3956 23.1127 57.3739 17.7215 61.0248 13.6646C62.7686 11.7286 66.0171 9.41547 71.5968 9.40097H71.7527L71.9086 9.41185C72.4923 9.45173 77.7239 9.93392 81.3567 14.4078C83.6299 17.2103 84.6958 20.8105 84.5326 25.1285C84.5036 25.9043 84.674 26.6802 85.0438 27.3654L99.6256 54.5604C100.76 56.6777 99.9664 59.3135 97.8491 60.4519C95.7282 61.583 93.0888 60.7854 91.954 58.6681Z" fill="#1A3EAE"/>
<path d="M57.5152 29.0042L57.5369 37.7054H66.2382L66.2164 29.0042H57.5152Z" fill="#2E3192"/>
<path d="M76.0598 29.0042C76.0888 29.0694 76.1178 29.1347 76.154 29.1963L80.7149 37.7054H88.3466C89.0717 37.7054 89.7751 37.6148 90.4458 37.4407L85.9212 29.0042H76.0598Z" fill="#2E3192"/>
<path d="M99.6619 13.777H96.7614V8.41483C96.7614 3.76691 92.9945 0 88.3466 0H52.2401C47.5922 0 43.8253 3.76691 43.8253 8.41483V13.777H40.5623C38.1586 13.777 36.2117 15.7239 36.2117 18.1276C36.2117 20.5313 38.1586 22.4782 40.5623 22.4782H43.8253V27.4778C43.8253 32.1257 47.5922 35.8926 52.2401 35.8926H88.3466C92.9945 35.8926 96.7614 32.1257 96.7614 27.4778V22.4782H99.6619C102.066 22.4782 104.012 20.5313 104.012 18.1276C104.012 15.7275 102.066 13.777 99.6619 13.777ZM88.0602 27.1914H52.5301V8.70124H88.0602V27.1914Z" fill="#6D69FE"/>
<path d="M1.65324 26.7853L24.7224 1.89977C26.3575 0.137766 29.1093 0.0326259 30.8713 1.66773C32.6333 3.30284 32.7384 6.05461 31.1033 7.81661L11.7612 28.6815C10.5503 29.9903 10.5503 32.0097 11.7612 33.3149L31.1033 54.1797C32.7384 55.9417 32.6333 58.6935 30.8713 60.3286C29.1093 61.9637 26.3575 61.8586 24.7224 60.0966L1.65324 35.211C-0.551079 32.8363 -0.551079 29.1637 1.65324 26.7853Z" fill="#1A3EAE"/>
<path d="M138.575 26.7853L115.505 1.89978C113.87 0.137781 111.118 0.0326412 109.356 1.66775C107.594 3.30286 107.489 6.05463 109.124 7.81663L128.467 28.6815C129.677 29.9903 129.677 32.0097 128.467 33.3149L109.124 54.1798C107.489 55.9418 107.594 58.6935 109.356 60.3286C111.118 61.9637 113.87 61.8586 115.505 60.0966L138.575 35.211C140.779 32.8363 140.779 29.1637 138.575 26.7853Z" fill="#1A3EAE"/>
</svg>
