<svg width="114" height="51" viewBox="0 0 114 51" fill="none" xmlns="http://www.w3.org/2000/svg">
<path d="M74.1564 48.0512L61.4145 24.2836C61.0636 23.6286 60.9292 22.8772 61.0315 22.1404C61.2654 20.4709 61.3034 18.1874 60.1602 16.7781C59.6573 16.1583 59.0024 15.7987 58.4702 15.5911C57.9293 15.3806 57.3446 15.325 56.7686 15.3981C55.2219 15.5911 54.6547 16.208 54.4471 16.4361C53.4062 17.5705 53.3156 19.5762 53.3711 20.2779L53.3945 20.4709L53.3887 20.6142L53.4618 47.2208C53.4676 49.1593 51.9004 50.7352 49.962 50.7381C48.0235 50.744 46.4505 49.1768 46.4446 47.2383L46.3715 20.8802C46.3715 20.8071 46.3686 20.7341 46.3628 20.661C46.2867 19.3774 46.2692 15.0297 49.2135 11.758C50.6198 10.1967 53.2395 8.33128 57.7393 8.31958H57.865L57.9907 8.32835C58.4615 8.36051 62.6805 8.74938 65.6102 12.3574C67.4434 14.6175 68.303 17.5208 68.1714 21.003C68.148 21.6287 68.2854 22.2544 68.5837 22.807L80.3432 44.7385C81.2584 46.446 80.618 48.5716 78.9105 49.4897C77.2001 50.4019 75.0716 49.7587 74.1564 48.0512Z" fill="white"/>
<path d="M46.3832 24.1289L46.4008 31.146H53.4179L53.4004 24.1289H46.3832Z" fill="white"/>
<path d="M61.3385 24.1289C61.3619 24.1815 61.3853 24.2342 61.4145 24.2839L65.0927 31.146H71.2473C71.832 31.146 72.3993 31.0729 72.9402 30.9326L69.2913 24.1289H61.3385Z" fill="white"/>
<path d="M80.3724 11.8487H78.0334V7.52443C78.0334 3.77611 74.9956 0.738281 71.2473 0.738281H42.1291C38.3808 0.738281 35.3429 3.77611 35.3429 7.52443V11.8487H32.7115C30.773 11.8487 29.2029 13.4188 29.2029 15.3573C29.2029 17.2958 30.773 18.8659 32.7115 18.8659H35.3429V22.8978C35.3429 26.6461 38.3808 29.6839 42.1291 29.6839H71.2473C74.9956 29.6839 78.0334 26.6461 78.0334 22.8978V18.8659H80.3724C82.3109 18.8659 83.881 17.2958 83.881 15.3573C83.881 13.4217 82.3109 11.8487 80.3724 11.8487ZM71.0163 22.6668H42.363V7.75541H71.0163V22.6668Z" fill="#AAA7FE"/>
<path d="M1.33325 22.3394L19.9374 2.27042C21.2561 0.849446 23.4752 0.764656 24.8962 2.08329C26.3172 3.40193 26.402 5.6211 25.0833 7.04207L9.48482 23.8686C8.50827 24.9241 8.50827 26.5526 9.48482 27.6052L25.0833 44.4317C26.402 45.8526 26.3172 48.0718 24.8962 49.3905C23.4752 50.7091 21.2561 50.6243 19.9374 49.2033L1.33325 29.1343C-0.444418 27.2192 -0.444418 24.2574 1.33325 22.3394Z" fill="white"/>
<path d="M111.754 22.3394L93.1495 2.27042C91.8308 0.849446 89.6117 0.764656 88.1907 2.08329C86.7697 3.40193 86.6849 5.6211 88.0036 7.04207L103.602 23.8686C104.579 24.9241 104.579 26.5526 103.602 27.6052L88.0036 44.4317C86.6849 45.8526 86.7697 48.0718 88.1907 49.3905C89.6117 50.7091 91.8308 50.6243 93.1495 49.2033L111.754 29.1343C113.531 27.2192 113.531 24.2574 111.754 22.3394Z" fill="white"/>
</svg>
